SplineFontDB: 3.0
FontName: Estedad-Black
FullName: Estedad Black
FamilyName: Estedad Black
Weight: Black
Copyright: Copyright (c) 2017-2018 by Amin Abedi (@aminabedi68)-www.opentypeshop.com,\nwith Reserved Font Name Estedad.\n\nThis Font Software is licensed under the SIL Open Font License, Version 1.1.
Version: 2.2
StrokeWidth: 100
ItalicAngle: 0
UnderlinePosition: -509
UnderlineWidth: 101
Ascent: 1638
Descent: 410
InvalidEm: 0
sfntRevision: 0x00023334
LayerCount: 2
Layer: 0 0 "Back" 1
Layer: 1 0 "Fore" 0
XUID: [1021 89 1101065813 28845]
StyleMap: 0x0000
FSType: 0
OS2Version: 0
OS2_WeightWidthSlopeOnly: 0
OS2_UseTypoMetrics: 1
CreationTime: 1496828874
ModificationTime: 1545396036
PfmFamily: 17
TTFWeight: 900
TTFWidth: 5
LineGap: 0
VLineGap: 213
OS2TypoAscent: 500
OS2TypoAOffset: 1
OS2TypoDescent: -600
OS2TypoDOffset: 1
OS2TypoLinegap: 0
OS2WinAscent: 200
OS2WinAOffset: 1
OS2WinDescent: -200
OS2WinDOffset: 1
HheadAscent: 500
HheadAOffset: 1
HheadDescent: -600
HheadDOffset: 1
OS2CapHeight: 1400
OS2XHeight: 1012
OS2Vendor: 'AA68'
Lookup: 2 0 0 "Multiple substitution 0" { "Multiple substitution 0 subtable"  } []
Lookup: 2 0 0 "Multiple substitution 1" { "Multiple substitution 1 subtable"  } []
Lookup: 1 9 0 "'fina' Terminal Forms in Arabic lookup 2" { "'fina' Terminal Forms in Arabic lookup 2 subtable"  } ['fina' ('arab' <'FAR ' 'KUR ' 'dflt' > ) ]
Lookup: 1 9 0 "'medi' Medial Forms in Arabic lookup 3" { "'medi' Medial Forms in Arabic lookup 3 subtable"  } ['medi' ('arab' <'FAR ' 'KUR ' 'dflt' > ) ]
Lookup: 1 9 0 "'init' Initial Forms in Arabic lookup 4" { "'init' Initial Forms in Arabic lookup 4 subtable"  } ['init' ('arab' <'FAR ' 'KUR ' 'dflt' > ) ]
Lookup: 4 9 1 "'rlig' Required Ligatures in Arabic lookup 5" { "'rlig' Required Ligatures in Arabic lookup 5 subtable"  } ['rlig' ('arab' <'FAR ' 'KUR ' 'dflt' > ) ]

StartChar: period
Encoding: 46 46 0
Width: 552
VWidth: 2325
Flags: HMW
LayerCount: 2
Fore
SplineSet
73 80 m 0
 73 165 142 231 227 231 c 0
 312 231 380 165 380 80 c 0
 380 -5 312 -72 227 -72 c 0
 142 -72 73 -5 73 80 c 0
EndSplineSet
Colour: ff0000
EndChar

StartChar: slash
Encoding: 47 47 1
Width: 1050
VWidth: 1647
Flags: HMW
LayerCount: 2
Fore
SplineSet
735 1519 m 1
 1007 1393 l 1
 315 -108 l 1
 43 18 l 1
 735 1519 l 1
EndSplineSet
Colour: ffff
EndChar

StartChar: asterisk
Encoding: 42 42 2
Width: 1133
VWidth: 1647
Flags: HMW
LayerCount: 2
Fore
SplineSet
139 1098 m 1
 204 1297 l 1
 461 1213 l 1
 461 1484 l 1
 671 1484 l 1
 671 1212 l 1
 929 1297 l 1
 994 1098 l 1
 737 1013 l 1
 897 793 l 1
 726 670 l 1
 566 890 l 1
 407 670 l 1
 236 793 l 1
 396 1013 l 1
 139 1098 l 1
EndSplineSet
Colour: ff00ff
EndChar

StartChar: parenleft
Encoding: 40 40 3
Width: 598
VWidth: 1647
Flags: HMW
LayerCount: 2
Fore
SplineSet
551 39 m 1
 299 -123 l 1
 148 113 50 376 50 706 c 0
 50 1036 148 1298 299 1534 c 1
 551 1372 l 1
 428 1181 350 984 350 706 c 0
 350 428 428 230 551 39 c 1
EndSplineSet
Colour: ffff
EndChar

StartChar: parenright
Encoding: 41 41 4
Width: 598
VWidth: 1647
Flags: HMW
LayerCount: 2
Fore
SplineSet
47 1372 m 1
 299 1534 l 1
 450 1298 548 1035 548 705 c 0
 548 375 450 113 299 -123 c 1
 47 39 l 1
 170 230 248 427 248 705 c 0
 248 983 170 1181 47 1372 c 1
EndSplineSet
Colour: ffff
EndChar

StartChar: uni0660
Encoding: 1632 1632 5
Width: 845
VWidth: 1954
Flags: HMW
LayerCount: 2
Fore
SplineSet
422 623 m 0
 325 623 250 548 250 451 c 0
 250 354 326 277 422 277 c 0
 518 277 595 354 595 451 c 0
 595 547 519 623 422 623 c 0
422 823 m 0
 627 823 795 658 795 451 c 0
 795 245 630 77 422 77 c 0
 214 77 50 246 50 451 c 0
 50 657 216 823 422 823 c 0
EndSplineSet
PairPos2: "'kern' Horizontal Kerning in Arabic lookup 3 per glyph data 0" uni0661 dx=50 dy=0 dh=50 dv=0 dx=0 dy=0 dh=0 dv=0
PairPos2: "'kern' Horizontal Kerning in Arabic lookup 3 per glyph data 0" uni0667 dx=-100 dy=0 dh=-100 dv=0 dx=0 dy=0 dh=0 dv=0
PairPos2: "'kern' Horizontal Kerning in Arabic lookup 3 per glyph data 0" uni0666 dx=-25 dy=0 dh=-25 dv=0 dx=0 dy=0 dh=0 dv=0
PairPos2: "'kern' Horizontal Kerning in Arabic lookup 3 per glyph data 0" uni0662 dx=-125 dy=0 dh=-125 dv=0 dx=0 dy=0 dh=0 dv=0
Colour: ffff
EndChar

StartChar: uni0661
Encoding: 1633 1633 6
Width: 618
VWidth: 1854
Flags: HMW
LayerCount: 2
Fore
SplineSet
568 -75 m 1
 268 -75 l 1
 268 439 192 789 34 1232 c 1
 317 1332 l 1
 485 866 568 471 568 -75 c 1
EndSplineSet
PairPos2: "'kern' Horizontal Kerning in Arabic lookup 3 per glyph data 0" uni0665 dx=-50 dy=0 dh=-50 dv=0 dx=0 dy=0 dh=0 dv=0
PairPos2: "'kern' Horizontal Kerning in Arabic lookup 3 per glyph data 0" uni0660 dx=-50 dy=0 dh=-50 dv=0 dx=0 dy=0 dh=0 dv=0
Colour: ffff
EndChar

StartChar: uni0662
Encoding: 1634 1634 7
Width: 1086
VWidth: 1854
Flags: HMW
LayerCount: 2
Fore
SplineSet
390 1107 m 0
 430.793550784 962.653589534 478 875 566 875 c 0
 722 875 736 1027 736 1332 c 1
 1036 1332 l 1
 1036 1069 1036 575 587 575 c 0
 566 575 544 576 522 579 c 1
 555 373 568 164 568 -72 c 1
 268 -72 l 1
 268 455 160 831 35 1244 c 1
 322 1332 l 1
 352 1240 364 1199 390 1107 c 0
EndSplineSet
Colour: ffff
EndChar

StartChar: uni0663
Encoding: 1635 1635 8
Width: 1473
VWidth: 1854
Flags: HMW
LayerCount: 2
Fore
SplineSet
35 1244 m 1
 322 1332 l 1
 352 1236 364 1194 390 1102 c 0
 419 999 469 880 538 880 c 0
 644 880 665 1168 670 1300 c 1
 965 1274 l 1
 954 1191 948 1137 948 1051 c 0
 948 925 959 880 1034 880 c 0
 1114 880 1123 936 1123 1059 c 0
 1123 1155 1112 1208 1096 1284 c 1
 1388 1345 l 1
 1407 1251 1423 1171 1423 1059 c 0
 1423 953 1405 839 1346 744 c 0
 1285 647 1179 580 1031 580 c 0
 929 580 839 617 779 671 c 1
 721 619 636 580 538 580 c 2
 522 580 l 1
 555 373 568 165 568 -72 c 1
 268 -72 l 1
 268 457 160 831 35 1244 c 1
EndSplineSet
PairPos2: "'kern' Horizontal Kerning in Arabic lookup 3 per glyph data 0" uni0668 dx=-50 dy=0 dh=-50 dv=0 dx=0 dy=0 dh=0 dv=0
Colour: ffff
EndChar

StartChar: uni0664
Encoding: 1636 1636 9
Width: 997
VWidth: 1854
Flags: HMW
LayerCount: 2
Fore
SplineSet
197 630 m 1
 145 688 111 816 111 919 c 0
 111 1273 442 1332 739 1332 c 1
 739 1032 l 1
 509 1032 411 987 411 907 c 0
 411 826 513 786 746 786 c 1
 746 486 l 1
 531 486 350 482 350 342 c 0
 350 259 433 225 533 225 c 2
 872 225 l 1
 872 -75 l 1
 533 -75 l 2
 195 -75 50 82 50 279 c 0
 50 428 109 551 197 630 c 1
EndSplineSet
PairPos2: "'kern' Horizontal Kerning in Arabic lookup 3 per glyph data 0" uni0666 dx=50 dy=0 dh=50 dv=0 dx=0 dy=0 dh=0 dv=0
Colour: ffff
EndChar

StartChar: uni0665
Encoding: 1637 1637 10
Width: 1196
VWidth: 1854
Flags: HMW
LayerCount: 2
Fore
SplineSet
600 824 m 1
 423 639 350 495 350 346 c 0
 350 221 405 185 601 185 c 0
 802 185 846 212 846 349 c 0
 846 490 745 657 600 824 c 1
1146 349 m 0
 1146 18 893 -115 601 -115 c 0
 321 -115 50 14 50 346 c 0
 50 601 178 817 386 1034 c 1
 360 1058 336 1080 310 1102 c 1
 500 1332 l 1
 774 1105 1146 774 1146 349 c 0
EndSplineSet
PairPos2: "'kern' Horizontal Kerning in Arabic lookup 3 per glyph data 0" uni0661 dx=50 dy=0 dh=50 dv=0 dx=0 dy=0 dh=0 dv=0
PairPos2: "'kern' Horizontal Kerning in Arabic lookup 3 per glyph data 0" uni0667 dx=-100 dy=0 dh=-100 dv=0 dx=0 dy=0 dh=0 dv=0
Colour: ffff
EndChar

StartChar: uni0666
Encoding: 1638 1638 11
Width: 1168
VWidth: 1854
Flags: HMW
LayerCount: 2
Fore
SplineSet
95 1038 m 1
 159 1332 l 1
 293 1301 456 1277 618 1277 c 0
 709 1277 797 1286 871 1299 c 1
 1011 1174 l 1
 1007 1074 1004 978 1004 877 c 0
 1004 490 1045 316 1132 -37 c 1
 840 -109 l 1
 750 256 704 469 704 877 c 0
 704 911 704 945 705 979 c 1
 675 977 648 977 618 977 c 0
 440 977 254 1005 95 1038 c 1
EndSplineSet
PairPos2: "'kern' Horizontal Kerning in Arabic lookup 3 per glyph data 0" uni0664 dx=-50 dy=0 dh=-50 dv=0 dx=0 dy=0 dh=0 dv=0
PairPos2: "'kern' Horizontal Kerning in Arabic lookup 3 per glyph data 0" uni0665 dx=-175 dy=0 dh=-175 dv=0 dx=0 dy=0 dh=0 dv=0
PairPos2: "'kern' Horizontal Kerning in Arabic lookup 3 per glyph data 0" uni0660 dx=-200 dy=0 dh=-200 dv=0 dx=0 dy=0 dh=0 dv=0
PairPos2: "'kern' Horizontal Kerning in Arabic lookup 3 per glyph data 0" uni066B dx=-150 dy=0 dh=-150 dv=0 dx=0 dy=0 dh=0 dv=0
PairPos2: "'kern' Horizontal Kerning in Arabic lookup 3 per glyph data 0" uni0668 dx=-200 dy=0 dh=-200 dv=0 dx=0 dy=0 dh=0 dv=0
Colour: ffff
EndChar

StartChar: uni0667
Encoding: 1639 1639 12
Width: 1315
VWidth: 1854
Flags: HMW
LayerCount: 2
Fore
SplineSet
1043 1333 m 1
 1279 1148 l 1
 1020 815 857 563 789 -72 c 1
 527 -72 l 1
 465 523 317 783 36 1149 c 1
 274 1332 l 1
 436 1119 566 930 658 608 c 1
 750 931 880 1120 1043 1333 c 1
EndSplineSet
PairPos2: "'kern' Horizontal Kerning in Arabic lookup 3 per glyph data 0" uni0660 dx=-100 dy=0 dh=-100 dv=0 dx=0 dy=0 dh=0 dv=0
PairPos2: "'kern' Horizontal Kerning in Arabic lookup 3 per glyph data 0" uni0665 dx=-100 dy=0 dh=-100 dv=0 dx=0 dy=0 dh=0 dv=0
PairPos2: "'kern' Horizontal Kerning in Arabic lookup 3 per glyph data 0" uni0668 dx=-150 dy=0 dh=-150 dv=0 dx=0 dy=0 dh=0 dv=0
PairPos2: "'kern' Horizontal Kerning in Arabic lookup 3 per glyph data 0" uni066B dx=-125 dy=0 dh=-125 dv=0 dx=0 dy=0 dh=0 dv=0
Colour: ffff
EndChar

StartChar: uni0668
Encoding: 1640 1640 13
Width: 1315
VWidth: 1854
Flags: HMW
LayerCount: 2
Fore
SplineSet
272 -112 m 1
 36 73 l 1
 295 406 458 657 526 1292 c 1
 788 1292 l 1
 850 697 998 438 1279 72 c 1
 1041 -111 l 1
 879 102 749 291 657 613 c 1
 565 290 435 101 272 -112 c 1
EndSplineSet
PairPos2: "'kern' Horizontal Kerning in Arabic lookup 3 per glyph data 0" uni0663 dx=-200 dy=0 dh=-200 dv=0 dx=0 dy=0 dh=0 dv=0
PairPos2: "'kern' Horizontal Kerning in Arabic lookup 3 per glyph data 0" uni0662 dx=-175 dy=0 dh=-175 dv=0 dx=0 dy=0 dh=0 dv=0
PairPos2: "'kern' Horizontal Kerning in Arabic lookup 3 per glyph data 0" uni0667 dx=-150 dy=0 dh=-150 dv=0 dx=0 dy=0 dh=0 dv=0
Colour: ffff
EndChar

StartChar: uni0669
Encoding: 1641 1641 14
Width: 1035
VWidth: 1854
Flags: HMW
LayerCount: 2
Fore
SplineSet
586 459 m 1
 558 456 530 455 501 455 c 0
 302 455 50 544 50 831 c 0
 50 1050 179 1332 467 1332 c 0
 796 1332 878 1028 878 804 c 0
 878 629 884 450 906 328 c 0
 925 223 962 99 1003 8 c 1
 727 -112 l 1
 650 66 600 209 586 459 c 1
578 761 m 1
 578 804 l 2
 578 1005 538 1032 467 1032 c 0
 424 1032 350 974 350 831 c 0
 350 778 379 755 501 755 c 0
 528 755 554 758 578 761 c 1
EndSplineSet
PairPos2: "'kern' Horizontal Kerning in Arabic lookup 3 per glyph data 0" uni066B dx=200 dy=0 dh=200 dv=0 dx=0 dy=0 dh=0 dv=0
PairPos2: "'kern' Horizontal Kerning in Arabic lookup 3 per glyph data 0" uni0668 dx=-150 dy=0 dh=-150 dv=0 dx=0 dy=0 dh=0 dv=0
PairPos2: "'kern' Horizontal Kerning in Arabic lookup 3 per glyph data 0" uni0665 dx=-50 dy=0 dh=-50 dv=0 dx=0 dy=0 dh=0 dv=0
Colour: ffff
EndChar

StartChar: uni06F4
Encoding: 1780 1780 19
Width: 1179
VWidth: 1854
Flags: HMW
LayerCount: 2
Fore
SplineSet
528 540 m 1
 563 296 568 171 568 -72 c 1
 268 -72 l 1
 268 427 170 820 45 1240 c 1
 329 1332 l 1
 352 1277 403 1149 420 1094 c 1
 468 1254 602 1332 772 1332 c 0
 847 1332 927 1318 1008 1297 c 1
 942 1005 l 1
 876 1020 816 1033 742 1033 c 0
 647 1033 573 982 573 858 c 0
 573 810 575 795 620 784 c 0
 653 776 700 773 761 773 c 0
 828 773 934 782 1005 789 c 1
 1032 490 l 1
 956 481 890 476 831 476 c 0
 706 476 629 485 528 540 c 1
EndSplineSet
PairPos2: "'kern' Horizontal Kerning in Arabic lookup 3 per glyph data 1" uni06F0 dx=-25 dy=0 dh=-25 dv=0 dx=0 dy=0 dh=0 dv=0
PairPos2: "'kern' Horizontal Kerning in Arabic lookup 3 per glyph data 1" uni06F8 dx=-50 dy=0 dh=-50 dv=0 dx=0 dy=0 dh=0 dv=0
Colour: ffff
EndChar

StartChar: uni06F5
Encoding: 1781 1781 20
Width: 1276
VWidth: 1854
Flags: HMW
LayerCount: 2
Fore
SplineSet
645 -47 m 1
 582 -90 509 -112 434 -112 c 0
 224 -112 50 68 50 329 c 0
 50 546 157 794 412 1036 c 1
 342 1089 l 1
 513 1332 l 1
 590 1279 667 1223 737 1161 c 0
 1032 904 1226 608 1226 314 c 0
 1226 63 1056 -112 852 -112 c 0
 778 -112 704 -88 645 -47 c 1
498 233 m 2
 498 337 l 1
 798 337 l 1
 798 233 l 2
 798 206 819 188 856 188 c 0
 879 188 926 192 926 314 c 0
 926 450 830 640 641 839 c 1
 419 640 350 454 350 329 c 0
 350 188 410 188 434 188 c 0
 477 188 498 214 498 233 c 2
EndSplineSet
PairPos2: "'kern' Horizontal Kerning in Arabic lookup 3 per glyph data 1" uni06F1 dx=50 dy=0 dh=50 dv=0 dx=0 dy=0 dh=0 dv=0
PairPos2: "'kern' Horizontal Kerning in Arabic lookup 3 per glyph data 1" uni06F2 dx=-25 dy=0 dh=-25 dv=0 dx=0 dy=0 dh=0 dv=0
PairPos2: "'kern' Horizontal Kerning in Arabic lookup 3 per glyph data 1" uni06F3 dx=-25 dy=0 dh=-25 dv=0 dx=0 dy=0 dh=0 dv=0
PairPos2: "'kern' Horizontal Kerning in Arabic lookup 3 per glyph data 1" uni06F7 dx=-100 dy=0 dh=-100 dv=0 dx=0 dy=0 dh=0 dv=0
PairPos2: "'kern' Horizontal Kerning in Arabic lookup 3 per glyph data 1" uni06F9 dx=-75 dy=0 dh=-75 dv=0 dx=0 dy=0 dh=0 dv=0
Colour: ffff
EndChar

StartChar: uni06F6
Encoding: 1782 1782 21
Width: 1034
VWidth: 1854
Flags: HMW
LayerCount: 2
Fore
SplineSet
565 741 m 0
 686 741 778 793 861 854 c 1
 1054 622 l 1
 742 407 472 150 293 -112 c 1
 32 36 l 1
 151 216 244 333 376 468 c 1
 214 515 56 638 56 860 c 0
 56 1124 253 1332 514 1332 c 0
 699 1332 804 1239 899 1151 c 1
 694 930 l 1
 647 984 599 1032 514 1032 c 0
 427 1032 356 953 356 860 c 0
 356 778 457 741 565 741 c 0
EndSplineSet
Colour: ffff
EndChar

StartChar: uni0654
Encoding: 1620 1620 25
Width: 0
VWidth: 1854
Flags: HMW
AnchorPoint: "Anchor-1" 0 1598 basemark 0
AnchorPoint: "Anchor-1" 1 1209 mark 0
AnchorPoint: "Anchor-4" 1 1209 mark 0
AnchorPoint: "Anchor-5" 1 1209 mark 0
LayerCount: 2
Fore
SplineSet
-205 1504 m 1
 -255 1614 l 1
 -172 1651 l 1
 -206 1700 -223 1753 -223 1806 c 0
 -223 1916 -139 2012 0 2012 c 2
 92 2012 l 1
 92 1892 l 1
 0 1892 l 2
 -79 1892 -103 1852 -103 1806 c 0
 -103 1775 -89 1735 -60 1702 c 1
 160 1802 l 1
 210 1692 l 1
 -205 1504 l 1
EndSplineSet
Colour: ff00
EndChar

StartChar: uni0653
Encoding: 1619 1619 27
Width: 0
VWidth: 1854
Flags: HMW
AnchorPoint: "Anchor-1" 0 1598 basemark 0
AnchorPoint: "Anchor-1" 1 1209 mark 0
AnchorPoint: "Anchor-4" 1 1209 mark 0
AnchorPoint: "Anchor-5" 1 1209 mark 0
LayerCount: 2
Fore
SplineSet
-270 1556 m 1
 -238 1620 -179 1699 -79 1699 c 0
 -37 1699 4 1683 43 1654 c 0
 66 1636 82 1632 94 1632 c 0
 123 1632 155 1664 175 1710 c 1
 285 1664 l 1
 255 1591 194 1512 94 1512 c 0
 51 1512 9 1528 -31 1558 c 0
 -53 1575 -69 1579 -79 1579 c 0
 -109 1579 -141 1546 -162 1504 c 1
 -270 1556 l 1
EndSplineSet
Colour: ff00
EndChar

StartChar: uni0652
Encoding: 1618 1618 28
Width: 0
VWidth: 1854
Flags: HMW
AnchorPoint: "Anchor-1" 0 1598 basemark 0
AnchorPoint: "Anchor-1" 1 1209 mark 0
AnchorPoint: "Anchor-4" 1 1209 mark 0
AnchorPoint: "Anchor-5" 1 1209 mark 0
LayerCount: 2
Fore
SplineSet
0 1792 m 0
 -53 1792 -93 1752 -93 1699 c 0
 -93 1646 -52 1605 0 1605 c 0
 51 1605 94 1648 94 1699 c 0
 94 1750 53 1792 0 1792 c 0
0 1912 m 0
 117 1912 214 1818 214 1699 c 0
 214 1580 119 1485 0 1485 c 0
 -120 1485 -213 1582 -213 1699 c 0
 -213 1816 -120 1912 0 1912 c 0
EndSplineSet
Colour: ff00
EndChar

StartChar: uni0651
Encoding: 1617 1617 29
Width: 0
VWidth: 1854
Flags: HMW
AnchorPoint: "Anchor-1" 0 1598 basemark 0
AnchorPoint: "Anchor-1" 0 1209 mark 0
AnchorPoint: "Anchor-4" 0 1209 mark 0
AnchorPoint: "Anchor-5" 0 1209 mark 0
LayerCount: 2
Fore
SplineSet
156 1726 m 0
 156 1783 143 1826 125 1876 c 1
 238 1917 l 1
 259 1859 276 1801 276 1726 c 0
 276 1622 212 1544 124 1544 c 0
 77 1544 33 1567 0 1603 c 1
 -35 1564 -77 1544 -124 1544 c 0
 -212 1544 -276 1622 -276 1726 c 0
 -276 1801 -259 1859 -238 1917 c 1
 -125 1876 l 1
 -143 1826 -156 1783 -156 1726 c 0
 -156 1666 -133 1664 -124 1664 c 0
 -111 1664 -84 1675 -69 1723 c 0
 -64 1739 -60 1758 -60 1782 c 2
 -60 1867 l 1
 60 1867 l 1
 60 1782 l 2
 60 1758 64 1738 69 1722 c 0
 84 1674 111 1664 124 1664 c 0
 133 1664 156 1666 156 1726 c 0
EndSplineSet
Colour: ff00
EndChar

StartChar: uni064E
Encoding: 1614 1614 30
Width: 0
VWidth: 1854
Flags: HMW
AnchorPoint: "Anchor-1" 0 1598 basemark 0
AnchorPoint: "Anchor-1" 1 1209 mark 0
AnchorPoint: "Anchor-4" 1 1209 mark 0
AnchorPoint: "Anchor-5" 1 1209 mark 0
LayerCount: 2
Fore
SplineSet
160 1802 m 1
 210 1692 l 1
 -205 1504 l 1
 -255 1614 l 1
 160 1802 l 1
EndSplineSet
Colour: ff00
EndChar

StartChar: uni064F
Encoding: 1615 1615 31
Width: 0
VWidth: 1854
Flags: HMW
AnchorPoint: "Anchor-1" 0 1598 basemark 0
AnchorPoint: "Anchor-1" 1 1209 mark 0
AnchorPoint: "Anchor-4" 1 1209 mark 0
AnchorPoint: "Anchor-5" 1 1209 mark 0
LayerCount: 2
Fore
SplineSet
-35 1668 m 1
 -94 1699 -158 1752 -158 1836 c 0
 -158 1942 -64 2019 26 2019 c 0
 140 2019 187 1913 187 1845 c 0
 187 1765 154 1694 106 1638 c 0
 26 1544 -90 1485 -208 1465 c 1
 -230 1583 l 1
 -161 1595 -92 1623 -35 1668 c 1
46 1762 m 1
 60 1789 67 1817 67 1845 c 0
 67 1874 46 1899 26 1899 c 0
 1 1899 -38 1865 -38 1836 c 0
 -38 1817 -16 1787 46 1762 c 1
EndSplineSet
Colour: ff00
EndChar

StartChar: uni064C
Encoding: 1612 1612 34
Width: 0
VWidth: 1854
Flags: HMW
AnchorPoint: "Anchor-1" 0 1598 basemark 0
AnchorPoint: "Anchor-1" 1 1209 mark 0
AnchorPoint: "Anchor-4" 1 1209 mark 0
AnchorPoint: "Anchor-5" 1 1209 mark 0
LayerCount: 2
Fore
SplineSet
-204 1852 m 0
 -204 1796 -185 1748 -157 1707 c 1
 -256 1640 l 1
 -296 1700 -324 1772 -324 1852 c 0
 -324 2055 -161 2218 42 2218 c 1
 42 2098 l 1
 -94 2098 -204 1988 -204 1852 c 0
EndSplineSet
Refer: 31 1615 N 1 0 0 1 0 0 2
Colour: ff00
EndChar

StartChar: GAFbar
Encoding: 1114120 -1 44
Width: 999
VWidth: 1804
Flags: HMW
LayerCount: 2
Fore
SplineSet
814 1921 m 1
 844 1775 l 1
 591 1723 332 1620 116 1482 c 1
 35 1608 l 1
 269 1758 543 1865 814 1921 c 1
EndSplineSet
Colour: ff00ff
EndChar

StartChar: dotlessfinalBEH
Encoding: 1114121 -1 45
Width: 1973
VWidth: 1854
Flags: HMW
AnchorPoint: "Anchor-5" 944 823 basechar 0
AnchorPoint: "Anchor-3" 767 -4 basechar 0
LayerCount: 2
Fore
SplineSet
1860 606 m 1
 1819 480 1800 396 1800 339 c 0
 1800 240 1859 225 1973 225 c 1
 1973 -75 l 1
 1791 -75 1641 -26 1560 96 c 1
 1351 -39 1069 -73 767 -73 c 0
 413 -73 27 22 27 413 c 0
 27 531 72 671 115 782 c 1
 394 668 l 1
 366 600 327 471 327 413 c 0
 327 307 404 227 767 227 c 0
 1366 227 1485 350 1570 680 c 1
 1860 606 l 1
EndSplineSet
Colour: ffff
EndChar

StartChar: dotlessinitialFEH
Encoding: 1114122 -1 46
Width: 921
VWidth: 1854
Flags: HMW
AnchorPoint: "Anchor-5" 463 1073 basechar 0
AnchorPoint: "Anchor-3" 422 -4 basechar 0
LayerCount: 2
Fore
SplineSet
0 227 m 0
 184 227 470 239 581 290 c 1
 550 287 522 286 494 286 c 0
 222 286 55 402 55 651 c 0
 55 869 198 1148 463 1148 c 0
 875 1148 893 598 893 446 c 0
 893 -25 459 -75 0 -75 c 0
 -83 -75 -150 -8 -150 75 c 0
 -150 157 -84 227 0 227 c 0
585 582 m 1
 560 771 513 848 463 848 c 0
 409 848 355 777 355 651 c 0
 355 596 370 572 481 572 c 0
 520 572 553 575 585 582 c 1
EndSplineSet
Colour: ffff
EndChar

StartChar: dotlessfinalFEH
Encoding: 1114123 -1 47
Width: 1876
VWidth: 2374
Flags: HMW
AnchorPoint: "Anchor-5" 1406 887 basechar 0
AnchorPoint: "Anchor-3" 891 0 basechar 0
LayerCount: 2
Fore
SplineSet
1420 312 m 1
 1497 353 1532 399 1532 489 c 0
 1532 556 1498 615 1422 615 c 0
 1344 615 1312 558 1312 489 c 0
 1312 402 1349 353 1420 312 c 1
1416 -13 m 1
 1261 -60 1084 -75 891 -75 c 0
 522 -75 29 -45 29 400 c 0
 29 554 70 668 110 773 c 1
 395 680 l 1
 362 594 329 480 329 400 c 0
 329 292 444 225 891 225 c 0
 958 225 1023 228 1081 232 c 1
 1036 307 1012 394 1012 489 c 0
 1012 744 1190 915 1422 915 c 0
 1650 915 1832 745 1832 489 c 0
 1832 393 1807 304 1761 229 c 1
 1800 226 1836 225 1876 225 c 1
 1876 -75 l 1
 1715 -75 1551 -57 1416 -13 c 1
EndSplineSet
Colour: ffff
EndChar

StartChar: dotlessmedialFEH
Encoding: 1114124 -1 48
Width: 908
VWidth: 1870
Flags: HMW
LayerCount: 2
Fore
SplineSet
454 310 m 1
 528 352 564 401 564 489 c 0
 564 556 530 615 454 615 c 0
 376 615 344 558 344 489 c 0
 344 401 381 351 454 310 c 1
0 225 m 0
 39 225 79 227 115 229 c 1
 68 305 44 392 44 489 c 0
 44 744 222 915 454 915 c 0
 682 915 864 745 864 489 c 0
 864 392 839 303 793 229 c 1
 830 226 868 225 908 225 c 1
 908 -75 l 1
 749 -75 588 -57 454 -14 c 1
 318 -58 160 -75 0 -75 c 0
 -83 -75 -150 -8 -150 75 c 0
 -150 158 -83 225 0 225 c 0
EndSplineSet
Colour: ffff
EndChar

StartChar: dotlessfinalQAF
Encoding: 1114125 -1 49
Width: 1505
VWidth: 1854
Flags: HMW
AnchorPoint: "Anchor-3" 728 -504 basechar 0
AnchorPoint: "Anchor-5" 1047 726 basechar 0
LayerCount: 2
Fore
SplineSet
328 -3 m 0
 328 -160 477 -279 728 -279 c 0
 925 -279 1073 -202 1138 -75 c 1
 1065 -75 l 2
 867 -75 639 29 639 304 c 0
 639 522 782 801 1047 801 c 0
 1389 801 1454 411 1471 225 c 1
 1505 225 l 1
 1505 -75 l 1
 1456 -75 l 1
 1371 -423 1041 -579 728 -579 c 0
 405 -579 28 -400 28 -3 c 0
 28 211 132 433 251 635 c 1
 504 478 l 1
 404 313 328 121 328 -3 c 0
1169 226 m 1
 1144 423 1097 501 1047 501 c 0
 993 501 939 430 939 304 c 0
 939 249 954 225 1065 225 c 2
 1169 226 l 1
EndSplineSet
Colour: ffff
EndChar

StartChar: uniFEFB
Encoding: 65275 65275 51
Width: 1101
VWidth: 1854
Flags: HMW
AnchorPoint: "Anchor-4" 197 1146 baselig 1
AnchorPoint: "Anchor-4" 901 1211 baselig 0
AnchorPoint: "Anchor-2" 275 0 baselig 1
AnchorPoint: "Anchor-2" 864 0 baselig 0
LayerCount: 2
Fore
SplineSet
545 216 m 0
 691 216 760 251 760 260 c 0
 760 281 743 356 707 442 c 1
 632 360 558 287 484 221 c 1
 508 218 525 216 545 216 c 0
131 296 m 1
 268 394 396 493 519 649 c 1
 381 842 213 958 50 1065 c 1
 221 1312 l 1
 394 1195 546 1053 685 877 c 1
 737 1005 751 1123 751 1286 c 1
 1051 1286 l 1
 1051 1002 994 844 878 645 c 1
 955 512 1014 381 1014 253 c 0
 1014 -41 702 -75 571 -75 c 0
 400 -75 249 -17 131 60 c 1
 131 296 l 1
EndSplineSet
PairPos2: "'kern' Horizontal Kerning in Arabic lookup 2 per glyph data 0" uni062C dx=-150 dy=0 dh=-150 dv=0 dx=0 dy=0 dh=0 dv=0
PairPos2: "'kern' Horizontal Kerning in Arabic lookup 2 per glyph data 0" uni062D dx=-150 dy=0 dh=-150 dv=0 dx=0 dy=0 dh=0 dv=0
PairPos2: "'kern' Horizontal Kerning in Arabic lookup 2 per glyph data 0" uni062E dx=-150 dy=0 dh=-150 dv=0 dx=0 dy=0 dh=0 dv=0
PairPos2: "'kern' Horizontal Kerning in Arabic lookup 2 per glyph data 0" uni0639 dx=-150 dy=0 dh=-150 dv=0 dx=0 dy=0 dh=0 dv=0
PairPos2: "'kern' Horizontal Kerning in Arabic lookup 2 per glyph data 0" uni063A dx=-150 dy=0 dh=-150 dv=0 dx=0 dy=0 dh=0 dv=0
PairPos2: "'kern' Horizontal Kerning in Arabic lookup 2 per glyph data 0" uni0686 dx=-150 dy=0 dh=-150 dv=0 dx=0 dy=0 dh=0 dv=0
LCarets2: 1 0
Ligature2: "'rlig' Required Ligatures in Arabic lookup 5 subtable" uniFEDF uniFE8E
Colour: ffff
EndChar

StartChar: uniFEFC
Encoding: 65276 65276 52
Width: 1372
VWidth: 1854
Flags: HMW
AnchorPoint: "Anchor-2" 976 0 baselig 0
AnchorPoint: "Anchor-2" 266 0 baselig 1
AnchorPoint: "Anchor-4" 988 1211 baselig 0
AnchorPoint: "Anchor-4" 151 1211 baselig 1
LayerCount: 2
Back
SplineSet
399 365 m 1
 399 688 342 994 216 1286 c 1025
EndSplineSet
Fore
SplineSet
549 365 m 1
 249 365 l 1
 249 670 195 905 78 1177 c 1
 354 1295 l 1
 489 983 549 706 549 365 c 1
1372 -75 m 1
 1200 -75 1045 -26 949 95 c 1
 759 -47 495 -75 100 -75 c 1
 100 225 l 1
 759 225 838 295 838 516 c 2
 838 1284 l 1
 1138 1284 l 1
 1138 517 l 2
 1138 382 1163 307 1186 278 c 0
 1206 253 1246 225 1372 225 c 1
 1372 -75 l 1
EndSplineSet
PairPos2: "'kern' Horizontal Kerning in Arabic lookup 2 per glyph data 0" uni062C dx=-150 dy=0 dh=-150 dv=0 dx=0 dy=0 dh=0 dv=0
PairPos2: "'kern' Horizontal Kerning in Arabic lookup 2 per glyph data 0" uni062D dx=-150 dy=0 dh=-150 dv=0 dx=0 dy=0 dh=0 dv=0
PairPos2: "'kern' Horizontal Kerning in Arabic lookup 2 per glyph data 0" uni062E dx=-150 dy=0 dh=-150 dv=0 dx=0 dy=0 dh=0 dv=0
PairPos2: "'kern' Horizontal Kerning in Arabic lookup 2 per glyph data 0" uni0639 dx=-180 dy=0 dh=-180 dv=0 dx=0 dy=0 dh=0 dv=0
PairPos2: "'kern' Horizontal Kerning in Arabic lookup 2 per glyph data 0" uni063A dx=-180 dy=0 dh=-180 dv=0 dx=0 dy=0 dh=0 dv=0
PairPos2: "'kern' Horizontal Kerning in Arabic lookup 2 per glyph data 0" uni0686 dx=-150 dy=0 dh=-150 dv=0 dx=0 dy=0 dh=0 dv=0
LCarets2: 1 0
Ligature2: "'rlig' Required Ligatures in Arabic lookup 5 subtable" uniFEE0 uniFE8E
Colour: ffff
EndChar

StartChar: uni060C
Encoding: 1548 1548 59
Width: 558
VWidth: 1854
Flags: HMW
LayerCount: 2
Fore
SplineSet
276 635 m 1
 353 581 l 1
 300 520 235 390 235 295 c 1
 338 295 438 253 438 151 c 0
 438 81 399 0 286 0 c 0
 177 0 120 77 120 190 c 0
 120 392 196 537 276 635 c 1
EndSplineSet
EndChar

StartChar: uni0615
Encoding: 1557 1557 61
Width: 0
VWidth: 1854
Flags: HMW
AnchorPoint: "Anchor-5" 1 1209 mark 0
AnchorPoint: "Anchor-4" 1 1209 mark 0
AnchorPoint: "Anchor-1" 1 1209 mark 0
AnchorPoint: "Anchor-1" 0 1598 basemark 0
LayerCount: 2
Fore
SplineSet
562 1516 m 0
 562 1320 325 1316 119 1314 c 0
 76 1314 33 1314 -10 1314 c 1
 -10 1434 l 1
 90 1434 l 1
 90 1847 l 1
 210 1847 l 1
 210 1597 l 1
 268 1651 330 1680 394 1680 c 0
 484 1680 562 1616 562 1516 c 0
233 1437 m 1
 409 1446 442 1476 442 1516 c 0
 442 1547 429 1560 394 1560 c 0
 357 1560 292 1529 233 1437 c 1
EndSplineSet
Colour: ff00
EndChar

StartChar: less
Encoding: 60 60 63
Width: 775
VWidth: 1819
Flags: HMW
LayerCount: 2
Fore
SplineSet
546 1221 m 1
 692 1070 l 1
 331 728 l 1
 692 385 l 1
 546 234 l 1
 25 728 l 1
 546 1221 l 1
EndSplineSet
Colour: ff00ff
EndChar

StartChar: greater
Encoding: 62 62 65
Width: 775
VWidth: 1819
Flags: HMW
LayerCount: 2
Fore
SplineSet
171 234 m 1
 25 385 l 1
 386 727 l 1
 25 1070 l 1
 171 1221 l 1
 692 727 l 1
 171 234 l 1
EndSplineSet
Colour: ff00
EndChar

StartChar: braceleft
Encoding: 123 123 66
Width: 856
VWidth: 1647
Flags: HMW
LayerCount: 2
Fore
SplineSet
756 182 m 1
 756 -72 l 1
 572 -72 l 2
 416 -72 285 37 285 189 c 2
 285 465 l 2
 285 523 252 556 205 569 c 0
 170 579 135 589 100 599 c 1
 100 811 l 1
 135 821 170 831 205 841 c 0
 252 854 285 887 285 945 c 2
 285 1221 l 2
 285 1371 414 1484 572 1484 c 2
 756 1484 l 1
 756 1228 l 1
 699 1228 642 1228 585 1228 c 1
 585 945 l 2
 585 853 552 770 496 705 c 1
 552 640 585 557 585 465 c 2
 585 182 l 1
 642 182 699 182 756 182 c 1
EndSplineSet
Colour: ffff00
EndChar

StartChar: braceright
Encoding: 125 125 67
Width: 856
VWidth: 1647
Flags: HMW
LayerCount: 2
Fore
SplineSet
100 1228 m 1
 100 1484 l 1
 284 1484 l 2
 440 1484 571 1374 571 1222 c 2
 571 946 l 2
 571 888 604 855 651 842 c 0
 686 832 721 822 756 812 c 1
 756 600 l 1
 721 590 686 580 651 570 c 0
 604 557 571 524 571 466 c 2
 571 190 l 2
 571 39 442 -72 284 -72 c 2
 100 -72 l 1
 100 182 l 1
 157 182 214 182 271 182 c 1
 271 466 l 2
 271 558 304 641 360 706 c 1
 304 771 271 854 271 946 c 2
 271 1228 l 1
 214 1228 157 1228 100 1228 c 1
EndSplineSet
Colour: ffff00
EndChar

StartChar: uni061F
Encoding: 1567 1567 70
Width: 1067
VWidth: 1854
Flags: HMW
LayerCount: 2
Fore
SplineSet
706 917 m 1
 1003 881 l 1
 1009 923 1017 982 1017 1024 c 0
 1017 1260 853 1484 539 1484 c 0
 225 1484 50 1237 50 983 c 0
 50 800 140 730 229 662 c 0
 317.370117188 594.481445312 404 528 404 355 c 1
 704 355 l 1
 704 587 597 685 501 772 c 0
 422 843 351 909 351 1035 c 0
 351 1133 413 1228 539 1228 c 0
 667 1228 717 1152 717 1024 c 0
 717 982 713 952 706 917 c 1
EndSplineSet
Refer: 0 46 N -1 0 0 1 778 0 2
Colour: ffff00
EndChar

StartChar: uni0621
Encoding: 1569 1569 71
Width: 878
VWidth: 1854
Flags: HMW
AnchorPoint: "Anchor-5" 431 831 basechar 0
AnchorPoint: "Anchor-3" 431 65 basechar 0
LayerCount: 2
Fore
SplineSet
560 516 m 1
 532 549 494 576 431 576 c 0
 365 576 289 523 289 410 c 0
 289 365 327 327 499 325 c 1
 734 422 l 1
 815 229 l 1
 145 -48 l 1
 64 145 l 1
 184 195 l 1
 122 241 79 311 79 410 c 0
 79 633 247 786 431 786 c 0
 567 786 664 717 720 650 c 1
 560 516 l 1
EndSplineSet
Colour: ff00ff
EndChar

StartChar: uni0627
Encoding: 1575 1575 72
Width: 500
VWidth: 1854
Flags: HMW
AnchorPoint: "Anchor-5" 251 1211 basechar 0
AnchorPoint: "Anchor-3" 251 0 basechar 0
LayerCount: 2
Fore
SplineSet
400 -72 m 1
 100 -72 l 1
 100 1284 l 1
 400 1284 l 1
 400 -72 l 1
EndSplineSet
PairPos2: "'kern' Horizontal Kerning in Arabic lookup 2 per glyph data 1" uni0639 dx=-225 dy=0 dh=-225 dv=0 dx=0 dy=0 dh=0 dv=0
PairPos2: "'kern' Horizontal Kerning in Arabic lookup 2 per glyph data 1" uni063A dx=-225 dy=0 dh=-225 dv=0 dx=0 dy=0 dh=0 dv=0
PairPos2: "'kern' Horizontal Kerning in Arabic lookup 2 per glyph data 0" uni0622 dx=200 dy=0 dh=200 dv=0 dx=0 dy=0 dh=0 dv=0
PairPos2: "'kern' Horizontal Kerning in Arabic lookup 2 per glyph data 0" uni063A dx=-200 dy=0 dh=-200 dv=0 dx=0 dy=0 dh=0 dv=0
PairPos2: "'kern' Horizontal Kerning in Arabic lookup 2 per glyph data 0" uni0639 dx=-200 dy=0 dh=-200 dv=0 dx=0 dy=0 dh=0 dv=0
Substitution2: "'medi' Medial Forms in Arabic lookup 3 subtable" uniFE8E
Substitution2: "'fina' Terminal Forms in Arabic lookup 2 subtable" uniFE8E
Colour: ffff
EndChar

StartChar: uni062D
Encoding: 1581 1581 73
Width: 1464
VWidth: 1854
Flags: HMW
AnchorPoint: "Anchor-5" 507 853 basechar 0
AnchorPoint: "Anchor-3" 805 -736 basechar 0
LayerCount: 2
Fore
SplineSet
1408.39519502 -686.123740035 m 1
 1228.94591345 -752.977393955 1042.31948837 -811 805 -811 c 0
 405.077643257 -811 26 -633.789863429 26 -226 c 0
 26 201.861006977 476.466796875 403.315429688 864.24609375 532.859375 c 1
 581.282117576 614.838066882 l 18
 548.60056937 624.971874917 524.906520523 628 507 628 c 0
 417.716682096 628 390 556 369.24609375 377.455078125 c 1
 71.1455078125 409.465820312 l 1
 99 681 195.948146961 928 507 928 c 0
 560.337999999 928 617.877183799 920.683012856 678.573821622 898.50539519 c 10
 1314.40788896 669.565141385 l 1
 1307.19017188 366.239312489 l 1
 729.671367182 221.859611315 326 40.8408647519 326 -226 c 0
 326 -413.37373563 553.978583463 -511 805 -511 c 0
 1003.83672785 -511 1150.40350414 -463.072440688 1304.090553 -405.303549981 c 1
 1408.39519502 -686.123740035 l 1
EndSplineSet
Substitution2: "'init' Initial Forms in Arabic lookup 4 subtable" uniFEA3
Substitution2: "'medi' Medial Forms in Arabic lookup 3 subtable" uniFEA4
Substitution2: "'fina' Terminal Forms in Arabic lookup 2 subtable" uniFEA2
Colour: ffff
EndChar

StartChar: uni062F
Encoding: 1583 1583 74
Width: 936
VWidth: 1854
Flags: HMW
AnchorPoint: "Anchor-5" 485 904 basechar 0
AnchorPoint: "Anchor-3" 469 0 basechar 0
LayerCount: 2
Fore
SplineSet
908 327 m 0
 908 3 573 -75 352 -75 c 0
 246 -75 131 -53 33 -26 c 1
 107 261 l 1
 182 244 270 225 352 225 c 0
 565 225 608 291 608 327 c 0
 608 446 500 600 298 770 c 1
 490 998 l 1
 726 799 908 586 908 327 c 0
EndSplineSet
PairPos2: "'kern' Horizontal Kerning in Arabic lookup 2 per glyph data 3" uni06A9 dx=-300 dy=0 dh=-300 dv=0 dx=0 dy=0 dh=0 dv=0
PairPos2: "'kern' Horizontal Kerning in Arabic lookup 2 per glyph data 3" uni06AF dx=-300 dy=0 dh=-300 dv=0 dx=0 dy=0 dh=0 dv=0
PairPos2: "'kern' Horizontal Kerning in Arabic lookup 2 per glyph data 3" uniFB90 dx=-300 dy=0 dh=-300 dv=0 dx=0 dy=0 dh=0 dv=0
PairPos2: "'kern' Horizontal Kerning in Arabic lookup 2 per glyph data 3" uniFB94 dx=-300 dy=0 dh=-300 dv=0 dx=0 dy=0 dh=0 dv=0
PairPos2: "'kern' Horizontal Kerning in Arabic lookup 2 per glyph data 3" uniFEDB dx=-300 dy=0 dh=-300 dv=0 dx=0 dy=0 dh=0 dv=0
PairPos2: "'kern' Horizontal Kerning in Arabic lookup 2 per glyph data 1" uni0639 dx=-250 dy=0 dh=-250 dv=0 dx=0 dy=0 dh=0 dv=0
PairPos2: "'kern' Horizontal Kerning in Arabic lookup 2 per glyph data 1" uni063A dx=-250 dy=0 dh=-250 dv=0 dx=0 dy=0 dh=0 dv=0
Substitution2: "'fina' Terminal Forms in Arabic lookup 2 subtable" uniFEAA
Colour: ffff
EndChar

StartChar: uni0631
Encoding: 1585 1585 75
Width: 834
VWidth: 1854
Flags: HMW
AnchorPoint: "Anchor-3" 488 -402 basechar 0
AnchorPoint: "Anchor-5" 556 571 basechar 0
LayerCount: 2
Fore
SplineSet
398 562 m 1
 677 673 l 1
 746 497 806 304 806 131 c 0
 806 -226 533 -467 154 -604 c 1
 52 -322 l 1
 338 -218 506 -91 506 131 c 0
 506 246 457 417 398 562 c 1
EndSplineSet
PairPos2: "'kern' Horizontal Kerning in Arabic lookup 2 per glyph data 7" uniE012 dx=-150 dy=0 dh=-150 dv=0 dx=0 dy=0 dh=0 dv=0
PairPos2: "'kern' Horizontal Kerning in Arabic lookup 2 per glyph data 7" uni06D5 dx=-250 dy=0 dh=-250 dv=0 dx=0 dy=0 dh=0 dv=0
PairPos2: "'kern' Horizontal Kerning in Arabic lookup 2 per glyph data 7" uni0695 dx=-150 dy=0 dh=-150 dv=0 dx=0 dy=0 dh=0 dv=0
PairPos2: "'kern' Horizontal Kerning in Arabic lookup 2 per glyph data 7" uni06A4 dx=-250 dy=0 dh=-250 dv=0 dx=0 dy=0 dh=0 dv=0
PairPos2: "'kern' Horizontal Kerning in Arabic lookup 2 per glyph data 7" uniFB6C dx=-250 dy=0 dh=-250 dv=0 dx=0 dy=0 dh=0 dv=0
PairPos2: "'kern' Horizontal Kerning in Arabic lookup 2 per glyph data 7" uni06B5 dx=-112 dy=0 dh=-112 dv=0 dx=0 dy=0 dh=0 dv=0
PairPos2: "'kern' Horizontal Kerning in Arabic lookup 2 per glyph data 7" uniE015 dx=-250 dy=0 dh=-250 dv=0 dx=0 dy=0 dh=0 dv=0
PairPos2: "'kern' Horizontal Kerning in Arabic lookup 2 per glyph data 7" uniE017 dx=-325 dy=0 dh=-325 dv=0 dx=0 dy=0 dh=0 dv=0
PairPos2: "'kern' Horizontal Kerning in Arabic lookup 2 per glyph data 7" uni06BA dx=-150 dy=0 dh=-150 dv=0 dx=0 dy=0 dh=0 dv=0
PairPos2: "'kern' Horizontal Kerning in Arabic lookup 2 per glyph data 7" uniFBE8 dx=-225 dy=0 dh=-225 dv=0 dx=0 dy=0 dh=0 dv=0
PairPos2: "'kern' Horizontal Kerning in Arabic lookup 2 per glyph data 7" uni06BE dx=-250 dy=0 dh=-250 dv=0 dx=0 dy=0 dh=0 dv=0
PairPos2: "'kern' Horizontal Kerning in Arabic lookup 2 per glyph data 7" uni06C6 dx=-150 dy=0 dh=-150 dv=0 dx=0 dy=0 dh=0 dv=0
PairPos2: "'kern' Horizontal Kerning in Arabic lookup 2 per glyph data 7" uni06CE dx=-100 dy=0 dh=-100 dv=0 dx=0 dy=0 dh=0 dv=0
PairPos2: "'kern' Horizontal Kerning in Arabic lookup 2 per glyph data 4" bracketleft dx=-300 dy=0 dh=-300 dv=0 dx=0 dy=0 dh=0 dv=0
PairPos2: "'kern' Horizontal Kerning in Arabic lookup 2 per glyph data 4" guillemotleft dx=-420 dy=0 dh=-420 dv=0 dx=0 dy=0 dh=0 dv=0
PairPos2: "'kern' Horizontal Kerning in Arabic lookup 2 per glyph data 4" less dx=-420 dy=0 dh=-420 dv=0 dx=0 dy=0 dh=0 dv=0
PairPos2: "'kern' Horizontal Kerning in Arabic lookup 2 per glyph data 4" parenleft dx=-300 dy=0 dh=-300 dv=0 dx=0 dy=0 dh=0 dv=0
PairPos2: "'kern' Horizontal Kerning in Arabic lookup 2 per glyph data 3" uni06A9 dx=-300 dy=0 dh=-300 dv=0 dx=0 dy=0 dh=0 dv=0
PairPos2: "'kern' Horizontal Kerning in Arabic lookup 2 per glyph data 3" uni06AF dx=-300 dy=0 dh=-300 dv=0 dx=0 dy=0 dh=0 dv=0
PairPos2: "'kern' Horizontal Kerning in Arabic lookup 2 per glyph data 3" uniFB90 dx=-300 dy=0 dh=-300 dv=0 dx=0 dy=0 dh=0 dv=0
PairPos2: "'kern' Horizontal Kerning in Arabic lookup 2 per glyph data 3" uniFB94 dx=-300 dy=0 dh=-300 dv=0 dx=0 dy=0 dh=0 dv=0
PairPos2: "'kern' Horizontal Kerning in Arabic lookup 2 per glyph data 3" uniFEDB dx=-300 dy=0 dh=-300 dv=0 dx=0 dy=0 dh=0 dv=0
PairPos2: "'kern' Horizontal Kerning in Arabic lookup 2 per glyph data 2" uniFBFE dx=-100 dy=0 dh=-100 dv=0 dx=0 dy=0 dh=0 dv=0
PairPos2: "'kern' Horizontal Kerning in Arabic lookup 2 per glyph data 2" uniFEF3 dx=-100 dy=0 dh=-100 dv=0 dx=0 dy=0 dh=0 dv=0
PairPos2: "'kern' Horizontal Kerning in Arabic lookup 2 per glyph data 2" uniFB58 dx=-100 dy=0 dh=-100 dv=0 dx=0 dy=0 dh=0 dv=0
PairPos2: "'kern' Horizontal Kerning in Arabic lookup 2 per glyph data 2" uni0622 dx=-250 dy=0 dh=-250 dv=0 dx=0 dy=0 dh=0 dv=0
PairPos2: "'kern' Horizontal Kerning in Arabic lookup 2 per glyph data 2" uni0623 dx=-250 dy=0 dh=-250 dv=0 dx=0 dy=0 dh=0 dv=0
PairPos2: "'kern' Horizontal Kerning in Arabic lookup 2 per glyph data 2" uni0624 dx=-150 dy=0 dh=-150 dv=0 dx=0 dy=0 dh=0 dv=0
PairPos2: "'kern' Horizontal Kerning in Arabic lookup 2 per glyph data 2" uni0627 dx=-250 dy=0 dh=-250 dv=0 dx=0 dy=0 dh=0 dv=0
PairPos2: "'kern' Horizontal Kerning in Arabic lookup 2 per glyph data 2" uni0628 dx=-250 dy=0 dh=-250 dv=0 dx=0 dy=0 dh=0 dv=0
PairPos2: "'kern' Horizontal Kerning in Arabic lookup 2 per glyph data 2" uni0629 dx=-250 dy=0 dh=-250 dv=0 dx=0 dy=0 dh=0 dv=0
PairPos2: "'kern' Horizontal Kerning in Arabic lookup 2 per glyph data 2" uni062A dx=-250 dy=0 dh=-250 dv=0 dx=0 dy=0 dh=0 dv=0
PairPos2: "'kern' Horizontal Kerning in Arabic lookup 2 per glyph data 2" uni062B dx=-250 dy=0 dh=-250 dv=0 dx=0 dy=0 dh=0 dv=0
PairPos2: "'kern' Horizontal Kerning in Arabic lookup 2 per glyph data 2" uni062C dx=-125 dy=0 dh=-125 dv=0 dx=0 dy=0 dh=0 dv=0
PairPos2: "'kern' Horizontal Kerning in Arabic lookup 2 per glyph data 2" uni062D dx=-125 dy=0 dh=-125 dv=0 dx=0 dy=0 dh=0 dv=0
PairPos2: "'kern' Horizontal Kerning in Arabic lookup 2 per glyph data 2" uni062E dx=-125 dy=0 dh=-125 dv=0 dx=0 dy=0 dh=0 dv=0
PairPos2: "'kern' Horizontal Kerning in Arabic lookup 2 per glyph data 2" uni062F dx=-250 dy=0 dh=-250 dv=0 dx=0 dy=0 dh=0 dv=0
PairPos2: "'kern' Horizontal Kerning in Arabic lookup 2 per glyph data 2" uni0630 dx=-250 dy=0 dh=-250 dv=0 dx=0 dy=0 dh=0 dv=0
PairPos2: "'kern' Horizontal Kerning in Arabic lookup 2 per glyph data 2" uni0631 dx=-150 dy=0 dh=-150 dv=0 dx=0 dy=0 dh=0 dv=0
PairPos2: "'kern' Horizontal Kerning in Arabic lookup 2 per glyph data 2" uni0632 dx=-150 dy=0 dh=-150 dv=0 dx=0 dy=0 dh=0 dv=0
PairPos2: "'kern' Horizontal Kerning in Arabic lookup 2 per glyph data 2" uni0633 dx=-200 dy=0 dh=-200 dv=0 dx=0 dy=0 dh=0 dv=0
PairPos2: "'kern' Horizontal Kerning in Arabic lookup 2 per glyph data 2" uni0634 dx=-200 dy=0 dh=-200 dv=0 dx=0 dy=0 dh=0 dv=0
PairPos2: "'kern' Horizontal Kerning in Arabic lookup 2 per glyph data 2" uni0635 dx=-300 dy=0 dh=-300 dv=0 dx=0 dy=0 dh=0 dv=0
PairPos2: "'kern' Horizontal Kerning in Arabic lookup 2 per glyph data 2" uni0636 dx=-300 dy=0 dh=-300 dv=0 dx=0 dy=0 dh=0 dv=0
PairPos2: "'kern' Horizontal Kerning in Arabic lookup 2 per glyph data 2" uni0637 dx=-300 dy=0 dh=-300 dv=0 dx=0 dy=0 dh=0 dv=0
PairPos2: "'kern' Horizontal Kerning in Arabic lookup 2 per glyph data 2" uni0638 dx=-300 dy=0 dh=-300 dv=0 dx=0 dy=0 dh=0 dv=0
PairPos2: "'kern' Horizontal Kerning in Arabic lookup 2 per glyph data 2" uni0641 dx=-250 dy=0 dh=-250 dv=0 dx=0 dy=0 dh=0 dv=0
PairPos2: "'kern' Horizontal Kerning in Arabic lookup 2 per glyph data 2" uni0642 dx=-150 dy=0 dh=-150 dv=0 dx=0 dy=0 dh=0 dv=0
PairPos2: "'kern' Horizontal Kerning in Arabic lookup 2 per glyph data 2" uni0643 dx=-300 dy=0 dh=-300 dv=0 dx=0 dy=0 dh=0 dv=0
PairPos2: "'kern' Horizontal Kerning in Arabic lookup 2 per glyph data 2" uni0644 dx=-112 dy=0 dh=-112 dv=0 dx=0 dy=0 dh=0 dv=0
PairPos2: "'kern' Horizontal Kerning in Arabic lookup 2 per glyph data 2" uni0645 dx=-250 dy=0 dh=-250 dv=0 dx=0 dy=0 dh=0 dv=0
PairPos2: "'kern' Horizontal Kerning in Arabic lookup 2 per glyph data 2" uni0646 dx=-150 dy=0 dh=-150 dv=0 dx=0 dy=0 dh=0 dv=0
PairPos2: "'kern' Horizontal Kerning in Arabic lookup 2 per glyph data 2" uni0647 dx=-250 dy=0 dh=-250 dv=0 dx=0 dy=0 dh=0 dv=0
PairPos2: "'kern' Horizontal Kerning in Arabic lookup 2 per glyph data 2" uni0648 dx=-150 dy=0 dh=-150 dv=0 dx=0 dy=0 dh=0 dv=0
PairPos2: "'kern' Horizontal Kerning in Arabic lookup 2 per glyph data 2" uni067E dx=-250 dy=0 dh=-250 dv=0 dx=0 dy=0 dh=0 dv=0
PairPos2: "'kern' Horizontal Kerning in Arabic lookup 2 per glyph data 2" uni0686 dx=-125 dy=0 dh=-125 dv=0 dx=0 dy=0 dh=0 dv=0
PairPos2: "'kern' Horizontal Kerning in Arabic lookup 2 per glyph data 2" uni0698 dx=-150 dy=0 dh=-150 dv=0 dx=0 dy=0 dh=0 dv=0
PairPos2: "'kern' Horizontal Kerning in Arabic lookup 2 per glyph data 2" uni06A9 dx=-400 dy=0 dh=-400 dv=0 dx=0 dy=0 dh=0 dv=0
PairPos2: "'kern' Horizontal Kerning in Arabic lookup 2 per glyph data 2" uni06AF dx=-400 dy=0 dh=-400 dv=0 dx=0 dy=0 dh=0 dv=0
PairPos2: "'kern' Horizontal Kerning in Arabic lookup 2 per glyph data 2" uni06C0 dx=-250 dy=0 dh=-250 dv=0 dx=0 dy=0 dh=0 dv=0
PairPos2: "'kern' Horizontal Kerning in Arabic lookup 2 per glyph data 2" uni06CA dx=-150 dy=0 dh=-150 dv=0 dx=0 dy=0 dh=0 dv=0
PairPos2: "'kern' Horizontal Kerning in Arabic lookup 2 per glyph data 2" uniFB7C dx=-250 dy=0 dh=-250 dv=0 dx=0 dy=0 dh=0 dv=0
PairPos2: "'kern' Horizontal Kerning in Arabic lookup 2 per glyph data 2" uniFB90 dx=-400 dy=0 dh=-400 dv=0 dx=0 dy=0 dh=0 dv=0
PairPos2: "'kern' Horizontal Kerning in Arabic lookup 2 per glyph data 2" uniFB94 dx=-400 dy=0 dh=-400 dv=0 dx=0 dy=0 dh=0 dv=0
PairPos2: "'kern' Horizontal Kerning in Arabic lookup 2 per glyph data 2" uniFE8B dx=-225 dy=0 dh=-225 dv=0 dx=0 dy=0 dh=0 dv=0
PairPos2: "'kern' Horizontal Kerning in Arabic lookup 2 per glyph data 2" uniFE91 dx=-225 dy=0 dh=-225 dv=0 dx=0 dy=0 dh=0 dv=0
PairPos2: "'kern' Horizontal Kerning in Arabic lookup 2 per glyph data 2" uniFE97 dx=-225 dy=0 dh=-225 dv=0 dx=0 dy=0 dh=0 dv=0
PairPos2: "'kern' Horizontal Kerning in Arabic lookup 2 per glyph data 2" uniFE9B dx=-225 dy=0 dh=-225 dv=0 dx=0 dy=0 dh=0 dv=0
PairPos2: "'kern' Horizontal Kerning in Arabic lookup 2 per glyph data 2" uniFE9F dx=-250 dy=0 dh=-250 dv=0 dx=0 dy=0 dh=0 dv=0
PairPos2: "'kern' Horizontal Kerning in Arabic lookup 2 per glyph data 2" uniFEA3 dx=-250 dy=0 dh=-250 dv=0 dx=0 dy=0 dh=0 dv=0
PairPos2: "'kern' Horizontal Kerning in Arabic lookup 2 per glyph data 2" uniFEA7 dx=-250 dy=0 dh=-250 dv=0 dx=0 dy=0 dh=0 dv=0
PairPos2: "'kern' Horizontal Kerning in Arabic lookup 2 per glyph data 2" uniFEB3 dx=-200 dy=0 dh=-200 dv=0 dx=0 dy=0 dh=0 dv=0
PairPos2: "'kern' Horizontal Kerning in Arabic lookup 2 per glyph data 2" uniFEB7 dx=-200 dy=0 dh=-200 dv=0 dx=0 dy=0 dh=0 dv=0
PairPos2: "'kern' Horizontal Kerning in Arabic lookup 2 per glyph data 2" uniFEBB dx=-300 dy=0 dh=-300 dv=0 dx=0 dy=0 dh=0 dv=0
PairPos2: "'kern' Horizontal Kerning in Arabic lookup 2 per glyph data 2" uniFEBF dx=-300 dy=0 dh=-300 dv=0 dx=0 dy=0 dh=0 dv=0
PairPos2: "'kern' Horizontal Kerning in Arabic lookup 2 per glyph data 2" uniFEC3 dx=-300 dy=0 dh=-300 dv=0 dx=0 dy=0 dh=0 dv=0
PairPos2: "'kern' Horizontal Kerning in Arabic lookup 2 per glyph data 2" uniFEC7 dx=-300 dy=0 dh=-300 dv=0 dx=0 dy=0 dh=0 dv=0
PairPos2: "'kern' Horizontal Kerning in Arabic lookup 2 per glyph data 2" uniFECB dx=-300 dy=0 dh=-300 dv=0 dx=0 dy=0 dh=0 dv=0
PairPos2: "'kern' Horizontal Kerning in Arabic lookup 2 per glyph data 2" uniFECF dx=-300 dy=0 dh=-300 dv=0 dx=0 dy=0 dh=0 dv=0
PairPos2: "'kern' Horizontal Kerning in Arabic lookup 2 per glyph data 2" uniFED3 dx=-250 dy=0 dh=-250 dv=0 dx=0 dy=0 dh=0 dv=0
PairPos2: "'kern' Horizontal Kerning in Arabic lookup 2 per glyph data 2" uniFED7 dx=-250 dy=0 dh=-250 dv=0 dx=0 dy=0 dh=0 dv=0
PairPos2: "'kern' Horizontal Kerning in Arabic lookup 2 per glyph data 2" uniFEDB dx=-500 dy=0 dh=-500 dv=0 dx=0 dy=0 dh=0 dv=0
PairPos2: "'kern' Horizontal Kerning in Arabic lookup 2 per glyph data 2" uniFEDF dx=-250 dy=0 dh=-250 dv=0 dx=0 dy=0 dh=0 dv=0
PairPos2: "'kern' Horizontal Kerning in Arabic lookup 2 per glyph data 2" uniFEE3 dx=-250 dy=0 dh=-250 dv=0 dx=0 dy=0 dh=0 dv=0
PairPos2: "'kern' Horizontal Kerning in Arabic lookup 2 per glyph data 2" uniFEE7 dx=-225 dy=0 dh=-225 dv=0 dx=0 dy=0 dh=0 dv=0
PairPos2: "'kern' Horizontal Kerning in Arabic lookup 2 per glyph data 2" uniFEEB dx=-250 dy=0 dh=-250 dv=0 dx=0 dy=0 dh=0 dv=0
PairPos2: "'kern' Horizontal Kerning in Arabic lookup 2 per glyph data 2" uniFEF5 dx=-325 dy=0 dh=-325 dv=0 dx=0 dy=0 dh=0 dv=0
PairPos2: "'kern' Horizontal Kerning in Arabic lookup 2 per glyph data 2" uniFEF7 dx=-325 dy=0 dh=-325 dv=0 dx=0 dy=0 dh=0 dv=0
PairPos2: "'kern' Horizontal Kerning in Arabic lookup 2 per glyph data 2" uniFEF9 dx=-325 dy=0 dh=-325 dv=0 dx=0 dy=0 dh=0 dv=0
PairPos2: "'kern' Horizontal Kerning in Arabic lookup 2 per glyph data 2" uniFEFB dx=-325 dy=0 dh=-325 dv=0 dx=0 dy=0 dh=0 dv=0
PairPos2: "'kern' Horizontal Kerning in Arabic lookup 2 per glyph data 2" uni06CC dx=-100 dy=0 dh=-100 dv=0 dx=0 dy=0 dh=0 dv=0
PairPos2: "'kern' Horizontal Kerning in Arabic lookup 2 per glyph data 2" uni0649 dx=-100 dy=0 dh=-100 dv=0 dx=0 dy=0 dh=0 dv=0
PairPos2: "'kern' Horizontal Kerning in Arabic lookup 2 per glyph data 2" uni064A dx=-100 dy=0 dh=-100 dv=0 dx=0 dy=0 dh=0 dv=0
PairPos2: "'kern' Horizontal Kerning in Arabic lookup 2 per glyph data 2" uni0621 dx=-200 dy=0 dh=-200 dv=0 dx=0 dy=0 dh=0 dv=0
PairPos2: "'kern' Horizontal Kerning in Arabic lookup 2 per glyph data 1" uni0639 dx=-200 dy=0 dh=-200 dv=0 dx=0 dy=0 dh=0 dv=0
PairPos2: "'kern' Horizontal Kerning in Arabic lookup 2 per glyph data 1" uni063A dx=-200 dy=0 dh=-200 dv=0 dx=0 dy=0 dh=0 dv=0
Substitution2: "'fina' Terminal Forms in Arabic lookup 2 subtable" uniFEAE
Colour: ffff
EndChar

StartChar: uni0633
Encoding: 1587 1587 76
Width: 2448
VWidth: 1854
Flags: HMW
AnchorPoint: "Anchor-3" 721 -502 basechar 0
AnchorPoint: "Anchor-5" 1820 574 basechar 0
LayerCount: 2
Fore
SplineSet
1292 672 m 1
 1399 392 l 2
 1457 240 1514 225 1543 225 c 0
 1556 225 1614 237 1637 372 c 2
 1681 647 l 1
 1975 599 l 1
 1942 385 l 2
 1941 372 1940 358 1940 337 c 0
 1940 232 1977 225 2033 225 c 0
 2094 225 2120 238 2120 387 c 0
 2120 487 2086 613 2056 709 c 1
 2344 799 l 1
 2382 676 2420 531 2420 387 c 0
 2420 193 2332 -75 2033 -75 c 0
 1944 -75 1851 -44 1778 17 c 1
 1713 -41 1632 -75 1543 -75 c 0
 1510 -75 1478 -70 1449 -62 c 1
 1375 -420 1027 -576 719 -576 c 0
 388 -576 28 -392 28 11 c 0
 28 226 160 467 360 705 c 1
 589 513 l 1
 420 318 328 115 328 11 c 0
 328 -165 470 -276 719 -276 c 0
 980 -276 1163 -151 1163 74 c 0
 1163 131 1150 198 1117 284 c 2
 1010 564 l 1
 1292 672 l 1
EndSplineSet
Substitution2: "'init' Initial Forms in Arabic lookup 4 subtable" uniFEB3
Substitution2: "'medi' Medial Forms in Arabic lookup 3 subtable" uniFEB4
Substitution2: "'fina' Terminal Forms in Arabic lookup 2 subtable" uniFEB2
Colour: ffff
EndChar

StartChar: uni0635
Encoding: 1589 1589 77
Width: 2392
VWidth: 1854
Flags: HMW
AnchorPoint: "Anchor-5" 1933 695 basechar 0
AnchorPoint: "Anchor-3" 719 -502 basechar 0
LayerCount: 2
Fore
SplineSet
1600 237 m 1
 1647 229 1694 225 1741 225 c 0
 1979 225 2063 306 2063 367 c 0
 2063 424 2019 474 1934 474 c 0
 1844 474 1724 426 1600 237 c 1
1379 444 m 1
 1542 667 1743 774 1934 774 c 0
 2158 774 2363 619 2363 367 c 0
 2363 23 1992 -75 1741 -75 c 0
 1645 -75 1546 -61 1455 -36 c 1
 1393 -412 1035 -576 720 -576 c 0
 389 -576 29 -392 29 11 c 0
 29 225 161 467 361 705 c 1
 590 513 l 1
 421 318 329 116 329 11 c 0
 329 -165 472 -276 720 -276 c 0
 981 -276 1164 -150 1164 74 c 0
 1164 131 1151 200 1119 284 c 2
 1011 564 l 1
 1291 672 l 1
 1379 444 l 1
EndSplineSet
Substitution2: "'init' Initial Forms in Arabic lookup 4 subtable" uniFEBB
Substitution2: "'medi' Medial Forms in Arabic lookup 3 subtable" uniFEBC
Substitution2: "'fina' Terminal Forms in Arabic lookup 2 subtable" uniFEBA
Colour: ffff
EndChar

StartChar: uni0637
Encoding: 1591 1591 78
Width: 1515
VWidth: 1854
Flags: HMW
AnchorPoint: "Anchor-5" 1088 764 basechar 0
AnchorPoint: "Anchor-3" 768 0 basechar 0
LayerCount: 2
Back
SplineSet
328 225 m 1
 328 1461 l 1
 628 1461 l 1
 628 639 l 1
 771 759 928 815 1060 815 c 0
 1255 815 1465 682 1465 434 c 0
 1465 88 1169 -75 478 -75 c 2
 55 -75 l 1
 55 225 l 1
 328 225 l 1
674 229 m 1
 1151 253 1165 326 1165 401 c 0
 1165 459 1126 515 1040 515 c 0
 960 515 796 444 674 229 c 1
EndSplineSet
Fore
SplineSet
328 225 m 1
 328 1284 l 1
 628 1284 l 1
 628 579 l 1
 771 739 928 815 1060 815 c 0
 1255 815 1465 682 1465 434 c 0
 1465 88 1169 -75 478 -75 c 2
 55 -75 l 1
 55 225 l 1
 328 225 l 1
674 229 m 1
 1151 253 1165 326 1165 401 c 0
 1165 459 1126 515 1040 515 c 0
 960 515 796 444 674 229 c 1
EndSplineSet
Substitution2: "'init' Initial Forms in Arabic lookup 4 subtable" uniFEC3
Substitution2: "'medi' Medial Forms in Arabic lookup 3 subtable" uniFEC4
Substitution2: "'fina' Terminal Forms in Arabic lookup 2 subtable" uniFEC2
Colour: ffff
EndChar

StartChar: uni0639
Encoding: 1593 1593 79
Width: 1299
VWidth: 1906
Flags: HMW
AnchorPoint: "Anchor-3" 772 -734 basechar 0
AnchorPoint: "Anchor-5" 596 1079 basechar 0
LayerCount: 2
Fore
SplineSet
104 629 m 0
 104 926 325 1156 596 1156 c 0
 829.310152059 1156 949.70358138 1026.83460941 1051 909 c 1
 822 716 l 1
 775.685758282 781.629708743 720.616122283 856 596 856 c 0
 487 856 404 758 404 636 c 0
 404 536.786955516 568.117596089 512 696 512 c 0
 807.584231689 512 927.736020712 532.377918994 1032 552 c 1
 1093 248 l 1
 708.825290769 199.978161346 331 124.451449832 331 -217 c 0
 331 -400.703599183 535.102685014 -509 772 -509 c 0
 930.942713869 -509 1051.59006838 -463.723014739 1158 -419 c 1
 1278 -694 l 1
 1134.22530557 -756.51073671 968.240415545 -809 772 -809 c 0
 376.927066036 -809 31 -601.511957518 31 -217 c 0
 31 27 152 195 295 304 c 1
 191 367 104 476 104 629 c 0
EndSplineSet
Substitution2: "'init' Initial Forms in Arabic lookup 4 subtable" uniFECB
Substitution2: "'medi' Medial Forms in Arabic lookup 3 subtable" uniFECC
Substitution2: "'fina' Terminal Forms in Arabic lookup 2 subtable" uniFECA
Colour: ffff
EndChar

StartChar: uni0640
Encoding: 1600 1600 80
Width: 811
VWidth: 1854
Flags: HMW
AnchorPoint: "Anchor-5" 406 904 basechar 0
AnchorPoint: "Anchor-3" 406 0 basechar 0
LayerCount: 2
Fore
SplineSet
0 225 m 2
 811 225 l 1
 811 -75 l 1
 0 -75 l 2
 -83 -75 -150 -8 -150 75 c 0
 -150 158 -83 225 0 225 c 2
EndSplineSet
Colour: ffff
EndChar

StartChar: uni0644
Encoding: 1604 1604 81
Width: 1378
VWidth: 1854
Flags: HMW
AnchorPoint: "Anchor-5" 631 712 basechar 0
AnchorPoint: "Anchor-3" 663 -502 basechar 0
LayerCount: 2
Fore
SplineSet
1017 1284 m 1
 1317 1284 l 1
 1317 126 l 2
 1317 -344 986 -578 663 -578 c 0
 365 -578 28 -377 28 -5 c 0
 28 172 105 385 215 578 c 1
 476 431 l 1
 390 277 328 100 328 -5 c 0
 328 -161 473 -278 663 -278 c 0
 842 -278 1017 -179 1017 126 c 2
 1017 1284 l 1
EndSplineSet
Substitution2: "'init' Initial Forms in Arabic lookup 4 subtable" uniFEDF
Substitution2: "'medi' Medial Forms in Arabic lookup 3 subtable" uniFEE0
Substitution2: "'fina' Terminal Forms in Arabic lookup 2 subtable" uniFEDE
Colour: ffff
EndChar

StartChar: uni0645
Encoding: 1605 1605 82
Width: 1199
VWidth: 2374
Flags: HMW
AnchorPoint: "Anchor-5" 750 696 basechar 0
AnchorPoint: "Anchor-3" 668 -50 basechar 0
LayerCount: 2
Fore
SplineSet
307 298 m 1
 341 486 451 771 760 771 c 0
 1034 771 1169 516 1169 302 c 0
 1169 37 972 -74 793 -74 c 0
 678 -74 570 -43 486 -11 c 0
 439 7 429 10 401 10 c 0
 363 10 328 -5 328 -99 c 0
 328 -833 l 1
 28 -833 l 1
 28 -99 l 0
 28 81 129 251 307 298 c 1
606 267 m 1
 676 245 739 226 793 226 c 0
 855 226 869 240 869 290 c 0
 869 413 812 471 760 471 c 0
 695 471 635 403 606 267 c 1
EndSplineSet
Substitution2: "'init' Initial Forms in Arabic lookup 4 subtable" uniFEE3
Substitution2: "'medi' Medial Forms in Arabic lookup 3 subtable" uniFEE4
Substitution2: "'fina' Terminal Forms in Arabic lookup 2 subtable" uniFEE2
Colour: ffff
EndChar

StartChar: uni0647
Encoding: 1607 1607 83
Width: 869
VWidth: 1854
Flags: HMW
AnchorPoint: "Anchor-5" 435 872 basechar 0
AnchorPoint: "Anchor-3" 435 75 basechar 0
LayerCount: 2
Fore
SplineSet
435 225 m 0
 497 225 528 245 528 306 c 0
 528 363 496 443 435 522 c 1
 374 443 341 361 341 306 c 0
 341 246 372 225 435 225 c 0
435 -75 m 0
 209 -75 41 86 41 306 c 0
 41 529 186 721 336 852 c 0
 369 881 402 910 435 939 c 1
 468 910 501 881 534 852 c 0
 684 721 828 528 828 306 c 0
 828 87 662 -75 435 -75 c 0
EndSplineSet
Substitution2: "'init' Initial Forms in Arabic lookup 4 subtable" uniFEEB
Substitution2: "'medi' Medial Forms in Arabic lookup 3 subtable" uniFEEC
Substitution2: "'fina' Terminal Forms in Arabic lookup 2 subtable" uniFEEA
Colour: ffff
EndChar

StartChar: uni0648
Encoding: 1608 1608 84
Width: 888
VWidth: 1854
Flags: HMW
AnchorPoint: "Anchor-5" 440 725 basechar 0
AnchorPoint: "Anchor-3" 444 -502 basechar 0
LayerCount: 2
Fore
SplineSet
515 -74 m 1
 495 -76 478 -76 458 -76 c 0
 260 -76 32 28 32 303 c 0
 32 521 175 800 440 800 c 0
 852 800 870 250 870 98 c 0
 870 -302 545 -482 112 -599 c 1
 37 -308 l 1
 279 -249 449 -160 515 -74 c 1
562 234 m 1
 537 423 490 500 440 500 c 0
 386 500 332 429 332 303 c 0
 332 248 347 224 458 224 c 0
 497 224 530 227 562 234 c 1
EndSplineSet
PairPos2: "'kern' Horizontal Kerning in Arabic lookup 2 per glyph data 3" uni06A9 dx=-200 dy=0 dh=-200 dv=0 dx=0 dy=0 dh=0 dv=0
PairPos2: "'kern' Horizontal Kerning in Arabic lookup 2 per glyph data 3" uni06AF dx=-200 dy=0 dh=-200 dv=0 dx=0 dy=0 dh=0 dv=0
PairPos2: "'kern' Horizontal Kerning in Arabic lookup 2 per glyph data 3" uniFB90 dx=-200 dy=0 dh=-200 dv=0 dx=0 dy=0 dh=0 dv=0
PairPos2: "'kern' Horizontal Kerning in Arabic lookup 2 per glyph data 3" uniFB94 dx=-200 dy=0 dh=-200 dv=0 dx=0 dy=0 dh=0 dv=0
PairPos2: "'kern' Horizontal Kerning in Arabic lookup 2 per glyph data 3" uniFEDB dx=-200 dy=0 dh=-200 dv=0 dx=0 dy=0 dh=0 dv=0
PairPos2: "'kern' Horizontal Kerning in Arabic lookup 2 per glyph data 1" uni0639 dx=-100 dy=0 dh=-100 dv=0 dx=0 dy=0 dh=0 dv=0
PairPos2: "'kern' Horizontal Kerning in Arabic lookup 2 per glyph data 1" uni063A dx=-100 dy=0 dh=-100 dv=0 dx=0 dy=0 dh=0 dv=0
Substitution2: "'fina' Terminal Forms in Arabic lookup 2 subtable" uniFEEE
Colour: ffff
EndChar

StartChar: uni065A
Encoding: 1626 1626 86
Width: 0
VWidth: 1854
Flags: HMW
AnchorPoint: "Anchor-1" 0 1598 basemark 0
AnchorPoint: "Anchor-1" 1 1209 mark 0
AnchorPoint: "Anchor-4" 1 1209 mark 0
AnchorPoint: "Anchor-5" 1 1209 mark 0
LayerCount: 2
Fore
SplineSet
-260 1812 m 1
 -164 1884 l 1
 -0 1665 l 1
 164 1884 l 1
 260 1812 l 1
 0 1465 l 1
 -260 1812 l 1
EndSplineSet
Colour: ff00
EndChar

StartChar: uni066C
Encoding: 1644 1644 88
Width: 587
VWidth: 1854
Flags: HMW
LayerCount: 2
Fore
SplineSet
179 760 m 1
 121 829 l 1
 193 887 271 994 301 1065 c 1
 228 1065 120 1128 120 1237 c 0
 120 1329 189 1411 283 1411 c 0
 379 1411 467 1350 467 1202 c 0
 467 1046 293 851 179 760 c 1
EndSplineSet
EndChar

StartChar: uni066D
Encoding: 1645 1645 89
Width: 910
VWidth: 1854
Flags: HMW
LayerCount: 2
Fore
SplineSet
560 614 m 1
 350 614 l 1
 350 867 l 1
 132 741 l 1
 26 923 l 1
 245 1049 l 1
 26 1176 l 1
 132 1358 l 1
 350 1232 l 1
 350 1484 l 1
 560 1484 l 1
 560 1232 l 1
 778 1358 l 1
 884 1176 l 1
 665 1049 l 1
 884 923 l 1
 778 741 l 1
 560 867 l 1
 560 614 l 1
EndSplineSet
Colour: ff00ff
EndChar

StartChar: uni066E
Encoding: 1646 1646 90
Width: 1782
VWidth: 1854
Flags: HMW
AnchorPoint: "Anchor-5" 892 528 basechar 0
AnchorPoint: "Anchor-3" 892 0 basechar 0
LayerCount: 2
Back
SplineSet
1545 679 m 0
 1572.62207031 595.350585938 1603 499.030273438 1603 400 c 0
 1603 123 1299 75 891 75 c 0
 483 75 179 123 179 400 c 0
 179 499.030654358 209.377920874 595.350916719 237 679 c 1024
EndSplineSet
Fore
SplineSet
1680 766 m 1
 1713 660 1755 522 1755 400 c 0
 1755 -45 1261 -75 892 -75 c 0
 523 -75 28 -46 28 400 c 0
 28 524 70 658 104 766 c 1
 395 688 l 1
 375 619 355 550 337 481 c 0
 330 455 328 429 328 400 c 0
 328 293 445 225 892 225 c 0
 1339 225 1455 292 1455 400 c 0
 1455 432 1453 456 1447 480 c 0
 1429 549 1409 619 1389 688 c 1
 1680 766 l 1
EndSplineSet
Substitution2: "'fina' Terminal Forms in Arabic lookup 2 subtable" dotlessfinalBEH
Substitution2: "'medi' Medial Forms in Arabic lookup 3 subtable" uniFBE9
Substitution2: "'init' Initial Forms in Arabic lookup 4 subtable" uniFBE8
Colour: ffff
EndChar

StartChar: uni066F
Encoding: 1647 1647 91
Width: 1505
VWidth: 1854
Flags: HMW
AnchorPoint: "Anchor-5" 1047 726 basechar 0
AnchorPoint: "Anchor-3" 728 -504 basechar 0
LayerCount: 2
Fore
SplineSet
328 -3 m 0
 328 -160 477 -279 728 -279 c 0
 927 -279 1077 -202 1141 -72 c 1
 1115 -74 1091 -75 1065 -75 c 0
 867 -75 639 29 639 304 c 0
 639 522 782 801 1047 801 c 0
 1459 801 1477 251 1477 99 c 0
 1477 -359 1095 -579 728 -579 c 0
 405 -579 28 -400 28 -3 c 0
 28 211 132 433 251 635 c 1
 504 478 l 1
 404 313 328 121 328 -3 c 0
1169 235 m 1
 1144 424 1097 501 1047 501 c 0
 993 501 939 430 939 304 c 0
 939 249 954 225 1065 225 c 0
 1104 225 1137 228 1169 235 c 1
EndSplineSet
Substitution2: "'init' Initial Forms in Arabic lookup 4 subtable" dotlessinitialFEH
Substitution2: "'medi' Medial Forms in Arabic lookup 3 subtable" dotlessmedialFEH
Substitution2: "'fina' Terminal Forms in Arabic lookup 2 subtable" dotlessfinalQAF
Colour: ffff
EndChar

StartChar: uni0670
Encoding: 1648 1648 92
Width: 0
VWidth: 1854
Flags: HMW
AnchorPoint: "Anchor-1" 0 1598 basemark 0
AnchorPoint: "Anchor-1" 1 1209 mark 0
AnchorPoint: "Anchor-4" 1 1209 mark 0
AnchorPoint: "Anchor-5" 1 1209 mark 0
LayerCount: 2
Fore
SplineSet
-60 1844 m 1
 60 1844 l 1
 60 1495 l 1
 -60 1495 l 1
 -60 1844 l 1
EndSplineSet
Colour: ff00
EndChar

StartChar: uni06A1
Encoding: 1697 1697 93
Width: 1752
VWidth: 1854
Flags: HMW
AnchorPoint: "Anchor-3" 892 0 basechar 0
AnchorPoint: "Anchor-5" 1313 1111 basechar 0
LayerCount: 2
Fore
SplineSet
1416 582 m 1
 1391 771 1344 848 1294 848 c 0
 1240 848 1186 777 1186 651 c 0
 1186 596 1201 572 1312 572 c 0
 1351 572 1384 575 1416 582 c 1
1724 446 m 0
 1724 -2 1279 -75 891 -75 c 0
 522 -75 29 -45 29 400 c 0
 29 552 71 668 111 773 c 1
 395 680 l 1
 366 594 329 480 329 400 c 0
 329 267 571 226 830 226 c 0
 1065 226 1314 260 1412 290 c 1
 1381 287 1353 286 1325 286 c 0
 1053 286 886 402 886 651 c 0
 886 869 1029 1148 1294 1148 c 0
 1706 1148 1724 598 1724 446 c 0
EndSplineSet
Substitution2: "'init' Initial Forms in Arabic lookup 4 subtable" dotlessinitialFEH
Substitution2: "'medi' Medial Forms in Arabic lookup 3 subtable" dotlessmedialFEH
Substitution2: "'fina' Terminal Forms in Arabic lookup 2 subtable" dotlessfinalFEH
Colour: ffff
EndChar

StartChar: uni06A9
Encoding: 1705 1705 94
Width: 1848
VWidth: 1854
Flags: HMW
AnchorPoint: "Anchor-5" 1304 1258 basechar 0
AnchorPoint: "Anchor-3" 868 0 basechar 0
LayerCount: 2
Fore
SplineSet
110 773 m 1
 395 680 l 1
 362 594 329 480 329 400 c 0
 329 292 444 225 891 225 c 0
 1197 225 1243 272 1243 298 c 0
 1243 395 992 684 794 832 c 1
 794 1076 l 1
 1068 1255 1381 1385 1717 1453 c 1
 1777 1159 l 1
 1553 1113 1343 1043 1144 937 c 1
 1334 771 1543 535 1543 298 c 0
 1543 -66 1139 -75 924 -75 c 2
 891 -75 l 2
 522 -75 29 -45 29 400 c 0
 29 554 70 668 110 773 c 1
EndSplineSet
Substitution2: "'init' Initial Forms in Arabic lookup 4 subtable" uniFB90
Substitution2: "'medi' Medial Forms in Arabic lookup 3 subtable" uniFB91
Substitution2: "'fina' Terminal Forms in Arabic lookup 2 subtable" uniFB8F
Colour: ffff
EndChar

StartChar: uni06BA
Encoding: 1722 1722 95
Width: 1542
VWidth: 1854
Flags: HMW
AnchorPoint: "Anchor-3" 734 -502 basechar 0
AnchorPoint: "Anchor-5" 792 539 basechar 0
LayerCount: 2
Fore
SplineSet
504 492 m 1
 404 327 328 125 328 1 c 0
 328 -162 470 -278 729 -278 c 0
 1010 -278 1214 -139 1214 86 c 0
 1214 221 1127 427 1061 569 c 1
 1336 688 l 1
 1411 534 1514 321 1514 86 c 0
 1514 -373 1090 -578 729 -578 c 0
 395 -578 28 -398 28 1 c 0
 28 215 132 447 251 649 c 1
 504 492 l 1
EndSplineSet
Substitution2: "'fina' Terminal Forms in Arabic lookup 2 subtable" uniFB9F
Substitution2: "'init' Initial Forms in Arabic lookup 4 subtable" uniFBE8
Substitution2: "'medi' Medial Forms in Arabic lookup 3 subtable" uniFBE9
Colour: ffff
EndChar

StartChar: uni06CC
Encoding: 1740 1740 96
Width: 1449
VWidth: 1854
Flags: HMW
AnchorPoint: "Anchor-3" 775 -502 basechar 0
AnchorPoint: "Anchor-5" 463 696 basechar 0
LayerCount: 2
Back
SplineSet
1320 688 m 0
 1239 720 1138 736 1035 736 c 0
 810 736 674 584 674 384 c 0
 674 292 688 232 729 194 c 0
 774 152 850 135 975 129 c 0
 1091 123 1167 105 1213 59 c 0
 1246 26 1262 -21 1262 -88 c 0
 1262 -296 1067 -428 754 -428 c 0
 376 -428 178 -267 178 -5 c 0
 178 120 201 261 247 404 c 9
 258 439 l 1025
EndSplineSet
Fore
SplineSet
1375 828 m 1
 1265 548 l 1
 1207 571 1123 586 1035 586 c 0
 890 586 824 507 824 384 c 0
 824 336 831 309 833 303 c 1
 841 299 886 284 982 279 c 0
 1117 272 1258 247 1343 138 c 0
 1395 71 1412 -10 1412 -88 c 0
 1412 -420 1095 -578 754 -578 c 0
 336 -578 28 -374 28 -5 c 0
 28 138 54 294 104 449 c 2
 115 484 l 1
 401 394 l 1
 390 359 l 2
 348 228 328 102 328 -5 c 0
 328 -160 416 -278 754 -278 c 0
 1039 -278 1112 -172 1112 -88 c 0
 1112 -60 1108 -48 1107 -47 c 0
 1106 -46 1071 -26 968 -21 c 0
 830 -14 696 4 608 103 c 0
 533 187 524 290 524 384 c 0
 524 661 730 886 1035 886 c 0
 1153 886 1271 869 1375 828 c 1
EndSplineSet
Substitution2: "'init' Initial Forms in Arabic lookup 4 subtable" uniFEF3
Substitution2: "'medi' Medial Forms in Arabic lookup 3 subtable" uniFEF4
Substitution2: "'fina' Terminal Forms in Arabic lookup 2 subtable" uniFBFD
Colour: ffff
EndChar

StartChar: uniFBE8
Encoding: 64488 64488 100
Width: 547
VWidth: 1854
Flags: HMW
AnchorPoint: "Anchor-5" 303 791 basechar 0
AnchorPoint: "Anchor-3" 274 0 basechar 0
LayerCount: 2
Fore
SplineSet
0 225 m 0
 198 225 219 255 219 443 c 0
 219 528 178 685 145 792 c 1
 430 885 l 1
 474 748 519 583 519 443 c 0
 519 322 502 185 410 75 c 0
 310 -44 147 -75 0 -75 c 0
 -83 -75 -150 -8 -150 75 c 0
 -150 158 -83 225 0 225 c 0
EndSplineSet
Colour: ffff
EndChar

StartChar: uniFBE9
Encoding: 64489 64489 101
Width: 767
VWidth: 1854
Flags: HMW
AnchorPoint: "Anchor-5" 384 594 basechar 0
AnchorPoint: "Anchor-3" 184 0 basechar 0
LayerCount: 2
Fore
SplineSet
0 225 m 0
 113 225 158 250 179 271 c 0
 205 297 234 369 234 517 c 2
 234 644 l 1
 534 644 l 1
 534 517 l 2
 534 374 562 302 587 274 c 0
 609 250 649 225 767 225 c 1
 767 -75 l 1
 610 -75 481 -36 384 54 c 1
 286 -38 154 -75 0 -75 c 0
 -83 -75 -150 -8 -150 75 c 0
 -150 158 -83 225 0 225 c 0
EndSplineSet
Colour: ffff
EndChar

StartChar: uniFBFD
Encoding: 64509 64509 102
Width: 1473
VWidth: 1854
Flags: HMW
AnchorPoint: "Anchor-5" 883 149 basechar 0
AnchorPoint: "Anchor-3" 739 -573 basechar 0
LayerCount: 2
Fore
SplineSet
1473 225 m 1
 1473 -75 l 1
 1426 -75 l 1
 1436 -108 1441 -139 1441 -172 c 0
 1441 -507 1071 -648 739 -648 c 0
 405 -648 28 -488 28 -52 c 0
 28 166 122 390 270 626 c 1
 525 469 l 1
 403 271 328 87 328 -52 c 0
 328 -234 468 -348 739 -348 c 0
 1062 -348 1141 -252 1141 -184 c 0
 1141 -83 929 -76 662 -76 c 1
 662 225 l 1
 1473 225 l 1
EndSplineSet
Colour: ffff
EndChar

StartChar: uniFE8E
Encoding: 65166 65166 109
Width: 596
VWidth: 1854
Flags: HMW
AnchorPoint: "Anchor-3" 346 0 basechar 0
AnchorPoint: "Anchor-5" 250 1211 basechar 0
LayerCount: 2
Fore
SplineSet
100 391 m 2
 100 1286 l 1
 400 1286 l 1
 400 391 l 2
 400 326 406 286 428 261 c 0
 454 232 504 225 596 225 c 9
 596 -75 l 17
 434 -75 307 -32 222 51 c 0
 143 129 100 243 100 391 c 2
EndSplineSet
PairPos2: "'kern' Horizontal Kerning in Arabic lookup 2 per glyph data 1" uni0639 dx=-225 dy=0 dh=-225 dv=0 dx=0 dy=0 dh=0 dv=0
PairPos2: "'kern' Horizontal Kerning in Arabic lookup 2 per glyph data 1" uni063A dx=-225 dy=0 dh=-225 dv=0 dx=0 dy=0 dh=0 dv=0
Colour: ffff
EndChar

StartChar: uniFEA2
Encoding: 65186 65186 110
Width: 1398
VWidth: 1854
Flags: HMW
AnchorPoint: "Anchor-3" 805 -736 basechar 0
AnchorPoint: "Anchor-5" 507 853 basechar 0
LayerCount: 2
Fore
SplineSet
1408 -686 m 1
 1229 -753 1042 -811 805 -811 c 0
 405 -811 26 -634 26 -226 c 0
 26 202 476 403 864 533 c 1
 581 615 l 2
 548 625 525 628 507 628 c 0
 418 628 392 562 369 377 c 1
 71 409 l 1
 100 682 196 928 507 928 c 0
 560 928 618 921 679 899 c 2
 1314 670 l 1
 1307 366 l 1
 1259 354 1212 342 1166 329 c 1
 1223 262 1276 225 1398 225 c 1
 1398 -75 l 1
 1134 -75 968 72 861 235 c 1
 522 112 326 -39 326 -226 c 0
 326 -413 554 -511 805 -511 c 0
 1004 -511 1150 -463 1304 -405 c 1
 1408 -686 l 1
EndSplineSet
Colour: ffff
EndChar

StartChar: uniFEA3
Encoding: 65187 65187 111
Width: 1366
VWidth: 1854
Flags: HMW
AnchorPoint: "Anchor-5" 480 852 basechar 0
AnchorPoint: "Anchor-3" 708 0 basechar 0
LayerCount: 2
Fore
SplineSet
27 455 m 1
 57 636 143 927 436 927 c 0
 511 927 586 907 663 870 c 2
 1307 559 l 1
 1307 293 l 1
 1148 261 1036 226 918 156 c 0
 727 42 453 -75 0 -75 c 0
 -83 -75 -150 -8 -150 75 c 0
 -150 158 -83 225 0 225 c 0
 389 225 566 298 736 398 c 0
 767 416 799 435 835 454 c 1
 532 600 l 2
 485 623 457 627 436 627 c 0
 407 627 353 594 323 407 c 1
 27 455 l 1
EndSplineSet
Colour: ffff
EndChar

StartChar: uniFEA4
Encoding: 65188 65188 112
Width: 1366
VWidth: 1854
Flags: HMW
AnchorPoint: "Anchor-5" 480 852 basechar 0
AnchorPoint: "Anchor-3" 708 0 basechar 0
LayerCount: 2
Fore
SplineSet
1198 269 m 1
 1234 242 1277 225 1366 225 c 1
 1366 -75 l 1
 1145 -75 998 25 897 143 c 1
 700 25 437 -75 0 -75 c 0
 -83 -75 -150 -8 -150 75 c 0
 -150 158 -83 225 0 225 c 0
 387 225 563 297 734 396 c 0
 766 414 799 433 835 453 c 1
 532 600 l 2
 485 623 457 627 436 627 c 0
 407 627 353 594 323 407 c 1
 27 455 l 1
 57 636 143 927 436 927 c 0
 511 927 586 907 663 870 c 2
 1307 559 l 1
 1307 294 l 1
 1198 269 l 1
EndSplineSet
Colour: ffff
EndChar

StartChar: uniFEAA
Encoding: 65194 65194 113
Width: 1180
VWidth: 1854
Flags: HMW
AnchorPoint: "Anchor-3" 421 0 basechar 0
AnchorPoint: "Anchor-5" 570 857 basechar 0
LayerCount: 2
Fore
SplineSet
1180 -75 m 1
 1039 -75 907 -45 799 59 c 1
 699 -39 560 -75 429 -75 c 0
 264 -75 105 -5 -29 98 c 1
 154 335 l 1
 228 277 324 225 429 225 c 0
 570 225 615 285 615 336 c 0
 615 353 611 376 595 414 c 2
 403 866 l 1
 678 986 l 1
 907 450 l 2
 997 237 1017 225 1134 225 c 2
 1180 225 l 1
 1180 -75 l 1
EndSplineSet
PairPos2: "'kern' Horizontal Kerning in Arabic lookup 2 per glyph data 3" uni06A9 dx=-300 dy=0 dh=-300 dv=0 dx=0 dy=0 dh=0 dv=0
PairPos2: "'kern' Horizontal Kerning in Arabic lookup 2 per glyph data 3" uni06AF dx=-300 dy=0 dh=-300 dv=0 dx=0 dy=0 dh=0 dv=0
PairPos2: "'kern' Horizontal Kerning in Arabic lookup 2 per glyph data 3" uniFB90 dx=-300 dy=0 dh=-300 dv=0 dx=0 dy=0 dh=0 dv=0
PairPos2: "'kern' Horizontal Kerning in Arabic lookup 2 per glyph data 3" uniFB94 dx=-300 dy=0 dh=-300 dv=0 dx=0 dy=0 dh=0 dv=0
PairPos2: "'kern' Horizontal Kerning in Arabic lookup 2 per glyph data 3" uniFEDB dx=-300 dy=0 dh=-300 dv=0 dx=0 dy=0 dh=0 dv=0
PairPos2: "'kern' Horizontal Kerning in Arabic lookup 2 per glyph data 1" uni0639 dx=-250 dy=0 dh=-250 dv=0 dx=0 dy=0 dh=0 dv=0
PairPos2: "'kern' Horizontal Kerning in Arabic lookup 2 per glyph data 1" uni063A dx=-250 dy=0 dh=-250 dv=0 dx=0 dy=0 dh=0 dv=0
Colour: ffff
EndChar

StartChar: uniFEAE
Encoding: 65198 65198 114
Width: 960
VWidth: 1854
Flags: HMW
AnchorPoint: "Anchor-5" 556 571 basechar 0
AnchorPoint: "Anchor-3" 488 -402 basechar 0
LayerCount: 2
Fore
SplineSet
398 562 m 1
 677 673 l 1
 723 556 769 428 789 312 c 0
 805 238 823 225 960 225 c 1
 960 -75 l 1
 896 -75 837 -67 785 -51 c 1
 720 -317 463 -492 154 -604 c 1
 52 -322 l 1
 338 -218 506 -91 506 131 c 0
 506 246 457 417 398 562 c 1
EndSplineSet
PairPos2: "'kern' Horizontal Kerning in Arabic lookup 2 per glyph data 7" uniFBE8 dx=-225 dy=0 dh=-225 dv=0 dx=0 dy=0 dh=0 dv=0
PairPos2: "'kern' Horizontal Kerning in Arabic lookup 2 per glyph data 7" uni0695 dx=-150 dy=0 dh=-150 dv=0 dx=0 dy=0 dh=0 dv=0
PairPos2: "'kern' Horizontal Kerning in Arabic lookup 2 per glyph data 7" uni06A4 dx=-250 dy=0 dh=-250 dv=0 dx=0 dy=0 dh=0 dv=0
PairPos2: "'kern' Horizontal Kerning in Arabic lookup 2 per glyph data 7" uniFB6C dx=-250 dy=0 dh=-250 dv=0 dx=0 dy=0 dh=0 dv=0
PairPos2: "'kern' Horizontal Kerning in Arabic lookup 2 per glyph data 7" uni06B5 dx=-112 dy=0 dh=-112 dv=0 dx=0 dy=0 dh=0 dv=0
PairPos2: "'kern' Horizontal Kerning in Arabic lookup 2 per glyph data 7" uni06BA dx=-150 dy=0 dh=-150 dv=0 dx=0 dy=0 dh=0 dv=0
PairPos2: "'kern' Horizontal Kerning in Arabic lookup 2 per glyph data 7" uni06BE dx=-250 dy=0 dh=-250 dv=0 dx=0 dy=0 dh=0 dv=0
PairPos2: "'kern' Horizontal Kerning in Arabic lookup 2 per glyph data 7" uni06C6 dx=-150 dy=0 dh=-150 dv=0 dx=0 dy=0 dh=0 dv=0
PairPos2: "'kern' Horizontal Kerning in Arabic lookup 2 per glyph data 7" uni06CE dx=-100 dy=0 dh=-100 dv=0 dx=0 dy=0 dh=0 dv=0
PairPos2: "'kern' Horizontal Kerning in Arabic lookup 2 per glyph data 7" uni06D5 dx=-250 dy=0 dh=-250 dv=0 dx=0 dy=0 dh=0 dv=0
PairPos2: "'kern' Horizontal Kerning in Arabic lookup 2 per glyph data 7" uniE012 dx=-150 dy=0 dh=-150 dv=0 dx=0 dy=0 dh=0 dv=0
PairPos2: "'kern' Horizontal Kerning in Arabic lookup 2 per glyph data 7" uniE015 dx=-250 dy=0 dh=-250 dv=0 dx=0 dy=0 dh=0 dv=0
PairPos2: "'kern' Horizontal Kerning in Arabic lookup 2 per glyph data 7" uniE017 dx=-325 dy=0 dh=-325 dv=0 dx=0 dy=0 dh=0 dv=0
PairPos2: "'kern' Horizontal Kerning in Arabic lookup 2 per glyph data 4" bracketleft dx=-300 dy=0 dh=-300 dv=0 dx=0 dy=0 dh=0 dv=0
PairPos2: "'kern' Horizontal Kerning in Arabic lookup 2 per glyph data 4" guillemotleft dx=-420 dy=0 dh=-420 dv=0 dx=0 dy=0 dh=0 dv=0
PairPos2: "'kern' Horizontal Kerning in Arabic lookup 2 per glyph data 4" less dx=-420 dy=0 dh=-420 dv=0 dx=0 dy=0 dh=0 dv=0
PairPos2: "'kern' Horizontal Kerning in Arabic lookup 2 per glyph data 4" parenleft dx=-300 dy=0 dh=-300 dv=0 dx=0 dy=0 dh=0 dv=0
PairPos2: "'kern' Horizontal Kerning in Arabic lookup 2 per glyph data 3" uni06A9 dx=-300 dy=0 dh=-300 dv=0 dx=0 dy=0 dh=0 dv=0
PairPos2: "'kern' Horizontal Kerning in Arabic lookup 2 per glyph data 3" uni06AF dx=-300 dy=0 dh=-300 dv=0 dx=0 dy=0 dh=0 dv=0
PairPos2: "'kern' Horizontal Kerning in Arabic lookup 2 per glyph data 3" uniFB90 dx=-300 dy=0 dh=-300 dv=0 dx=0 dy=0 dh=0 dv=0
PairPos2: "'kern' Horizontal Kerning in Arabic lookup 2 per glyph data 3" uniFB94 dx=-300 dy=0 dh=-300 dv=0 dx=0 dy=0 dh=0 dv=0
PairPos2: "'kern' Horizontal Kerning in Arabic lookup 2 per glyph data 3" uniFEDB dx=-300 dy=0 dh=-300 dv=0 dx=0 dy=0 dh=0 dv=0
PairPos2: "'kern' Horizontal Kerning in Arabic lookup 2 per glyph data 2" uniFBFE dx=-100 dy=0 dh=-100 dv=0 dx=0 dy=0 dh=0 dv=0
PairPos2: "'kern' Horizontal Kerning in Arabic lookup 2 per glyph data 2" uniFEF3 dx=-100 dy=0 dh=-100 dv=0 dx=0 dy=0 dh=0 dv=0
PairPos2: "'kern' Horizontal Kerning in Arabic lookup 2 per glyph data 2" uniFB58 dx=-100 dy=0 dh=-100 dv=0 dx=0 dy=0 dh=0 dv=0
PairPos2: "'kern' Horizontal Kerning in Arabic lookup 2 per glyph data 2" uni0622 dx=-250 dy=0 dh=-250 dv=0 dx=0 dy=0 dh=0 dv=0
PairPos2: "'kern' Horizontal Kerning in Arabic lookup 2 per glyph data 2" uni0623 dx=-250 dy=0 dh=-250 dv=0 dx=0 dy=0 dh=0 dv=0
PairPos2: "'kern' Horizontal Kerning in Arabic lookup 2 per glyph data 2" uni0624 dx=-150 dy=0 dh=-150 dv=0 dx=0 dy=0 dh=0 dv=0
PairPos2: "'kern' Horizontal Kerning in Arabic lookup 2 per glyph data 2" uni0627 dx=-250 dy=0 dh=-250 dv=0 dx=0 dy=0 dh=0 dv=0
PairPos2: "'kern' Horizontal Kerning in Arabic lookup 2 per glyph data 2" uni0628 dx=-250 dy=0 dh=-250 dv=0 dx=0 dy=0 dh=0 dv=0
PairPos2: "'kern' Horizontal Kerning in Arabic lookup 2 per glyph data 2" uni0629 dx=-250 dy=0 dh=-250 dv=0 dx=0 dy=0 dh=0 dv=0
PairPos2: "'kern' Horizontal Kerning in Arabic lookup 2 per glyph data 2" uni062A dx=-250 dy=0 dh=-250 dv=0 dx=0 dy=0 dh=0 dv=0
PairPos2: "'kern' Horizontal Kerning in Arabic lookup 2 per glyph data 2" uni062B dx=-250 dy=0 dh=-250 dv=0 dx=0 dy=0 dh=0 dv=0
PairPos2: "'kern' Horizontal Kerning in Arabic lookup 2 per glyph data 2" uni062C dx=-125 dy=0 dh=-125 dv=0 dx=0 dy=0 dh=0 dv=0
PairPos2: "'kern' Horizontal Kerning in Arabic lookup 2 per glyph data 2" uni062D dx=-125 dy=0 dh=-125 dv=0 dx=0 dy=0 dh=0 dv=0
PairPos2: "'kern' Horizontal Kerning in Arabic lookup 2 per glyph data 2" uni062E dx=-125 dy=0 dh=-125 dv=0 dx=0 dy=0 dh=0 dv=0
PairPos2: "'kern' Horizontal Kerning in Arabic lookup 2 per glyph data 2" uni062F dx=-250 dy=0 dh=-250 dv=0 dx=0 dy=0 dh=0 dv=0
PairPos2: "'kern' Horizontal Kerning in Arabic lookup 2 per glyph data 2" uni0630 dx=-250 dy=0 dh=-250 dv=0 dx=0 dy=0 dh=0 dv=0
PairPos2: "'kern' Horizontal Kerning in Arabic lookup 2 per glyph data 2" uni0631 dx=-150 dy=0 dh=-150 dv=0 dx=0 dy=0 dh=0 dv=0
PairPos2: "'kern' Horizontal Kerning in Arabic lookup 2 per glyph data 2" uni0632 dx=-150 dy=0 dh=-150 dv=0 dx=0 dy=0 dh=0 dv=0
PairPos2: "'kern' Horizontal Kerning in Arabic lookup 2 per glyph data 2" uni0633 dx=-200 dy=0 dh=-200 dv=0 dx=0 dy=0 dh=0 dv=0
PairPos2: "'kern' Horizontal Kerning in Arabic lookup 2 per glyph data 2" uni0634 dx=-200 dy=0 dh=-200 dv=0 dx=0 dy=0 dh=0 dv=0
PairPos2: "'kern' Horizontal Kerning in Arabic lookup 2 per glyph data 2" uni0635 dx=-300 dy=0 dh=-300 dv=0 dx=0 dy=0 dh=0 dv=0
PairPos2: "'kern' Horizontal Kerning in Arabic lookup 2 per glyph data 2" uni0636 dx=-300 dy=0 dh=-300 dv=0 dx=0 dy=0 dh=0 dv=0
PairPos2: "'kern' Horizontal Kerning in Arabic lookup 2 per glyph data 2" uni0637 dx=-300 dy=0 dh=-300 dv=0 dx=0 dy=0 dh=0 dv=0
PairPos2: "'kern' Horizontal Kerning in Arabic lookup 2 per glyph data 2" uni0638 dx=-300 dy=0 dh=-300 dv=0 dx=0 dy=0 dh=0 dv=0
PairPos2: "'kern' Horizontal Kerning in Arabic lookup 2 per glyph data 2" uni0641 dx=-250 dy=0 dh=-250 dv=0 dx=0 dy=0 dh=0 dv=0
PairPos2: "'kern' Horizontal Kerning in Arabic lookup 2 per glyph data 2" uni0642 dx=-150 dy=0 dh=-150 dv=0 dx=0 dy=0 dh=0 dv=0
PairPos2: "'kern' Horizontal Kerning in Arabic lookup 2 per glyph data 2" uni0643 dx=-300 dy=0 dh=-300 dv=0 dx=0 dy=0 dh=0 dv=0
PairPos2: "'kern' Horizontal Kerning in Arabic lookup 2 per glyph data 2" uni0644 dx=-112 dy=0 dh=-112 dv=0 dx=0 dy=0 dh=0 dv=0
PairPos2: "'kern' Horizontal Kerning in Arabic lookup 2 per glyph data 2" uni0645 dx=-250 dy=0 dh=-250 dv=0 dx=0 dy=0 dh=0 dv=0
PairPos2: "'kern' Horizontal Kerning in Arabic lookup 2 per glyph data 2" uni0646 dx=-150 dy=0 dh=-150 dv=0 dx=0 dy=0 dh=0 dv=0
PairPos2: "'kern' Horizontal Kerning in Arabic lookup 2 per glyph data 2" uni0647 dx=-250 dy=0 dh=-250 dv=0 dx=0 dy=0 dh=0 dv=0
PairPos2: "'kern' Horizontal Kerning in Arabic lookup 2 per glyph data 2" uni0648 dx=-150 dy=0 dh=-150 dv=0 dx=0 dy=0 dh=0 dv=0
PairPos2: "'kern' Horizontal Kerning in Arabic lookup 2 per glyph data 2" uni067E dx=-250 dy=0 dh=-250 dv=0 dx=0 dy=0 dh=0 dv=0
PairPos2: "'kern' Horizontal Kerning in Arabic lookup 2 per glyph data 2" uni0686 dx=-125 dy=0 dh=-125 dv=0 dx=0 dy=0 dh=0 dv=0
PairPos2: "'kern' Horizontal Kerning in Arabic lookup 2 per glyph data 2" uni0698 dx=-150 dy=0 dh=-150 dv=0 dx=0 dy=0 dh=0 dv=0
PairPos2: "'kern' Horizontal Kerning in Arabic lookup 2 per glyph data 2" uni06A9 dx=-400 dy=0 dh=-400 dv=0 dx=0 dy=0 dh=0 dv=0
PairPos2: "'kern' Horizontal Kerning in Arabic lookup 2 per glyph data 2" uni06AF dx=-400 dy=0 dh=-400 dv=0 dx=0 dy=0 dh=0 dv=0
PairPos2: "'kern' Horizontal Kerning in Arabic lookup 2 per glyph data 2" uni06C0 dx=-250 dy=0 dh=-250 dv=0 dx=0 dy=0 dh=0 dv=0
PairPos2: "'kern' Horizontal Kerning in Arabic lookup 2 per glyph data 2" uni06CA dx=-150 dy=0 dh=-150 dv=0 dx=0 dy=0 dh=0 dv=0
PairPos2: "'kern' Horizontal Kerning in Arabic lookup 2 per glyph data 2" uniFB7C dx=-250 dy=0 dh=-250 dv=0 dx=0 dy=0 dh=0 dv=0
PairPos2: "'kern' Horizontal Kerning in Arabic lookup 2 per glyph data 2" uniFB90 dx=-400 dy=0 dh=-400 dv=0 dx=0 dy=0 dh=0 dv=0
PairPos2: "'kern' Horizontal Kerning in Arabic lookup 2 per glyph data 2" uniFB94 dx=-400 dy=0 dh=-400 dv=0 dx=0 dy=0 dh=0 dv=0
PairPos2: "'kern' Horizontal Kerning in Arabic lookup 2 per glyph data 2" uniFE8B dx=-225 dy=0 dh=-225 dv=0 dx=0 dy=0 dh=0 dv=0
PairPos2: "'kern' Horizontal Kerning in Arabic lookup 2 per glyph data 2" uniFE91 dx=-225 dy=0 dh=-225 dv=0 dx=0 dy=0 dh=0 dv=0
PairPos2: "'kern' Horizontal Kerning in Arabic lookup 2 per glyph data 2" uniFE97 dx=-225 dy=0 dh=-225 dv=0 dx=0 dy=0 dh=0 dv=0
PairPos2: "'kern' Horizontal Kerning in Arabic lookup 2 per glyph data 2" uniFE9B dx=-225 dy=0 dh=-225 dv=0 dx=0 dy=0 dh=0 dv=0
PairPos2: "'kern' Horizontal Kerning in Arabic lookup 2 per glyph data 2" uniFE9F dx=-250 dy=0 dh=-250 dv=0 dx=0 dy=0 dh=0 dv=0
PairPos2: "'kern' Horizontal Kerning in Arabic lookup 2 per glyph data 2" uniFEA3 dx=-250 dy=0 dh=-250 dv=0 dx=0 dy=0 dh=0 dv=0
PairPos2: "'kern' Horizontal Kerning in Arabic lookup 2 per glyph data 2" uniFEA7 dx=-250 dy=0 dh=-250 dv=0 dx=0 dy=0 dh=0 dv=0
PairPos2: "'kern' Horizontal Kerning in Arabic lookup 2 per glyph data 2" uniFEB3 dx=-200 dy=0 dh=-200 dv=0 dx=0 dy=0 dh=0 dv=0
PairPos2: "'kern' Horizontal Kerning in Arabic lookup 2 per glyph data 2" uniFEB7 dx=-200 dy=0 dh=-200 dv=0 dx=0 dy=0 dh=0 dv=0
PairPos2: "'kern' Horizontal Kerning in Arabic lookup 2 per glyph data 2" uniFEBB dx=-300 dy=0 dh=-300 dv=0 dx=0 dy=0 dh=0 dv=0
PairPos2: "'kern' Horizontal Kerning in Arabic lookup 2 per glyph data 2" uniFEBF dx=-300 dy=0 dh=-300 dv=0 dx=0 dy=0 dh=0 dv=0
PairPos2: "'kern' Horizontal Kerning in Arabic lookup 2 per glyph data 2" uniFEC3 dx=-300 dy=0 dh=-300 dv=0 dx=0 dy=0 dh=0 dv=0
PairPos2: "'kern' Horizontal Kerning in Arabic lookup 2 per glyph data 2" uniFEC7 dx=-300 dy=0 dh=-300 dv=0 dx=0 dy=0 dh=0 dv=0
PairPos2: "'kern' Horizontal Kerning in Arabic lookup 2 per glyph data 2" uniFECB dx=-300 dy=0 dh=-300 dv=0 dx=0 dy=0 dh=0 dv=0
PairPos2: "'kern' Horizontal Kerning in Arabic lookup 2 per glyph data 2" uniFECF dx=-300 dy=0 dh=-300 dv=0 dx=0 dy=0 dh=0 dv=0
PairPos2: "'kern' Horizontal Kerning in Arabic lookup 2 per glyph data 2" uniFED3 dx=-250 dy=0 dh=-250 dv=0 dx=0 dy=0 dh=0 dv=0
PairPos2: "'kern' Horizontal Kerning in Arabic lookup 2 per glyph data 2" uniFED7 dx=-250 dy=0 dh=-250 dv=0 dx=0 dy=0 dh=0 dv=0
PairPos2: "'kern' Horizontal Kerning in Arabic lookup 2 per glyph data 2" uniFEDB dx=-400 dy=0 dh=-400 dv=0 dx=0 dy=0 dh=0 dv=0
PairPos2: "'kern' Horizontal Kerning in Arabic lookup 2 per glyph data 2" uniFEDF dx=-250 dy=0 dh=-250 dv=0 dx=0 dy=0 dh=0 dv=0
PairPos2: "'kern' Horizontal Kerning in Arabic lookup 2 per glyph data 2" uniFEE3 dx=-250 dy=0 dh=-250 dv=0 dx=0 dy=0 dh=0 dv=0
PairPos2: "'kern' Horizontal Kerning in Arabic lookup 2 per glyph data 2" uniFEE7 dx=-225 dy=0 dh=-225 dv=0 dx=0 dy=0 dh=0 dv=0
PairPos2: "'kern' Horizontal Kerning in Arabic lookup 2 per glyph data 2" uniFEEB dx=-250 dy=0 dh=-250 dv=0 dx=0 dy=0 dh=0 dv=0
PairPos2: "'kern' Horizontal Kerning in Arabic lookup 2 per glyph data 2" uniFEF5 dx=-325 dy=0 dh=-325 dv=0 dx=0 dy=0 dh=0 dv=0
PairPos2: "'kern' Horizontal Kerning in Arabic lookup 2 per glyph data 2" uniFEF7 dx=-325 dy=0 dh=-325 dv=0 dx=0 dy=0 dh=0 dv=0
PairPos2: "'kern' Horizontal Kerning in Arabic lookup 2 per glyph data 2" uniFEF9 dx=-325 dy=0 dh=-325 dv=0 dx=0 dy=0 dh=0 dv=0
PairPos2: "'kern' Horizontal Kerning in Arabic lookup 2 per glyph data 2" uniFEFB dx=-325 dy=0 dh=-325 dv=0 dx=0 dy=0 dh=0 dv=0
PairPos2: "'kern' Horizontal Kerning in Arabic lookup 2 per glyph data 2" uni06CC dx=-100 dy=0 dh=-100 dv=0 dx=0 dy=0 dh=0 dv=0
PairPos2: "'kern' Horizontal Kerning in Arabic lookup 2 per glyph data 2" uni0649 dx=-100 dy=0 dh=-100 dv=0 dx=0 dy=0 dh=0 dv=0
PairPos2: "'kern' Horizontal Kerning in Arabic lookup 2 per glyph data 2" uni064A dx=-100 dy=0 dh=-100 dv=0 dx=0 dy=0 dh=0 dv=0
PairPos2: "'kern' Horizontal Kerning in Arabic lookup 2 per glyph data 2" uni0621 dx=-200 dy=0 dh=-200 dv=0 dx=0 dy=0 dh=0 dv=0
PairPos2: "'kern' Horizontal Kerning in Arabic lookup 2 per glyph data 1" uni0639 dx=-200 dy=0 dh=-200 dv=0 dx=0 dy=0 dh=0 dv=0
PairPos2: "'kern' Horizontal Kerning in Arabic lookup 2 per glyph data 1" uni063A dx=-200 dy=0 dh=-200 dv=0 dx=0 dy=0 dh=0 dv=0
Colour: ffff
EndChar

StartChar: uniFEB2
Encoding: 65202 65202 115
Width: 2684
VWidth: 1854
Flags: HMW
AnchorPoint: "Anchor-5" 1768 594 basechar 0
AnchorPoint: "Anchor-3" 719 -502 basechar 0
LayerCount: 2
Fore
SplineSet
2361 784 m 1
 2419 501 l 2
 2468 261 2477 225 2684 225 c 1
 2684 -75 l 1
 2519 -75 2395 -35 2308 40 c 1
 2243 -31 2150 -75 2033 -75 c 0
 1946 -75 1853 -46 1780 13 c 1
 1716 -44 1636 -75 1543 -75 c 0
 1510 -75 1478 -70 1449 -63 c 1
 1375 -420 1027 -576 719 -576 c 0
 388 -576 28 -392 28 11 c 0
 28 226 160 467 360 705 c 1
 589 513 l 1
 420 318 328 115 328 11 c 0
 328 -165 470 -276 719 -276 c 0
 980 -276 1163 -151 1163 74 c 0
 1163 130 1151 197 1120 278 c 2
 1010 564 l 1
 1292 672 l 1
 1401 385 l 2
 1458 233 1502 225 1545 225 c 0
 1582 225 1617 247 1637 372 c 2
 1681 647 l 1
 1975 599 l 1
 1942 384 l 2
 1939 363 1937 345 1937 329 c 0
 1937 249 1975 225 2033 225 c 0
 2099 225 2132 259 2132 350 c 0
 2132 394 2124 451 2109 523 c 2
 2067 724 l 1
 2361 784 l 1
EndSplineSet
Colour: ffff
EndChar

StartChar: uniFEB3
Encoding: 65203 65203 116
Width: 1538
VWidth: 2374
Flags: HMW
AnchorPoint: "Anchor-5" 880 594 basechar 0
AnchorPoint: "Anchor-3" 881 0 basechar 0
LayerCount: 2
Back
SplineSet
1306 706 m 1
 1344 461 l 2
 1351 419 1353 383 1353 350 c 0
 1353 175 1268 75 1116 75 c 0
 924 75 849.03103855 275.994537215 883 469 c 2
 905 594 l 1
 883 469 l 2
 852.59765625 297.071289062 808 75 620 75 c 0
 452 75 402.770507812 281.970703125 380 463 c 2
 364 594 l 1
 380 463 l 2
 406.340820312 265.447265625 281.860023333 75 0 75 c 1025
EndSplineSet
Fore
SplineSet
1510 343 m 0
 1510 111 1358 -75 1128 -75 c 0
 1031 -75 944 -38 880 19 c 1
 815 -39 729 -75 632 -75 c 0
 522 -75 427 -29 362 40 c 1
 274 -36 153 -75 0 -75 c 0
 -83 -75 -150 -8 -150 75 c 0
 -150 158 -83 225 0 225 c 0
 113 225 164 245 190 277 c 0
 218 312 234 385 234 517 c 2
 234 644 l 1
 534 644 l 1
 534 435 l 2
 534 340 559 271 578 248 c 0
 594 229 598 225 632 225 c 0
 666 225 670 229 686 248 c 0
 705 271 730 340 730 435 c 2
 730 644 l 1
 1030 644 l 1
 1030 435 l 2
 1030 340 1055 271 1074 248 c 0
 1090 229 1094 225 1128 225 c 0
 1169 225 1175 233 1187 251 c 0
 1198 267 1210 301 1210 343 c 0
 1210 360 1209 380 1205 404 c 2
 1154 733 l 1
 1451 778 l 1
 1501 450 l 2
 1506 416 1510 381 1510 343 c 0
EndSplineSet
Colour: ffff
EndChar

StartChar: uniFEB4
Encoding: 65204 65204 117
Width: 1735
VWidth: 2374
Flags: HMW
AnchorPoint: "Anchor-3" 881 0 basechar 0
AnchorPoint: "Anchor-5" 880 594 basechar 0
LayerCount: 2
Back
SplineSet
1731 75 m 16
 1594 75 1500 107 1440 173 c 0
 1397 220 1368 305 1344 461 c 2
 1306 706 l 1
 1344 461 l 2
 1351 419 1353 383 1353 350 c 0
 1353 175 1268 75 1116 75 c 0
 924 75 849.03103855 275.994537215 883 469 c 2
 905 594 l 1
 883 469 l 2
 852.59765625 297.071289062 808 75 620 75 c 0
 452 75 402.770507812 281.970703125 380 463 c 2
 364 594 l 1
 380 463 l 2
 406.340820312 265.447265625 281.860023333 75 0 75 c 1025
EndSplineSet
Fore
SplineSet
1129 226 m 0
 1195 226 1206 276 1206 343 c 0
 1206 479 1179 610 1153 733 c 1
 1451 778 l 1
 1490 518 l 2
 1508 398 1533 298 1578 261 c 0
 1601 243 1644 225 1735 225 c 1
 1735 -75 l 1
 1605 -75 1483 -45 1390 28 c 1
 1323 -37 1231 -75 1128 -75 c 0
 1030 -75 944 -38 880 19 c 1
 815 -40 730 -75 632 -75 c 0
 522 -75 427 -29 362 40 c 1
 274 -36 153 -75 0 -75 c 0
 -83 -75 -150 -8 -150 75 c 0
 -150 158 -83 225 0 225 c 0
 113 225 164 245 190 277 c 0
 218 312 234 385 234 517 c 2
 234 644 l 1
 534 644 l 1
 534 435 l 2
 534 337 544 225 632 225 c 0
 723 225 730 342 730 435 c 2
 730 644 l 1
 1030 644 l 1
 1030 435 l 2
 1030 342 1040 226 1129 226 c 0
EndSplineSet
Colour: ffff
EndChar

StartChar: uniFEBA
Encoding: 65210 65210 118
Width: 2486
VWidth: 1854
Flags: HMW
AnchorPoint: "Anchor-5" 1934 729 basechar 0
AnchorPoint: "Anchor-3" 719 -502 basechar 0
LayerCount: 2
Fore
SplineSet
1600 237 m 1
 1647 229 1694 225 1741 225 c 0
 1979 225 2063 306 2063 367 c 0
 2063 424 2018 474 1934 474 c 0
 1845 474 1725 427 1600 237 c 1
1011 564 m 1
 1291 672 l 1
 1379 444 l 1
 1542 668 1742 774 1934 774 c 0
 2158 774 2363 617 2363 367 c 0
 2363 322 2357 281 2345 244 c 1
 2371 234 2414 225 2486 225 c 1
 2486 -75 l 1
 2347 -75 2232 -45 2145 17 c 1
 2021 -50 1872 -75 1741 -75 c 0
 1646 -75 1547 -62 1455 -37 c 1
 1393 -411 1036 -576 720 -576 c 0
 390 -576 29 -392 29 11 c 0
 29 229 162 465 361 707 c 1
 589 512 l 1
 422 314 329 116 329 11 c 0
 329 -165 471 -276 720 -276 c 0
 980 -276 1164 -150 1164 74 c 0
 1164 132 1152 200 1119 284 c 2
 1011 564 l 1
EndSplineSet
Colour: ffff
EndChar

StartChar: uniFEBB
Encoding: 65211 65211 119
Width: 1612
VWidth: 1854
Flags: HMW
AnchorPoint: "Anchor-5" 1167 769 basechar 0
AnchorPoint: "Anchor-3" 821 0 basechar 0
LayerCount: 2
Fore
SplineSet
0 225 m 0
 113 225 157 250 178 271 c 0
 203 297 232 365 234 502 c 2
 234 644 l 1
 534 644 l 1
 534 422 l 1
 722 693 953 815 1157 815 c 0
 1352 815 1562 682 1562 434 c 0
 1562 70 1106 -75 829 -75 c 0
 653 -75 486 -56 371 40 c 1
 274 -47 138 -75 0 -75 c 0
 -83 -75 -150 -8 -150 75 c 0
 -150 158 -83 225 0 225 c 0
764 226 m 1
 785 225 806 225 829 225 c 0
 1145 225 1262 340 1262 414 c 0
 1262 472 1215 515 1137 515 c 0
 1054 515 914 457 764 226 c 1
EndSplineSet
Colour: ffff
EndChar

StartChar: uniFEBC
Encoding: 65212 65212 120
Width: 1635
VWidth: 1854
Flags: HMW
AnchorPoint: "Anchor-3" 821 0 basechar 0
AnchorPoint: "Anchor-5" 1167 769 basechar 0
LayerCount: 2
Fore
SplineSet
764 226 m 1
 785 225 806 225 829 225 c 0
 1145 225 1262 340 1262 414 c 0
 1262 472 1215 515 1137 515 c 0
 1054 515 914 457 764 226 c 1
0 225 m 0
 113 225 158 250 179 271 c 0
 214 306 234 397 234 517 c 2
 234 644 l 1
 534 644 l 1
 534 422 l 1
 722 693 953 815 1157 815 c 0
 1352 815 1562 682 1562 434 c 0
 1562 362 1542 296 1510 240 c 1
 1538 231 1578 225 1635 225 c 1
 1635 -75 l 1
 1495 -75 1369 -43 1276 31 c 1
 1134 -42 967 -75 829 -75 c 0
 651 -75 486 -55 371 40 c 1
 273 -44 143 -75 0 -75 c 0
 -83 -75 -150 -8 -150 75 c 0
 -150 158 -83 225 0 225 c 0
EndSplineSet
Colour: ffff
EndChar

StartChar: uniFEC2
Encoding: 65218 65218 121
Width: 1538
VWidth: 1854
Flags: HMW
AnchorPoint: "Anchor-3" 768 0 basechar 0
AnchorPoint: "Anchor-5" 1088 764 basechar 0
LayerCount: 2
Back
SplineSet
674 229 m 1
 1151 253 1165 326 1165 401 c 0
 1165 459 1126 515 1040 515 c 0
 960 515 796 444 674 229 c 1
328 225 m 1
 328 1461 l 1
 628 1461 l 1
 628 639 l 1
 771 759 928 815 1060 815 c 0
 1255 815 1465 682 1465 434 c 0
 1465 363 1452 297 1423 237 c 1
 1451 230 1488 225 1538 225 c 1
 1538 -75 l 1
 1404 -75 1281 -49 1185 26 c 1
 1024 -44 797 -75 478 -75 c 2
 55 -75 l 1
 55 225 l 1
 328 225 l 1
EndSplineSet
Fore
SplineSet
674 229 m 1
 1151 253 1165 326 1165 401 c 0
 1165 459 1126 515 1040 515 c 0
 960 515 796 444 674 229 c 1
328 225 m 1
 328 1284 l 1
 628 1284 l 1
 628 579 l 1
 771 739 928 815 1060 815 c 0
 1255 815 1465 682 1465 434 c 0
 1465 363 1452 297 1423 237 c 1
 1451 230 1488 225 1538 225 c 1
 1538 -75 l 1
 1404 -75 1281 -49 1185 26 c 1
 1024 -44 797 -75 478 -75 c 2
 55 -75 l 1
 55 225 l 1
 328 225 l 1
EndSplineSet
Colour: ffff
EndChar

StartChar: uniFEC3
Encoding: 65219 65219 122
Width: 1317
VWidth: 1854
Flags: HMW
AnchorPoint: "Anchor-3" 548 0 basechar 0
AnchorPoint: "Anchor-5" 868 764 basechar 0
LayerCount: 2
Back
SplineSet
454 229 m 1
 931 253 945 326 945 401 c 0
 945 459 906 515 820 515 c 0
 740 515 576 444 454 229 c 1
0 225 m 2
 108 225 l 1
 108 1461 l 1
 408 1461 l 1
 408 639 l 1
 551 759 708 815 840 815 c 0
 1035 815 1245 682 1245 434 c 0
 1245 88 949 -75 258 -75 c 2
 0 -75 l 2
 -83 -75 -150 -8 -150 75 c 0
 -150 158 -83 225 0 225 c 2
EndSplineSet
Fore
SplineSet
454 229 m 1
 931 253 945 326 945 401 c 0
 945 459 906 515 820 515 c 0
 740 515 576 444 454 229 c 1
0 225 m 2
 108 225 l 1
 108 1284 l 1
 408 1284 l 1
 408 579 l 1
 551 739 708 815 840 815 c 0
 1035 815 1245 682 1245 434 c 0
 1245 88 949 -75 258 -75 c 2
 0 -75 l 2
 -83 -75 -150 -8 -150 75 c 0
 -150 158 -83 225 0 225 c 2
EndSplineSet
Colour: ffff
EndChar

StartChar: uniFEC4
Encoding: 65220 65220 123
Width: 1318
VWidth: 1854
Flags: HMW
AnchorPoint: "Anchor-5" 868 764 basechar 0
AnchorPoint: "Anchor-3" 548 0 basechar 0
LayerCount: 2
Back
SplineSet
454 229 m 1
 931 253 945 326 945 401 c 0
 945 459 906 515 820 515 c 0
 740 515 576 444 454 229 c 1
-0 225 m 2
 108 226 l 1
 108 1461 l 1
 408 1461 l 1
 408 639 l 1
 550 758 706 815 840 815 c 0
 1035 815 1245 682 1245 434 c 0
 1245 363 1232 297 1203 237 c 1
 1231 230 1268 225 1318 225 c 1
 1318 -75 l 1
 1184 -75 1061 -49 965 26 c 1
 804 -44 577 -75 258 -75 c 2
 0 -75 l 2
 -83 -75 -150 -8 -150 75 c 0
 -150 158 -83 225 -0 225 c 2
EndSplineSet
Fore
SplineSet
454 229 m 1
 931 253 945 326 945 401 c 0
 945 459 906 515 820 515 c 0
 740 515 576 444 454 229 c 1
-0 225 m 2
 108 226 l 1
 108 1284 l 1
 408 1284 l 1
 408 579 l 1
 550 738 706 815 840 815 c 0
 1035 815 1245 682 1245 434 c 0
 1245 363 1232 297 1203 237 c 1
 1231 230 1268 225 1318 225 c 1
 1318 -75 l 1
 1184 -75 1061 -49 965 26 c 1
 804 -44 577 -75 258 -75 c 2
 0 -75 l 2
 -83 -75 -150 -8 -150 75 c 0
 -150 158 -83 225 -0 225 c 2
EndSplineSet
Colour: ffff
EndChar

StartChar: uniFECA
Encoding: 65226 65226 124
Width: 1144
VWidth: 2374
Flags: HMW
AnchorPoint: "Anchor-5" 596 761 basechar 0
AnchorPoint: "Anchor-3" 714 -736 basechar 0
LayerCount: 2
Fore
SplineSet
772 481 m 0
 772 524 693 543 610 543 c 0
 542 543 471 530 437 506 c 1
 503 447 572 401 646 354 c 1
 739 405 772 447 772 481 c 0
1072 475 m 0
 1072 369 1019 303 965 238 c 1
 1021 229 1079 225 1144 225 c 1
 1144 -75 l 1
 948 -75 778 -44 637 19 c 1
 445 -69 315 -174 315 -304 c 0
 315 -454 518 -515 719 -515 c 0
 864 -515 1007 -480 1074 -437 c 1
 1180 -717 l 1
 1047 -776 872 -812 700 -812 c 0
 347 -812 15 -668 15 -308 c 0
 15 -57 179 103 340 203 c 1
 237 286 158 365 76 449 c 1
 84 658 l 1
 217 759 381 837 594 837 c 0
 806 837 1072 729 1072 475 c 0
EndSplineSet
Colour: ffff
EndChar

StartChar: uniFECB
Encoding: 65227 65227 125
Width: 1083
VWidth: 1854
Flags: HMW
AnchorPoint: "Anchor-3" 468 0 basechar 0
AnchorPoint: "Anchor-5" 527 843 basechar 0
LayerCount: 2
Fore
SplineSet
353 411 m 0
 353 332 433 293 530 293 c 0
 554 293 580 295 605 300 c 2
 951 367 l 1
 1007 71 l 1
 466 -32 l 2
 322 -59 166 -75 0 -75 c 0
 -84 -75 -149 -6 -149 75 c 0
 -149 156 -84 225 0 225 c 0
 34 225 68 226 100 227 c 1
 70 283 53 343 53 411 c 0
 53 690 258 918 527 918 c 0
 741 918 880 800 968 679 c 1
 733 485 l 1
 691 551 640 618 527 618 c 0
 423 618 353 530 353 411 c 0
EndSplineSet
Colour: ffff
EndChar

StartChar: uniFECC
Encoding: 65228 65228 126
Width: 996
VWidth: 1853
Flags: HMW
AnchorPoint: "Anchor-5" 519 762 basechar 0
AnchorPoint: "Anchor-3" 488 0 basechar 0
LayerCount: 2
Fore
SplineSet
-12 604 m 1
 108 754 301 836 519 836 c 0
 713 836 982 727 982 439 c 0
 982 359 955 287 914 228 c 1
 940 226 967 225 996 225 c 1
 996 -75 l 1
 835 -75 688 -44 565 4 c 1
 399 -50 202 -75 0 -75 c 0
 -83 -75 -150 -8 -150 75 c 0
 -150 158 -83 225 0 225 c 0
 62 225 126 228 184 233 c 1
 -12 409 l 1
 -12 604 l 1
332 500 m 1
 409 434 488 376 573 330 c 1
 653 375 682 420 682 439 c 0
 682 487 643 536 519 536 c 0
 456 536 384 521 332 500 c 1
EndSplineSet
Colour: ffff
EndChar

StartChar: uniFEDB
Encoding: 65243 65243 127
Width: 999
VWidth: 1854
Flags: HMW
AnchorPoint: "Anchor-5" 455 1258 basechar 0
AnchorPoint: "Anchor-3" 355 0 basechar 0
LayerCount: 2
Fore
SplineSet
0 225 m 2
 92 225 l 2
 387 225 394 253 394 298 c 0
 394 395 143 684 -55 832 c 1
 -55 1076 l 1
 220 1255 532 1384 868 1453 c 1
 928 1159 l 1
 705 1113 491 1042 295 937 c 1
 486 770 694 535 694 298 c 0
 694 -71 306 -75 92 -75 c 2
 0 -75 l 2
 -83 -75 -150 -8 -150 75 c 0
 -150 158 -83 225 0 225 c 2
EndSplineSet
MultipleSubs2: "Multiple substitution 0 subtable" uniFEDB uniE000 uniE000
Colour: ffff
EndChar

StartChar: uniFEDC
Encoding: 65244 65244 128
Width: 900
VWidth: 1854
Flags: HMW
AnchorPoint: "Anchor-5" 455 1258 basechar 0
AnchorPoint: "Anchor-3" 355 0 basechar 0
LayerCount: 2
Fore
SplineSet
0 225 m 2
 92 225 l 2
 387 225 394 253 394 298 c 0
 394 395 143 684 -55 832 c 1
 -55 1076 l 1
 219 1255 532 1385 868 1453 c 1
 928 1159 l 1
 705 1113 491 1042 295 937 c 1
 461 792 634 600 682 399 c 1
 723 260 742 225 900 225 c 1
 900 -75 l 1
 759 -75 653 -35 575 29 c 1
 442 -75 243 -75 96 -75 c 2
 0 -75 l 2
 -83 -75 -150 -8 -150 75 c 0
 -150 158 -83 225 0 225 c 2
EndSplineSet
MultipleSubs2: "Multiple substitution 0 subtable" uniFEDC uniE000 uniE000
Colour: ffff
EndChar

StartChar: uniFEDE
Encoding: 65246 65246 129
Width: 1549
VWidth: 1854
Flags: HMW
AnchorPoint: "Anchor-3" 663 -502 basechar 0
AnchorPoint: "Anchor-5" 631 712 basechar 0
LayerCount: 2
Fore
SplineSet
1017 1284 m 1
 1317 1284 l 1
 1317 517 l 2
 1317 381 1342 306 1364 278 c 0
 1385 252 1423 225 1549 225 c 1
 1549 -75 l 1
 1460 -75 1376 -63 1303 -34 c 1
 1236 -400 945 -578 663 -578 c 0
 365 -578 28 -377 28 -5 c 0
 28 172 105 385 215 578 c 1
 476 431 l 1
 390 277 328 100 328 -5 c 0
 328 -161 473 -278 663 -278 c 0
 842 -278 1017 -179 1017 126 c 2
 1017 1284 l 1
EndSplineSet
Colour: ffff
EndChar

StartChar: uniFEDF
Encoding: 65247 65247 130
Width: 596
VWidth: 1854
Flags: HMW
AnchorPoint: "Anchor-5" 346 1211 basechar 0
AnchorPoint: "Anchor-3" 242 0 basechar 0
LayerCount: 2
Fore
SplineSet
496 391 m 2
 496 243 453 129 374 51 c 0
 289 -32 162 -75 0 -75 c 0
 -83 -75 -150 -8 -150 75 c 0
 -150 158 -83 225 0 225 c 0
 92 225 142 232 168 261 c 0
 190 286 196 326 196 391 c 2
 196 1286 l 1
 496 1286 l 1
 496 391 l 2
EndSplineSet
Colour: ffff
EndChar

StartChar: uniFEE0
Encoding: 65248 65248 131
Width: 692
VWidth: 1854
Flags: HMW
AnchorPoint: "Anchor-3" 346 0 basechar 0
AnchorPoint: "Anchor-5" 346 1211 basechar 0
LayerCount: 2
Fore
SplineSet
0 225 m 0
 106 225 139 249 155 267 c 0
 182 302 196 373 196 474 c 2
 196 1284 l 1
 496 1284 l 1
 496 474 l 2
 496 372 511 301 538 267 c 0
 553 250 585 225 692 225 c 1
 692 -75 l 1
 559 -75 437 -44 346 35 c 1
 253 -47 133 -75 0 -75 c 0
 -83 -75 -150 -8 -150 75 c 0
 -150 158 -83 225 0 225 c 0
EndSplineSet
Colour: ffff
EndChar

StartChar: uniFEE2
Encoding: 65250 65250 132
Width: 1329
VWidth: 2374
Flags: HMW
AnchorPoint: "Anchor-3" 668 -50 basechar 0
AnchorPoint: "Anchor-5" 750 696 basechar 0
LayerCount: 2
Fore
SplineSet
1329 -75 m 1
 1225 -75 1128 -49 1045 10 c 1
 971 -52 879 -74 793 -74 c 0
 680 -74 569 -43 486 -10 c 0
 461 0 435 10 401 10 c 0
 363 10 328 -5 328 -99 c 2
 328 -833 l 1
 28 -833 l 1
 28 -99 l 2
 28 81 129 251 307 298 c 1
 341 486 451 771 760 771 c 0
 1007 771 1143 559 1166 367 c 0
 1183 243 1210 225 1329 225 c 1
 1329 -75 l 1
606 266 m 1
 676 243 738 225 793 225 c 0
 849 225 869 251 869 302 c 0
 869 421 806 471 760 471 c 0
 695 471 634 402 606 266 c 1
EndSplineSet
Colour: ffff
EndChar

StartChar: uniFEE3
Encoding: 65251 65251 133
Width: 1046
VWidth: 1854
Flags: HMW
AnchorPoint: "Anchor-5" 590 744 basechar 0
AnchorPoint: "Anchor-3" 619 0 basechar 0
LayerCount: 2
Back
SplineSet
291 298 m 5
 346 193 516 75 648 75 c 4
 764 75 868 185 868 322 c 4
 868 474 762 641 605 641 c 4
 466 641 375 534 321.87890625 388.64453125 c 4
 249.257847744 189.931228208 183 75 0 75 c 1029
EndSplineSet
Fore
SplineSet
0 225 m 0
 78 225 87 232 133 325 c 0
 148 356 165 395 181 440 c 0
 242 608 373 791 605 791 c 0
 880 791 1018 523 1018 322 c 0
 1018 115 861 -75 648 -75 c 0
 521 -75 402 -15 312 55 c 1
 234 -27 127 -75 0 -75 c 0
 -83 -75 -150 -8 -150 75 c 0
 -150 158 -83 225 0 225 c 0
458 324 m 1
 513 270 611 225 648 225 c 0
 666 225 718 257 718 322 c 0
 718 423 643 491 605 491 c 0
 558 491 509 461 463 336 c 1
 458 324 l 1
EndSplineSet
Colour: ffff
EndChar

StartChar: uniFEE4
Encoding: 65252 65252 134
Width: 1238
VWidth: 1854
Flags: HMW
AnchorPoint: "Anchor-5" 590 744 basechar 0
AnchorPoint: "Anchor-3" 619 0 basechar 0
LayerCount: 2
Fore
SplineSet
0 225 m 0
 78 225 87 232 133 325 c 0
 148 356 165 395 181 440 c 0
 242 608 373 791 605 791 c 0
 856 791 993 566 1015 377 c 0
 1021 329 1037 297 1053 278 c 0
 1073 253 1112 225 1238 225 c 1
 1238 -75 l 1
 1106 -75 984 -48 890 22 c 1
 826 -38 742 -75 648 -75 c 0
 521 -75 402 -15 312 55 c 1
 234 -27 127 -75 0 -75 c 0
 -83 -75 -150 -8 -150 75 c 0
 -150 158 -83 225 0 225 c 0
458 324 m 1
 513 270 611 225 648 225 c 0
 666 225 718 257 718 322 c 0
 718 423 643 491 605 491 c 0
 558 491 509 461 463 336 c 1
 458 324 l 1
EndSplineSet
Colour: ffff
EndChar

StartChar: uniFEEA
Encoding: 65258 65258 135
Width: 1041
VWidth: 2374
Flags: HMW
AnchorPoint: "Anchor-5" 493 1003 basechar 0
AnchorPoint: "Anchor-3" 513 0 basechar 0
LayerCount: 2
Fore
SplineSet
535 646 m 1
 384 600 330 525 330 497 c 0
 330 469 343 430 477 430 c 0
 499 430 520 432 547 439 c 1
 535 646 l 1
1041 -75 m 1
 858 -75 686 -9 611 142 c 1
 564 134 519 130 477 130 c 0
 295 130 30 218 30 497 c 0
 30 771 291 901 516 952 c 1
 510 1054 l 1
 810 1072 l 1
 845 483 l 2
 853 350 873 285 887 267 c 0
 902 250 934 225 1041 225 c 1
 1041 -75 l 1
EndSplineSet
Colour: ffff
EndChar

StartChar: uniFEEB
Encoding: 65259 65259 136
Width: 1293
VWidth: 1854
Flags: HMW
AnchorPoint: "Anchor-5" 578 952 basechar 0
AnchorPoint: "Anchor-3" 678 28 basechar 0
LayerCount: 2
Fore
SplineSet
484 312 m 1
 541 337 592 432 592 508 c 0
 592 562 566 606 499 606 c 0
 436 606 347 547 347 461 c 0
 347 416 394 362 484 312 c 1
751 239 m 1
 794 230 833 225 864 225 c 0
 929 225 965 248 965 310 c 0
 965 352 934 422 820 484 c 1
 816 401 791 303 751 239 c 1
0 225 m 0
 42 225 85 226 122 229 c 1
 77 293 47 372 47 461 c 0
 47 614 124 733 218 806 c 1
 172 847 140 882 104 923 c 1
 327 1125 l 1
 411 1028 521 923 690 863 c 0
 908 785 1265 648 1265 310 c 0
 1265 102 1111 -75 854 -75 c 0
 756 -75 593 -48 473 -7 c 1
 333 -55 172 -75 0 -75 c 0
 -83 -75 -150 -8 -150 75 c 0
 -150 158 -83 225 0 225 c 0
EndSplineSet
Colour: ffff
EndChar

StartChar: uniFEEC
Encoding: 65260 65260 137
Width: 986
VWidth: 1854
Flags: HMW
AnchorPoint: "Anchor-5" 494 782 basechar 0
AnchorPoint: "Anchor-3" 494 -538 basechar 0
LayerCount: 2
Fore
SplineSet
386 267 m 1
 506 298 608 347 608 463 c 0
 608 505 592 542 544 542 c 0
 491 542 413 492 386 267 c 1
986 225 m 1
 986 -75 l 1
 882 -75 820 -119 820 -213 c 2
 820 -457 l 1
 712 -577 l 1
 656 -577 l 2
 380 -577 192 -337 124 -75 c 1
 0 -75 l 2
 -83 -75 -150 -8 -150 75 c 0
 -150 158 -83 225 0 225 c 2
 101 225 l 1
 122 532 225 842 544 842 c 0
 758 842 885 715 885 515 c 0
 885 247 590 0 405 -36 c 1
 437 -127 502 -208 572 -254 c 1
 572 -69 768 225 986 225 c 1
EndSplineSet
Colour: ffff
EndChar

StartChar: zero
Encoding: 48 48 139
Width: 1319
VWidth: 1816
Flags: HMW
LayerCount: 2
Fore
SplineSet
660 -92 m 0
 168 -92 100 434 100 706 c 0
 100 978 168 1504 660 1504 c 0
 1152 1504 1219 978 1219 706 c 0
 1219 434 1152 -92 660 -92 c 0
660 162 m 0
 831 162 919 402 919 706 c 0
 919 1010 831 1248 660 1248 c 0
 489 1248 400 1009 400 706 c 0
 400 403 489 162 660 162 c 0
EndSplineSet
Colour: ffff00
EndChar

StartChar: one
Encoding: 49 49 140
Width: 783
VWidth: 1819
Flags: HMW
LayerCount: 2
Fore
SplineSet
104 1003 m 1
 100 1237 l 1
 323 1238 l 2
 377 1238 384 1246 384 1309 c 2
 383 1484 l 1
 683 1484 l 1
 683 -72 l 1
 383 -72 l 1
 383 1016 l 1
 300 1004 201 1003 104 1003 c 1
EndSplineSet
Colour: ffff00
EndChar

StartChar: two
Encoding: 50 50 141
Width: 1281
VWidth: 1816
Flags: HMW
LayerCount: 2
Fore
SplineSet
1181 182 m 1
 1181 -72 l 1
 100 -72 l 1
 100 221 l 1
 705 678 l 2
 827 767 881 860 881 980 c 0
 881 1164 763 1248 641 1248 c 0
 490 1248 401 1142 401 930 c 1
 101 930 l 1
 101 1300 340 1504 641 1504 c 0
 911 1504 1181 1317 1181 980 c 0
 1181 767 1067 591 891 463 c 2
 509 182 l 1
 1181 182 l 1
EndSplineSet
Colour: ffff00
EndChar

StartChar: three
Encoding: 51 51 142
Width: 1299
VWidth: 1816
Flags: HMW
LayerCount: 2
Fore
SplineSet
459 1017 m 1
 159 1017 l 1
 159 1358 400 1504 661 1504 c 0
 894 1504 1160 1358 1160 1058 c 0
 1160 948 1116 828 1042 756 c 1
 1140 671 1199 527 1199 376 c 0
 1199 34 883 -92 648 -92 c 0
 363 -92 100 72 100 438 c 1
 400 438 l 1
 400 259 473 162 648 162 c 0
 798 162 899 235 899 376 c 0
 899 540 799 633 639 633 c 2
 516 633 l 1
 516 868 l 1
 639 868 l 2
 799 868 860 969 860 1058 c 0
 860 1179 778 1249 661 1249 c 0
 505 1249 459 1169 459 1017 c 1
EndSplineSet
Colour: ffff00
EndChar

StartChar: four
Encoding: 52 52 143
Width: 1347
VWidth: 1816
Flags: HMW
LayerCount: 2
Fore
SplineSet
784 510 m 1
 784 1034.84960938 l 1
 425.19921875 510 l 1
 784 510 l 1
1247 510 m 1
 1247 274 l 1
 1084 274 l 1
 1084 -72 l 1
 784 -72 l 1
 784 274 l 1
 100 274 l 1
 100 461 l 1
 804 1484 l 1
 1084 1484 l 1
 1084 510 l 1
 1247 510 l 1
EndSplineSet
Colour: ffff00
EndChar

StartChar: five
Encoding: 53 53 144
Width: 1267
VWidth: 1816
Flags: HMW
LayerCount: 2
Fore
SplineSet
100 381 m 1
 400 381 l 1
 400 246 438 162 598 162 c 0
 787 162 867 242 867 481 c 0
 867 695 778 820 598 820 c 0
 510 820 376 756 298 678 c 1
 112 771 l 1
 181 1484 l 1
 1142 1484 l 1
 1142 1228 l 1
 455 1228 l 1
 441 1036 l 1
 494 1049 546 1054 598 1054 c 0
 964 1054 1167 797 1167 481 c 0
 1167 135 956 -92 598 -92 c 0
 261 -92 100 116 100 381 c 1
EndSplineSet
Colour: ffff00
EndChar

StartChar: six
Encoding: 54 54 145
Width: 1295
VWidth: 1816
Flags: HMW
LayerCount: 2
Fore
SplineSet
664 718 m 0
 591 718 493 696 399 644 c 1
 413 328 482 162 663 162 c 0
 803 162 895 292 895 416 c 0
 895 607 786 718 664 718 c 0
100 689 m 0
 100 1132 301 1504 693 1504 c 0
 899 1504 1055 1419 1190 1300 c 1
 1045 1136 l 1
 955 1218 845.380859375 1248.97070312 747.206054688 1248.97070312 c 0
 598.032226562 1248.97070312 458.137758752 1123.39543189 425 908 c 1
 504 938 584 954 664 954 c 0
 963 954 1195 734 1195 416 c 0
 1195 176 1005 -92 663 -92 c 0
 158 -92 100 400 100 689 c 0
EndSplineSet
Colour: ffff00
EndChar

StartChar: seven
Encoding: 55 55 146
Width: 1229
VWidth: 1816
Flags: HMW
LayerCount: 2
Fore
SplineSet
100 1228 m 1
 100 1484 l 1
 1059 1484 l 1
 1129 1292 l 1
 504 -94 l 1
 223 3 l 1
 787 1228 l 1
 100 1228 l 1
EndSplineSet
Colour: ffff00
EndChar

StartChar: eight
Encoding: 56 56 147
Width: 1257
VWidth: 1816
Flags: HMW
LayerCount: 2
Fore
SplineSet
793 1084 m 0
 793 1162 756 1248 629 1248 c 0
 502 1248 464 1161 464 1084 c 0
 464 953 493 902 628 902 c 0
 763 902 793 954 793 1084 c 0
400 366 m 0
 400 255 464 162 629 162 c 0
 794 162 857 254 857 366 c 0
 857 508 744 628 628 628 c 0
 506 628 400 513 400 366 c 0
952 766 m 1
 1062 680 1157 515 1157 366 c 0
 1157 102 936 -92 629 -92 c 0
 323 -92 100 101 100 366 c 0
 100 515 195 681 304 767 c 1
 229 837 164 968 164 1084 c 0
 164 1278 316 1504 629 1504 c 0
 942 1504 1093 1277 1093 1084 c 0
 1093 967 1028 835 952 766 c 1
EndSplineSet
Colour: ffff00
EndChar

StartChar: nine
Encoding: 57 57 148
Width: 1295
VWidth: 1816
Flags: HMW
LayerCount: 2
Fore
SplineSet
631 694 m 0
 704 694 802 716 896 768 c 1
 882 1084 813 1250 632 1250 c 0
 492 1250 400 1120 400 996 c 0
 400 805 509 694 631 694 c 0
1195 723 m 0
 1195 280 994 -92 602 -92 c 0
 396 -92 240 -7 105 112 c 1
 250 276 l 1
 340 194 449.619140625 163.029296875 547.793945312 163.029296875 c 0
 696.967773438 163.029296875 836.862304688 288.604492188 870 504 c 1
 791 474 711 458 631 458 c 0
 332 458 100 678 100 996 c 0
 100 1236 290 1504 632 1504 c 0
 1137 1504 1195 1012 1195 723 c 0
EndSplineSet
Colour: ffff00
EndChar

StartChar: uni0622
Encoding: 1570 1570 149
Width: 560
VWidth: 1854
Flags: HMW
AnchorPoint: "Anchor-5" 280 1472 basechar 0
AnchorPoint: "Anchor-3" 280 0 basechar 0
LayerCount: 2
Fore
SplineSet
741 1436 m 1
 649 1326 561 1260 427 1260 c 0
 360 1260 298 1280 246 1299 c 0
 197 1317 151 1328 134 1328 c 0
 91 1328 74 1307 5 1217 c 1
 -181 1367 l 1
 -100 1467 -15 1558 134 1558 c 0
 201 1558 261 1538 314 1519 c 0
 362 1502 410 1490 427 1490 c 0
 478 1490 493 1508 557 1590 c 1
 741 1436 l 1
430 -50 m 1
 130 -50 l 1
 130 1161 l 1
 430 1161 l 1
 430 -50 l 1
EndSplineSet
PairPos2: "'kern' Horizontal Kerning in Arabic lookup 2 per glyph data 5" uniE012 dx=100 dy=0 dh=100 dv=0 dx=0 dy=0 dh=0 dv=0
PairPos2: "'kern' Horizontal Kerning in Arabic lookup 2 per glyph data 5" uniFB6C dx=150 dy=0 dh=150 dv=0 dx=0 dy=0 dh=0 dv=0
PairPos2: "'kern' Horizontal Kerning in Arabic lookup 2 per glyph data 5" uni06B5 dx=100 dy=0 dh=100 dv=0 dx=0 dy=0 dh=0 dv=0
PairPos2: "'kern' Horizontal Kerning in Arabic lookup 2 per glyph data 5" uniE015 dx=100 dy=0 dh=100 dv=0 dx=0 dy=0 dh=0 dv=0
PairPos2: "'kern' Horizontal Kerning in Arabic lookup 2 per glyph data 5" uniE017 dx=100 dy=0 dh=100 dv=0 dx=0 dy=0 dh=0 dv=0
PairPos2: "'kern' Horizontal Kerning in Arabic lookup 2 per glyph data 1" uni0639 dx=-225 dy=0 dh=-225 dv=0 dx=0 dy=0 dh=0 dv=0
PairPos2: "'kern' Horizontal Kerning in Arabic lookup 2 per glyph data 1" uni063A dx=-225 dy=0 dh=-225 dv=0 dx=0 dy=0 dh=0 dv=0
PairPos2: "'kern' Horizontal Kerning in Arabic lookup 2 per glyph data 0" uniFEF5 dx=100 dy=0 dh=100 dv=0 dx=0 dy=0 dh=0 dv=0
PairPos2: "'kern' Horizontal Kerning in Arabic lookup 2 per glyph data 0" uniFEF7 dx=100 dy=0 dh=100 dv=0 dx=0 dy=0 dh=0 dv=0
PairPos2: "'kern' Horizontal Kerning in Arabic lookup 2 per glyph data 0" uniFEF9 dx=100 dy=0 dh=100 dv=0 dx=0 dy=0 dh=0 dv=0
PairPos2: "'kern' Horizontal Kerning in Arabic lookup 2 per glyph data 0" uniFEFB dx=100 dy=0 dh=100 dv=0 dx=0 dy=0 dh=0 dv=0
PairPos2: "'kern' Horizontal Kerning in Arabic lookup 2 per glyph data 0" uniFEDF dx=100 dy=0 dh=100 dv=0 dx=0 dy=0 dh=0 dv=0
PairPos2: "'kern' Horizontal Kerning in Arabic lookup 2 per glyph data 0" uni0644 dx=100 dy=0 dh=100 dv=0 dx=0 dy=0 dh=0 dv=0
PairPos2: "'kern' Horizontal Kerning in Arabic lookup 2 per glyph data 0" uniFE8B dx=100 dy=0 dh=100 dv=0 dx=0 dy=0 dh=0 dv=0
PairPos2: "'kern' Horizontal Kerning in Arabic lookup 2 per glyph data 0" uni0625 dx=200 dy=0 dh=200 dv=0 dx=0 dy=0 dh=0 dv=0
PairPos2: "'kern' Horizontal Kerning in Arabic lookup 2 per glyph data 0" uni0623 dx=200 dy=0 dh=200 dv=0 dx=0 dy=0 dh=0 dv=0
PairPos2: "'kern' Horizontal Kerning in Arabic lookup 2 per glyph data 0" uni0627 dx=200 dy=0 dh=200 dv=0 dx=0 dy=0 dh=0 dv=0
PairPos2: "'kern' Horizontal Kerning in Arabic lookup 2 per glyph data 0" uni0622 dx=400 dy=0 dh=400 dv=0 dx=0 dy=0 dh=0 dv=0
PairPos2: "'kern' Horizontal Kerning in Arabic lookup 2 per glyph data 0" uni063A dx=-200 dy=0 dh=-200 dv=0 dx=0 dy=0 dh=0 dv=0
PairPos2: "'kern' Horizontal Kerning in Arabic lookup 2 per glyph data 0" uni0639 dx=-200 dy=0 dh=-200 dv=0 dx=0 dy=0 dh=0 dv=0
PairPos2: "'kern' Horizontal Kerning in Arabic lookup 2 per glyph data 0" uniFE97 dx=150 dy=0 dh=150 dv=0 dx=0 dy=0 dh=0 dv=0
PairPos2: "'kern' Horizontal Kerning in Arabic lookup 2 per glyph data 0" uniFE9B dx=150 dy=0 dh=150 dv=0 dx=0 dy=0 dh=0 dv=0
PairPos2: "'kern' Horizontal Kerning in Arabic lookup 2 per glyph data 0" uniFED3 dx=150 dy=0 dh=150 dv=0 dx=0 dy=0 dh=0 dv=0
PairPos2: "'kern' Horizontal Kerning in Arabic lookup 2 per glyph data 0" uniFED7 dx=150 dy=0 dh=150 dv=0 dx=0 dy=0 dh=0 dv=0
PairPos2: "'kern' Horizontal Kerning in Arabic lookup 2 per glyph data 0" uniFB90 dx=200 dy=0 dh=200 dv=0 dx=0 dy=0 dh=0 dv=0
PairPos2: "'kern' Horizontal Kerning in Arabic lookup 2 per glyph data 0" uniFB94 dx=200 dy=0 dh=200 dv=0 dx=0 dy=0 dh=0 dv=0
PairPos2: "'kern' Horizontal Kerning in Arabic lookup 2 per glyph data 0" uniFEDB dx=200 dy=0 dh=200 dv=0 dx=0 dy=0 dh=0 dv=0
PairPos2: "'kern' Horizontal Kerning in Arabic lookup 2 per glyph data 0" uni06A9 dx=200 dy=0 dh=200 dv=0 dx=0 dy=0 dh=0 dv=0
PairPos2: "'kern' Horizontal Kerning in Arabic lookup 2 per glyph data 0" uni06AF dx=200 dy=0 dh=200 dv=0 dx=0 dy=0 dh=0 dv=0
LCarets2: 1 0
Ligature2: "'liga' Standard Ligatures in Arabic lookup 9 subtable" uni0627 uni0653
Substitution2: "'fina' Terminal Forms in Arabic lookup 2 subtable" uniFE82
Colour: ffff
EndChar

StartChar: uni0643
Encoding: 1603 1603 168
Width: 1585
VWidth: 1854
Flags: HMW
AnchorPoint: "Anchor-5" 810 971 basechar 0
AnchorPoint: "Anchor-3" 868 0 basechar 0
LayerCount: 2
Fore
SplineSet
1215 1284 m 1
 1515 1284 l 1
 1515 517 l 2
 1515 354 1494 202 1397 84 c 0
 1270 -70 1079 -75 907 -75 c 0
 894 -75 881 -75 868 -75 c 0
 496 -75 28 -41 28 400 c 0
 28 510 52 621 75 713 c 1
 366 644 l 1
 351 575 328 469 328 400 c 0
 328 286 424 225 868 225 c 0
 1071 225 1144 249 1166 276 c 0
 1190 305 1215 378 1215 517 c 2
 1215 1284 l 1
EndSplineSet
Refer: 25 1620 N 1 0 0 1 811 -892 2
Substitution2: "'init' Initial Forms in Arabic lookup 4 subtable" uniFEDB
Substitution2: "'medi' Medial Forms in Arabic lookup 3 subtable" uniFEDC
Substitution2: "'fina' Terminal Forms in Arabic lookup 2 subtable" uniFEDA
Colour: ffff
EndChar

StartChar: uniFEEE
Encoding: 65262 65262 194
Width: 898
VWidth: 1854
Flags: HMW
AnchorPoint: "Anchor-3" 412 -502 basechar 0
AnchorPoint: "Anchor-5" 440 726 basechar 0
LayerCount: 2
Fore
SplineSet
562 226 m 1
 537 423 490 501 440 501 c 0
 386 501 332 430 332 304 c 0
 332 249 347 225 458 225 c 2
 562 226 l 1
846 -75 m 1
 761 -365 478 -500 112 -599 c 1
 37 -308 l 1
 278 -249 448 -160 514 -75 c 1
 458 -75 l 2
 260 -75 32 29 32 304 c 0
 32 522 175 801 440 801 c 0
 781 801 847 411 864 225 c 1
 898 225 l 1
 898 -75 l 1
 846 -75 l 1
EndSplineSet
PairPos2: "'kern' Horizontal Kerning in Arabic lookup 2 per glyph data 3" uni06A9 dx=-200 dy=0 dh=-200 dv=0 dx=0 dy=0 dh=0 dv=0
PairPos2: "'kern' Horizontal Kerning in Arabic lookup 2 per glyph data 3" uni06AF dx=-200 dy=0 dh=-200 dv=0 dx=0 dy=0 dh=0 dv=0
PairPos2: "'kern' Horizontal Kerning in Arabic lookup 2 per glyph data 3" uniFB90 dx=-200 dy=0 dh=-200 dv=0 dx=0 dy=0 dh=0 dv=0
PairPos2: "'kern' Horizontal Kerning in Arabic lookup 2 per glyph data 3" uniFB94 dx=-200 dy=0 dh=-200 dv=0 dx=0 dy=0 dh=0 dv=0
PairPos2: "'kern' Horizontal Kerning in Arabic lookup 2 per glyph data 3" uniFEDB dx=-200 dy=0 dh=-200 dv=0 dx=0 dy=0 dh=0 dv=0
PairPos2: "'kern' Horizontal Kerning in Arabic lookup 2 per glyph data 1" uni0639 dx=-100 dy=0 dh=-100 dv=0 dx=0 dy=0 dh=0 dv=0
PairPos2: "'kern' Horizontal Kerning in Arabic lookup 2 per glyph data 1" uni063A dx=-100 dy=0 dh=-100 dv=0 dx=0 dy=0 dh=0 dv=0
Colour: ffff
EndChar

StartChar: uniFEDA
Encoding: 65242 65242 231
Width: 1748
VWidth: 1854
Flags: HMW
AnchorPoint: "Anchor-5" 809 971 basechar 0
AnchorPoint: "Anchor-3" 868 0 basechar 0
LayerCount: 2
Fore
SplineSet
1366 52 m 1
 1236 -71 1058 -75 894 -75 c 2
 868 -75 l 2
 496 -75 28 -41 28 400 c 0
 28 510 52 621 75 713 c 1
 366 644 l 1
 351 575 328 469 328 400 c 0
 328 286 424 225 868 225 c 0
 1070 225 1143 250 1165 276 c 0
 1198 315 1215 403 1215 517 c 2
 1215 1261 l 1
 1515 1261 l 1
 1515 517 l 2
 1515 404 1531 318 1564 278 c 0
 1585 252 1621 225 1748 225 c 1
 1748 -75 l 1
 1599 -75 1463 -40 1366 52 c 1
EndSplineSet
Refer: 25 1620 N 1 0 0 1 824 -892 2
Colour: ffff
EndChar

StartChar: uniFB8F
Encoding: 64399 64399 238
Width: 1744
VWidth: 1854
Flags: HMW
AnchorPoint: "Anchor-3" 868 0 basechar 0
AnchorPoint: "Anchor-5" 1304 1258 basechar 0
LayerCount: 2
Fore
SplineSet
1717 1453 m 1
 1777 1159 l 1
 1554 1113 1340 1042 1144 937 c 1
 1308 793 1480 603 1529 405 c 1
 1575 256 1585 225 1744 225 c 1
 1744 -75 l 1
 1601 -75 1495 -33 1418 32 c 1
 1283 -70 1079 -75 934 -75 c 2
 891 -75 l 2
 522 -75 29 -45 29 400 c 0
 29 552 71 668 111 773 c 1
 395 680 l 1
 364 594 329 480 329 400 c 0
 329 292 444 225 891 225 c 0
 1197 225 1243 261 1243 298 c 0
 1243 395 992 684 794 832 c 1
 794 1076 l 1
 1068 1255 1381 1385 1717 1453 c 1
EndSplineSet
Colour: ffff
EndChar

StartChar: exclam
Encoding: 33 33 246
Width: 613
VWidth: 1647
Flags: HMW
LayerCount: 2
Fore
SplineSet
456 341 m 1
 156 341 l 1
 156 1484 l 1
 456 1484 l 1
 456 341 l 1
EndSplineSet
Refer: 0 46 S 1 0 0 1 80 0 2
Colour: ffff
EndChar

StartChar: uni066B
Encoding: 1643 1643 247
Width: 787
VWidth: 1854
Flags: HMW
LayerCount: 2
Fore
SplineSet
295 -368 m 1
 16 -260 l 1
 501 978 l 1
 780 870 l 1
 295 -368 l 1
EndSplineSet
PairPos2: "'kern' Horizontal Kerning in Arabic lookup 3 per glyph data 1" uni06F7 dx=-100 dy=0 dh=-100 dv=0 dx=0 dy=0 dh=0 dv=0
PairPos2: "'kern' Horizontal Kerning in Arabic lookup 3 per glyph data 1" uni06F0 dx=-50 dy=0 dh=-50 dv=0 dx=0 dy=0 dh=0 dv=0
PairPos2: "'kern' Horizontal Kerning in Arabic lookup 3 per glyph data 1" uni06F3 dx=-75 dy=0 dh=-75 dv=0 dx=0 dy=0 dh=0 dv=0
PairPos2: "'kern' Horizontal Kerning in Arabic lookup 3 per glyph data 1" uni06F2 dx=-100 dy=0 dh=-100 dv=0 dx=0 dy=0 dh=0 dv=0
PairPos2: "'kern' Horizontal Kerning in Arabic lookup 3 per glyph data 1" uni066B dx=-50 dy=0 dh=-50 dv=0 dx=0 dy=0 dh=0 dv=0
PairPos2: "'kern' Horizontal Kerning in Arabic lookup 3 per glyph data 0" uni0663 dx=-150 dy=0 dh=-150 dv=0 dx=0 dy=0 dh=0 dv=0
PairPos2: "'kern' Horizontal Kerning in Arabic lookup 3 per glyph data 0" uni0662 dx=-100 dy=0 dh=-100 dv=0 dx=0 dy=0 dh=0 dv=0
PairPos2: "'kern' Horizontal Kerning in Arabic lookup 3 per glyph data 0" uni0667 dx=-100 dy=0 dh=-100 dv=0 dx=0 dy=0 dh=0 dv=0
Colour: ffff
EndChar

StartChar: uniE000
Encoding: 57344 57344 248
Width: 120
VWidth: 1854
Flags: HMW
LayerCount: 2
Fore
SplineSet
0 225 m 2
 120 225 l 1
 120 -75 l 1
 0 -75 l 2
 -83 -75 -150 -8 -150 75 c 0
 -150 158 -83 225 0 225 c 2
EndSplineSet
Colour: ffff
EndChar

StartChar: uniE001
Encoding: 57345 57345 249
Width: 320
VWidth: 1854
Flags: HMW
LayerCount: 2
Fore
SplineSet
0 225 m 2
 320 225 l 1
 320 -75 l 1
 0 -75 l 2
 -83 -75 -150 -8 -150 75 c 0
 -150 158 -83 225 0 225 c 2
EndSplineSet
Colour: ffff
EndChar

StartChar: uniE002
Encoding: 57346 57346 250
Width: 450
VWidth: 1854
Flags: HMW
LayerCount: 2
Fore
SplineSet
0 225 m 2
 450 225 l 1
 450 -75 l 1
 0 -75 l 2
 -83 -75 -150 -8 -150 75 c 0
 -150 158 -83 225 0 225 c 2
EndSplineSet
Colour: ffff
EndChar

StartChar: simpledot
Encoding: 1114128 -1 251
Width: 2730
VWidth: 2370
Flags: HMW
LayerCount: 2
Fore
SplineSet
1017 132 m 1
 1187 302 l 1
 1357 132 l 1
 1187 -38 l 1
 1017 132 l 1
EndSplineSet
Colour: ff0000
EndChar

StartChar: hyphen
Encoding: 45 45 252
Width: 993
VWidth: 1647
Flags: HMW
LayerCount: 2
Fore
SplineSet
923 628 m 1
 923 392 l 1
 70 392 l 1
 70 628 l 1
 923 628 l 1
EndSplineSet
Colour: ffff00
EndChar

StartChar: numbersign
Encoding: 35 35 254
Width: 1743
VWidth: 1819
Flags: HMW
LayerCount: 2
Fore
SplineSet
508 -82 m 1
 217 -13 l 1
 329 374 l 1
 100 374 l 1
 100 608 l 1
 413 608 l 1
 471 838 l 1
 192 838 l 1
 192 1074 l 1
 555 1074 l 1
 677 1493 l 1
 969 1424 l 1
 867 1074 l 1
 1103 1074 l 1
 1225 1493 l 1
 1517 1424 l 1
 1415 1074 l 1
 1643 1074 l 1
 1643 838 l 1
 1331 838 l 1
 1273 608 l 1
 1551 608 l 1
 1551 374 l 1
 1189 374 l 1
 1056 -82 l 1
 765 -13 l 1
 877 374 l 1
 641 374 l 1
 508 -82 l 1
1019 838 m 1
 783 838 l 1
 725 608 l 1
 961 608 l 1
 1019 838 l 1
EndSplineSet
Colour: ffff00
EndChar

StartChar: ampersand
Encoding: 38 38 257
Width: 1339
VWidth: 1819
Flags: HMW
LayerCount: 2
Fore
SplineSet
572 924 m 1
 694 992 739 1056 739 1133 c 0
 739 1182 708 1248 619 1248 c 0
 529 1248 490 1182 490 1103 c 0
 490 1061 499 1021 531 979 c 2
 572 924 l 1
757 184 m 1
 489 548 l 1
 428 500 400 457 400 376 c 0
 400 263 461 162 620 162 c 0
 665 162 717 170 757 184 c 1
1136 149 m 1
 1239 13 l 1
 983 -133 l 1
 910 -35 l 1
 823 -73 725 -92 620 -92 c 0
 331 -92 100 102 100 376 c 0
 100 564 205 692 319 776 c 1
 286 820 l 1
 220 901 190 1012 190 1103 c 0
 190 1303 345 1504 619 1504 c 0
 871 1504 1039 1327 1039 1133 c 0
 1039 913 875 773 742 696 c 1
 932 423 l 1
 938 460 939 502 939 546 c 1
 1238 546 l 1
 1238 385 1216 264 1136 149 c 1
EndSplineSet
Colour: ffff00
EndChar

StartChar: quotesingle
Encoding: 39 39 258
Width: 400
VWidth: 1819
Flags: HMW
LayerCount: 2
Fore
SplineSet
110 1421 m 1
 290 1421 l 1
 290 886 l 1
 110 886 l 1
 110 1421 l 1
EndSplineSet
Colour: ff00
EndChar

StartChar: plus
Encoding: 43 43 259
Width: 993
VWidth: 1647
Flags: HMW
LayerCount: 2
Fore
SplineSet
923 628 m 1
 923 392 l 1
 626 392 l 1
 626 84 l 1
 366 84 l 1
 366 392 l 1
 70 392 l 1
 70 628 l 1
 366 628 l 1
 366 936 l 1
 626 936 l 1
 626 628 l 1
 923 628 l 1
EndSplineSet
Colour: ffff00
EndChar

StartChar: comma
Encoding: 44 44 260
Width: 502
VWidth: 1854
Flags: HMW
LayerCount: 2
Fore
SplineSet
213 -271 m 1
 146 -219 l 1
 178 -183 270 -76 270 45 c 1
 172 45 120 89 120 179 c 0
 120 254 175 305 242 305 c 0
 328 305 382 248 382 134 c 0
 382 -57 286 -182 213 -271 c 1
EndSplineSet
EndChar

StartChar: question
Encoding: 63 63 262
Width: 1067
VWidth: 1854
Flags: HMW
LayerCount: 2
Fore
SplineSet
361 917 m 1
 64 881 l 1
 58 923 50 982 50 1024 c 0
 50 1260 214 1484 528 1484 c 0
 842 1484 1017 1237 1017 983 c 0
 1017 800 927 730 838 662 c 0
 749.630090118 594.481417169 663 528 663 355 c 1
 363 355 l 1
 363 587 470 685 566 772 c 0
 645 843 716 909 716 1035 c 0
 716 1133 654 1228 528 1228 c 0
 400 1228 350 1152 350 1024 c 0
 350 982 354 952 361 917 c 1
EndSplineSet
Refer: 0 46 N -1 0 0 1 742 0 2
Colour: ffff00
EndChar

StartChar: at
Encoding: 64 64 263
Width: 2061
VWidth: 1819
Flags: HMW
LayerCount: 2
Fore
SplineSet
1046 1138 m 0
 1295 1138 1412 1044 1532 947 c 1
 1476 299 l 2
 1475 292 1475 291 1475 279 c 0
 1475 192 1569 130 1633 130 c 0
 1739 130 1871 266 1871 530 c 0
 1871 1013 1481 1385 1031 1385 c 0
 581 1385 190 1013 190 530 c 0
 190 47 579 -323 1031 -323 c 0
 1129 -323 1223 -308 1309 -277 c 1
 1370 -432 l 1
 1266 -469 1152 -488 1031 -488 c 0
 451 -488 0 -22 0 530 c 0
 0 1082 450 1548 1031 1548 c 0
 1612 1548 2061 1082 2061 530 c 0
 2061 263 1921 -94 1554 -94 c 0
 1436 -94 1340 -49 1276 18 c 1
 1187 -55 1078 -94 963 -94 c 0
 704 -94 452 84 452 452 c 0
 452 866 711 1138 1046 1138 c 0
1191 481 m 2
 1221 845 l 1
 1182 867 1139 882 1046 882 c 0
 916 882 752 768 752 452 c 0
 752 214 863 162 963 162 c 0
 1041 162 1169 230 1191 481 c 2
EndSplineSet
Colour: ffff00
EndChar

StartChar: A
Encoding: 65 65 264
Width: 1561
VWidth: 1819
Flags: HMW
LayerCount: 2
Fore
SplineSet
604 572 m 1
 957 572 l 1
 781 1064 l 1
 604 572 l 1
370 -72 m 1
 50 -72 l 1
 652 1484 l 1
 910 1484 l 1
 1511 -72 l 1
 1191 -72 l 1
 1046 338 l 1
 515 338 l 1
 370 -72 l 1
EndSplineSet
Colour: ffff00
EndChar

StartChar: B
Encoding: 66 66 265
Width: 1366
VWidth: 1819
Flags: HMW
LayerCount: 2
Fore
SplineSet
100 1484 m 1
 715 1484 l 2
 986 1484 1203 1283 1203 1024 c 0
 1203 913 1162 812 1095 735 c 1
 1201 650 1266 522 1266 381 c 0
 1266 120 1045 -72 778 -72 c 2
 100 -72 l 1
 100 1484 l 1
400 588 m 1
 400 182 l 1
 778 182 l 2
 883 182 966 249 966 381 c 0
 966 516 878 588 778 588 c 2
 400 588 l 1
715 824 m 2
 820 824 903 892 903 1024 c 0
 903 1157 817 1228 715 1228 c 2
 400 1228 l 1
 400 824 l 1
 715 824 l 2
EndSplineSet
Colour: ffff00
EndChar

StartChar: C
Encoding: 67 67 266
Width: 1451
VWidth: 1819
Flags: HMW
LayerCount: 2
Back
SplineSet
1147 1114 m 2
 1081 1174 1000 1208 881 1208 c 0
 596 1208 450 1028 450 706 c 0
 450 384 596 202 881 202 c 0
 999 202 1080 238 1148 298 c 2
 1180 327 l 1
 1401 140 l 1
 1359 102 l 2
 1239 -7 1073 -72 881 -72 c 0
 382 -72 150 304 150 706 c 0
 150 1108 382 1484 881 1484 c 0
 1073 1484 1237 1419 1358 1310 c 2
 1401 1272 l 1
 1180 1085 l 1
 1147 1114 l 2
EndSplineSet
Fore
SplineSet
831 1248 m 0
 546 1248 400 1028 400 706 c 0
 400 384 546 162 831 162 c 0
 972 162 1052 230 1130 307 c 1
 1351 120 l 1
 1228 -5 1056 -92 831 -92 c 0
 332 -92 100 304 100 706 c 0
 100 1108 332 1504 831 1504 c 0
 1056 1504 1224 1418 1351 1292 c 1
 1130 1105 l 1
 1057 1177 976 1248 831 1248 c 0
EndSplineSet
Colour: ffff00
EndChar

StartChar: D
Encoding: 68 68 267
Width: 1372
VWidth: 1819
Flags: HMW
LayerCount: 2
Fore
SplineSet
590 1484 m 2
 1093 1484 1322 1114 1322 706 c 0
 1322 298 1093 -72 590 -72 c 2
 100 -72 l 1
 100 1484 l 1
 590 1484 l 2
590 1228 m 2
 400 1228 l 1
 400 182 l 1
 590 182 l 2
 882 182 1022 357 1022 706 c 0
 1022 1054 882 1228 590 1228 c 2
EndSplineSet
Colour: ffff00
EndChar

StartChar: E
Encoding: 69 69 268
Width: 1181
VWidth: 1819
Flags: HMW
LayerCount: 2
Fore
SplineSet
1081 182 m 1
 1081 -72 l 1
 100 -72 l 1
 100 1484 l 1
 1081 1484 l 1
 1081 1228 l 1
 400 1228 l 1
 400 824 l 1
 1081 824 l 1
 1081 588 l 1
 400 588 l 1
 400 182 l 1
 1081 182 l 1
EndSplineSet
Colour: ffff00
EndChar

StartChar: F
Encoding: 70 70 269
Width: 1181
VWidth: 1819
Flags: HMW
LayerCount: 2
Fore
SplineSet
400 -72 m 1
 100 -72 l 1
 100 1484 l 1
 1081 1484 l 1
 1081 1228 l 1
 400 1228 l 1
 400 824 l 1
 965 824 l 1
 965 588 l 1
 400 588 l 1
 400 -72 l 1
EndSplineSet
Colour: ffff00
EndChar

StartChar: G
Encoding: 71 71 270
Width: 1530
VWidth: 1819
Flags: HMW
LayerCount: 2
Fore
SplineSet
1378 1292 m 1
 1157 1105 l 1
 1095 1172 983 1228 831 1228 c 0
 546 1228 400 1028 400 706 c 0
 400 384 546 182 831 182 c 0
 1104 182 1130 284 1130 460 c 2
 1130 550 l 1
 754 549 l 1
 750 783 l 1
 1430 786 l 1
 1430 460 l 2
 1430 187 1271 -92 831 -92 c 0
 332 -92 100 304 100 706 c 0
 100 1108 332 1504 831 1504 c 0
 1053 1504 1240 1431 1378 1292 c 1
EndSplineSet
Colour: ffff00
EndChar

StartChar: H
Encoding: 72 72 271
Width: 1369
VWidth: 1819
Flags: HMW
LayerCount: 2
Fore
SplineSet
969 1484 m 1
 1269 1484 l 1
 1269 -72 l 1
 969 -72 l 1
 969 610 l 1
 400 610 l 1
 400 -72 l 1
 100 -72 l 1
 100 1484 l 1
 400 1484 l 1
 400 846 l 1
 969 846 l 1
 969 1484 l 1
EndSplineSet
Colour: ffff00
EndChar

StartChar: I
Encoding: 73 73 272
Width: 500
VWidth: 1819
Flags: HMW
LayerCount: 2
Fore
SplineSet
400 -72 m 1
 100 -72 l 1
 100 1484 l 1
 400 1484 l 1
 400 -72 l 1
EndSplineSet
Colour: ffff00
EndChar

StartChar: J
Encoding: 74 74 273
Width: 995
VWidth: 1819
Flags: HMW
LayerCount: 2
Fore
SplineSet
100 -7 m 1
 261 226 l 1
 294 192 337 162 411 162 c 0
 530 162 595 203 595 380 c 2
 595 1484 l 1
 895 1484 l 1
 895 380 l 2
 895 61 665 -92 411 -92 c 0
 297 -92 198 -67 100 -7 c 1
EndSplineSet
Colour: ffff00
EndChar

StartChar: K
Encoding: 75 75 274
Width: 1402
VWidth: 1819
Flags: HMW
LayerCount: 2
Fore
SplineSet
954 1484 m 1
 1352 1484 l 1
 666 733 l 1
 1341 -72 l 1
 957 -72 l 1
 466 520 l 1
 400 450 l 1
 400 -72 l 1
 100 -72 l 1
 100 1484 l 1
 400 1484 l 1
 400 871 l 1
 954 1484 l 1
EndSplineSet
Colour: ffff00
EndChar

StartChar: L
Encoding: 76 76 275
Width: 1181
VWidth: 1819
Flags: HMW
LayerCount: 2
Fore
SplineSet
1081 182 m 1
 1081 -72 l 1
 100 -72 l 1
 100 1484 l 1
 400 1484 l 1
 400 182 l 1
 1081 182 l 1
EndSplineSet
Colour: ffff00
EndChar

StartChar: M
Encoding: 77 77 276
Width: 1815
VWidth: 1819
Flags: HMW
LayerCount: 2
Fore
SplineSet
400 -72 m 1
 100 -72 l 1
 100 1484 l 1
 400 1484 l 1
 887 273 l 1
 1418 1484 l 1
 1715 1484 l 1
 1715 -72 l 1
 1415 -72 l 1
 1415 878 l 5
 1016 -72 l 1
 745 -72 l 1
 400 830 l 5
 400 -72 l 1
EndSplineSet
Colour: ffff00
EndChar

StartChar: N
Encoding: 78 78 277
Width: 1416
VWidth: 1819
Flags: HMW
LayerCount: 2
Fore
SplineSet
1016 1484 m 1
 1316 1484 l 1
 1316 -72 l 1
 1031 -72 l 1
 400 977 l 1
 400 -72 l 1
 100 -72 l 1
 100 1484 l 1
 385 1484 l 1
 1016 434 l 1
 1016 1484 l 1
EndSplineSet
Colour: ffff00
EndChar

StartChar: O
Encoding: 79 79 278
Width: 1562
VWidth: 1819
Flags: HMW
LayerCount: 2
Fore
SplineSet
781 1504 m 0
 1280 1504 1512 1108 1512 706 c 0
 1512 304 1280 -92 781 -92 c 0
 282 -92 50 304 50 706 c 0
 50 1108 282 1504 781 1504 c 0
781 1248 m 0
 496 1248 350 1028 350 706 c 0
 350 384 496 162 781 162 c 0
 1066 162 1212 384 1212 706 c 0
 1212 1028 1066 1248 781 1248 c 0
EndSplineSet
Colour: ffff00
EndChar

StartChar: P
Encoding: 80 80 279
Width: 1303
VWidth: 1819
Flags: HMW
LayerCount: 2
Fore
SplineSet
400 -72 m 1
 100 -72 l 1
 100 1484 l 1
 715 1484 l 2
 986 1484 1203 1283 1203 1024 c 0
 1203 763 983 568 715 568 c 2
 400 568 l 1
 400 -72 l 1
400 1228 m 1
 400 824 l 1
 715 824 l 2
 820 824 903 892 903 1024 c 0
 903 1157 817 1228 715 1228 c 2
 400 1228 l 1
EndSplineSet
Colour: ffff00
EndChar

StartChar: R
Encoding: 82 82 281
Width: 1303
VWidth: 1819
Flags: HMW
LayerCount: 2
Fore
SplineSet
100 1484 m 1
 715 1484 l 2
 986 1484 1203 1283 1203 1024 c 0
 1203 898 1150 784 1066 704 c 1
 1151 620 1203 506 1203 381 c 2
 1203 -72 l 1
 903 -72 l 1
 903 401 l 2
 903 516 815 588 715 588 c 2
 400 588 l 1
 400 -72 l 1
 100 -72 l 1
 100 1484 l 1
400 824 m 1
 715 824 l 2
 820 824 903 892 903 1024 c 0
 903 1157 817 1228 715 1228 c 2
 400 1228 l 1
 400 824 l 1
EndSplineSet
Colour: ffff00
EndChar

StartChar: S
Encoding: 83 83 282
Width: 1346
VWidth: 1819
Flags: HMW
LayerCount: 2
Fore
SplineSet
1216 985 m 1
 916 985 l 1
 916 1137 843 1248 660 1248 c 0
 510 1248 430 1170 430 1053 c 0
 430 966 501 880 725 823 c 0
 911 776 1246 669 1246 349 c 0
 1246 43 938 -92 687 -92 c 0
 388 -92 100 75 100 426 c 1
 400 426 l 1
 400 273 489 162 687 162 c 0
 850 162 946 245 946 369 c 0
 946 458 870 542 639 601 c 0
 459 647 130 752 130 1063 c 0
 130 1346 395 1504 660 1504 c 0
 972 1504 1216 1312 1216 985 c 1
EndSplineSet
Colour: ffff00
EndChar

StartChar: T
Encoding: 84 84 283
Width: 1400
VWidth: 1819
Flags: HMW
LayerCount: 2
Fore
SplineSet
850 -72 m 1
 550 -72 l 1
 550 1228 l 1
 100 1228 l 1
 100 1484 l 1
 1300 1484 l 1
 1300 1228 l 1
 850 1228 l 1
 850 -72 l 1
EndSplineSet
Colour: ffff00
EndChar

StartChar: U
Encoding: 85 85 284
Width: 1376
VWidth: 1819
Flags: HMW
LayerCount: 2
Fore
SplineSet
976 1484 m 1
 1276 1484 l 1
 1276 458 l 2
 1276 132 1007 -92 688 -92 c 0
 369 -92 100 132 100 458 c 2
 100 1484 l 1
 400 1484 l 1
 400 438 l 2
 400 261 526 162 688 162 c 0
 850 162 976 261 976 438 c 2
 976 1484 l 1
EndSplineSet
Colour: ffff00
EndChar

StartChar: V
Encoding: 86 86 285
Width: 1561
VWidth: 1819
Flags: HMW
LayerCount: 2
Fore
SplineSet
1191 1484 m 1
 1511 1484 l 1
 909 -72 l 1
 651 -72 l 1
 50 1484 l 1
 370 1484 l 1
 780 348 l 1
 1191 1484 l 1
EndSplineSet
Colour: ffff00
EndChar

StartChar: W
Encoding: 87 87 286
Width: 2132
VWidth: 1819
Flags: HMW
LayerCount: 2
Back
SplineSet
1771 1484 m 1
 2082 1484 l 1
 1638 -72 l 1
 1346 -72 l 1
 1066 993 l 1
 785 -72 l 1
 493 -72 l 1
 50 1484 l 1
 361 1484 l 1
 639 419 l 1
 920 1484 l 1
 1212 1484 l 1
 1492 419 l 1
 1771 1484 l 1
EndSplineSet
Fore
SplineSet
1771 1484 m 1
 2082 1484 l 1
 1638 -72 l 1
 1346 -72 l 1
 1066 1063 l 1
 785 -72 l 1
 493 -72 l 1
 50 1484 l 1
 361 1484 l 1
 639 349 l 1
 920 1484 l 1
 1212 1484 l 1
 1492 349 l 1
 1771 1484 l 1
EndSplineSet
Colour: ffff00
EndChar

StartChar: X
Encoding: 88 88 287
Width: 1464
VWidth: 1819
Flags: HMW
LayerCount: 2
Fore
SplineSet
1414 -72 m 1
 1062 -72 l 1
 732 506 l 1
 402 -72 l 1
 50 -72 l 1
 556 705 l 1
 50 1484 l 1
 402 1484 l 1
 732 905 l 1
 1062 1484 l 1
 1414 1484 l 1
 908 705 l 1
 1414 -72 l 1
EndSplineSet
Colour: ffff00
EndChar

StartChar: Y
Encoding: 89 89 288
Width: 1457
VWidth: 1819
Flags: HMW
LayerCount: 2
Fore
SplineSet
1060 1484 m 1
 1407 1484 l 1
 879 633 l 1
 879 -72 l 1
 579 -72 l 1
 579 633 l 1
 50 1484 l 1
 398 1484 l 1
 729 880 l 5
 1060 1484 l 1
EndSplineSet
Colour: ffff00
EndChar

StartChar: Z
Encoding: 90 90 289
Width: 1400
VWidth: 1819
Flags: HMW
LayerCount: 2
Fore
SplineSet
100 1228 m 1
 100 1484 l 1
 1300 1484 l 1
 1300 1271 l 1
 462 182 l 1
 1300 182 l 1
 1300 -72 l 1
 100 -72 l 1
 100 140 l 1
 938 1228 l 1
 100 1228 l 1
EndSplineSet
Colour: ffff00
EndChar

StartChar: bracketleft
Encoding: 91 91 290
Width: 642
VWidth: 1819
Flags: HMW
LayerCount: 2
Fore
SplineSet
592 182 m 1
 592 -72 l 1
 70 -72 l 1
 70 1484 l 1
 592 1484 l 1
 592 1228 l 1
 370 1228 l 1
 370 182 l 1
 592 182 l 1
EndSplineSet
Colour: ffff00
EndChar

StartChar: backslash
Encoding: 92 92 291
Width: 1019
VWidth: 1819
Flags: HMW
LayerCount: 2
Fore
SplineSet
1025 23 m 1
 758 -112 l 1
 -6 1388 l 1
 261 1523 l 1
 1025 23 l 1
EndSplineSet
Colour: ffff
EndChar

StartChar: bracketright
Encoding: 93 93 292
Width: 642
VWidth: 1819
Flags: HMW
LayerCount: 2
Fore
SplineSet
50 1228 m 1
 50 1484 l 1
 572 1484 l 1
 572 -72 l 1
 50 -72 l 1
 50 182 l 1
 272 182 l 1
 272 1228 l 1
 50 1228 l 1
EndSplineSet
Colour: ffff00
EndChar

StartChar: asciicircum
Encoding: 94 94 293
Width: 704
VWidth: 1819
Flags: HMW
LayerCount: 2
Fore
SplineSet
637 1172 m 1
 543 1098 l 1
 352 1340 l 1
 161 1098 l 1
 67 1172 l 1
 303 1471 l 1
 401 1471 l 1
 637 1172 l 1
EndSplineSet
Colour: ff00
EndChar

StartChar: underscore
Encoding: 95 95 294
Width: 666
VWidth: 1819
Flags: HMW
LayerCount: 2
Fore
SplineSet
716 225 m 1
 716 -75 l 1
 -50 -75 l 1
 -50 225 l 1
 716 225 l 1
EndSplineSet
Colour: ffff
EndChar

StartChar: grave
Encoding: 96 96 295
Width: 524
VWidth: 1819
Flags: HMW
LayerCount: 2
Fore
SplineSet
417 1191 m 1
 316 1126 l 1
 107 1459 l 1
 208 1524 l 1
 417 1191 l 1
EndSplineSet
Colour: ff00
EndChar

StartChar: a
Encoding: 97 97 296
Width: 1182
VWidth: 1819
Flags: HMW
LayerCount: 2
Fore
SplineSet
418 741 m 1
 118 741 l 1
 118 1002 338 1136 575 1136 c 0
 779 1136 1034 1016 1034 751 c 2
 1034 322 l 2
 1034 159.146330392 1055.22949219 19.01953125 1082 -72 c 1
 790 -72 l 1
 757.432617188 40.734375 734 147.939330741 734 322 c 2
 734 741 l 2
 734 817 699 875 575 875 c 0
 447 875 418 817 418 741 c 1
EndSplineSet
Refer: 430 57355 N 1 0 0 1 48 0 2
Colour: ffff00
EndChar

StartChar: b
Encoding: 98 98 297
Width: 1258
VWidth: 1819
Flags: HMW
LayerCount: 2
Fore
SplineSet
400 -72 m 1
 100 -72 l 1
 100 1484 l 1
 400 1484 l 1
 400 -72 l 1
EndSplineSet
Refer: 434 57359 N 1 0 0 1 30 0 2
Colour: ffff00
EndChar

StartChar: c
Encoding: 99 99 298
Width: 1135
VWidth: 1819
Flags: HMW
LayerCount: 2
Fore
SplineSet
812 335 m 1
 1084 220 l 1
 1008 49 846 -92 594 -92 c 0
 211 -92 50 239 50 521 c 0
 50 803 209 1136 594 1136 c 0
 847 1136 1001 998 1085 826 c 1
 812 710 l 1
 771 799 721 880 594 880 c 0
 441 880 350 736 350 521 c 0
 350 306 440 162 594 162 c 0
 720 162 768 244 812 335 c 1
EndSplineSet
Colour: ffff00
EndChar

StartChar: d
Encoding: 100 100 299
Width: 1258
VWidth: 1819
Flags: HMW
LayerCount: 2
Fore
SplineSet
1158 -72 m 1
 858 -72 l 1
 858 1484 l 1
 1158 1484 l 1
 1158 -72 l 1
EndSplineSet
Refer: 434 57359 N -1 0 0 -1 1228 1043 2
Colour: ffff00
EndChar

StartChar: e
Encoding: 101 101 300
Width: 1195
VWidth: 1819
Flags: HMW
LayerCount: 2
Fore
SplineSet
368 424 m 1
 384 227 521 164 687 164 c 0
 795 164 914 190 1020 224 c 1
 1097 32 l 1
 942 -52 786 -92 643 -92 c 0
 310 -92 50 128 50 521 c 0
 50 803 209 1136 594 1136 c 0
 976 1136 1145 806 1145 521 c 2
 1145 424 l 1
 368 424 l 1
367 618 m 1
 826 618 l 1
 791 780 717 880 594 880 c 0
 472 880 401 781 367 618 c 1
EndSplineSet
Colour: ffff00
EndChar

StartChar: f
Encoding: 102 102 301
Width: 863
VWidth: 1819
Flags: HMW
LayerCount: 2
Fore
SplineSet
200 1181 m 2
 200 1345 336 1493 526 1493 c 1
 608 1493 681 1465 736 1420 c 1
 736 1219 l 1
 536 1219 l 2
 512 1219 500 1206 500 1181 c 2
 500 -72 l 1
 200 -72 l 1
 200 1181 l 2
EndSplineSet
Refer: 429 57354 N 1.07764 0 0 1 -25.4348 360 2
Colour: ffff00
EndChar

StartChar: g
Encoding: 103 103 302
Width: 1258
VWidth: 1819
Flags: HMW
LayerCount: 2
Fore
SplineSet
858 1116 m 1
 1158 1116 l 1
 1158 62 l 2
 1158 -325 887 -512 587 -512 c 0
 406 -512 229 -448 81 -356 c 1
 194 -158 l 1
 291 -220 419 -257 538 -257 c 0
 709 -257 858 -182 858 -1 c 2
 858 1116 l 1
EndSplineSet
Refer: 434 57359 N -1 0 0 -1 1228 1043 2
Colour: ffff00
EndChar

StartChar: h
Encoding: 104 104 303
Width: 1188
VWidth: 1819
Flags: HMW
LayerCount: 2
Fore
SplineSet
400 -72 m 1
 100 -72 l 1
 100 1484 l 1
 400 1484 l 1
 400 -72 l 1
EndSplineSet
Refer: 432 57357 N 1 0 0 1 50 0 2
Colour: ffff00
EndChar

StartChar: k
Encoding: 107 107 306
Width: 1197
VWidth: 1819
Flags: HMW
LayerCount: 2
Fore
SplineSet
758 1116 m 1
 1147 1116 l 1
 626 520 l 1
 1108 -72 l 1
 729 -72 l 1
 430 303 l 1
 400 270 l 1
 400 -72 l 1
 100 -72 l 1
 100 1484 l 1
 400 1484 l 1
 400 700 l 1
 758 1116 l 1
EndSplineSet
Colour: ffff00
EndChar

StartChar: l
Encoding: 108 108 307
Width: 500
VWidth: 1819
Flags: HMW
LayerCount: 2
Fore
SplineSet
400 -72 m 1
 100 -72 l 1
 100 1484 l 1
 400 1484 l 1
 400 -72 l 1
EndSplineSet
Colour: ffff00
EndChar

StartChar: m
Encoding: 109 109 308
Width: 1716
VWidth: 1819
Flags: HMW
LayerCount: 2
Fore
SplineSet
100 1116 m 1
 400 1116 l 1
 400 -72 l 1
 100 -72 l 1
 100 1116 l 1
EndSplineSet
Refer: 431 57356 N 1 0 0 1 -518 0 2
Refer: 431 57356 N 1 0 0 1 90 0 2
Colour: ffff00
EndChar

StartChar: n
Encoding: 110 110 309
Width: 1188
VWidth: 1819
Flags: HMW
LayerCount: 2
Fore
SplineSet
400 -72 m 1
 100 -72 l 1
 100 1116 l 1
 400 1116 l 1
 400 -72 l 1
EndSplineSet
Refer: 432 57357 N 1 0 0 1 50 0 2
Colour: ffff00
EndChar

StartChar: o
Encoding: 111 111 310
Width: 1188
VWidth: 1819
Flags: HMW
LayerCount: 2
Fore
SplineSet
594 880 m 0
 441 880 350 736 350 521 c 0
 350 306 440 162 594 162 c 0
 748 162 838 306 838 521 c 0
 838 736 747 880 594 880 c 0
594 1136 m 0
 979 1136 1138 803 1138 521 c 0
 1138 239 977 -92 594 -92 c 0
 211 -92 50 239 50 521 c 0
 50 803 209 1136 594 1136 c 0
EndSplineSet
Colour: ffff00
EndChar

StartChar: p
Encoding: 112 112 311
Width: 1258
VWidth: 1819
Flags: HMW
LayerCount: 2
Fore
SplineSet
100 1116 m 1
 400 1116 l 1
 400 -492 l 1
 100 -492 l 1
 100 1116 l 1
EndSplineSet
Refer: 434 57359 N 1 0 0 1 30 0 2
Colour: ffff00
EndChar

StartChar: q
Encoding: 113 113 312
Width: 1258
VWidth: 1819
Flags: HMW
LayerCount: 2
Fore
SplineSet
858 1116 m 1
 1158 1116 l 1
 1158 -492 l 1
 858 -492 l 1
 858 1116 l 1
EndSplineSet
Refer: 434 57359 N -1 0 0 -1 1228 1043 2
Colour: ffff00
EndChar

StartChar: r
Encoding: 114 114 313
Width: 854
VWidth: 1819
Flags: HMW
LayerCount: 2
Fore
SplineSet
100 1116 m 1
 400 1116 l 1
 400 -72 l 1
 100 -72 l 1
 100 1116 l 1
EndSplineSet
Refer: 433 57358 N 1 0 0 1 50 0 2
Colour: ffff00
EndChar

StartChar: s
Encoding: 115 115 314
Width: 1159
VWidth: 1819
Flags: HMW
LayerCount: 2
Fore
SplineSet
742 754 m 1
 742 821 697 880 579 880 c 0
 466 880 415 826 415 774 c 0
 415 727 432 666 597 647 c 0
 735.999311374 630.99401869 1059 572 1059 302 c 0
 1059 15 783 -92 579 -92 c 0
 375 -92 100 15 100 302 c 1
 400 302 l 1
 400 222 454 162 579 162 c 0
 704 162 759 225 759 289 c 0
 759 350 730 416 557 433 c 0
 428.958249697 445.582137313 115 501 115 754 c 0
 115 1033 383 1136 579 1136 c 0
 776 1136 1042 1033 1042 754 c 1
 742 754 l 1
EndSplineSet
Colour: ffff00
EndChar

StartChar: t
Encoding: 116 116 315
Width: 894
VWidth: 1819
Flags: HMW
LayerCount: 2
Fore
SplineSet
576 -82 m 1
 386 -82 250 66 250 230 c 2
 250 1329 l 1
 550 1329 l 1
 550 230 l 2
 550 205 562 192 586 192 c 2
 786 192 l 1
 786 -9 l 1
 731 -54 658 -82 576 -82 c 1
EndSplineSet
Refer: 429 57354 N 1.14441 0 0 1 -30.1087 360 2
Colour: ffff00
EndChar

StartChar: u
Encoding: 117 117 316
Width: 1188
VWidth: 1819
Flags: HMW
LayerCount: 2
Fore
SplineSet
788 1116 m 1
 1088 1116 l 1
 1088 -72 l 1
 788 -72 l 1
 788 1116 l 1
EndSplineSet
Refer: 432 57357 N -1 0 0 -1 1138 1044 2
Colour: ffff00
EndChar

StartChar: v
Encoding: 118 118 317
Width: 1283
VWidth: 1819
Flags: HMW
LayerCount: 2
Fore
SplineSet
913 1116 m 1
 1233 1116 l 1
 780 -72 l 1
 505 -72 l 1
 50 1116 l 1
 370 1116 l 1
 642 346 l 1
 913 1116 l 1
EndSplineSet
Colour: ffff00
EndChar

StartChar: w
Encoding: 119 119 318
Width: 1677
VWidth: 1819
Flags: HMW
LayerCount: 2
Back
SplineSet
1315 1116 m 1
 1627 1116 l 1
 1288 -72 l 1
 1009 -72 l 1
 839 608 l 1
 669 -72 l 1
 391 -72 l 1
 50 1116 l 1
 362 1116 l 1
 529 456 l 1
 692 1116 l 1
 985 1116 l 1
 1149 456 l 1
 1315 1116 l 1
EndSplineSet
Fore
SplineSet
1315 1116 m 1
 1627 1116 l 1
 1288 -72 l 1
 1009 -72 l 1
 839 678 l 1
 669 -72 l 1
 391 -72 l 1
 50 1116 l 1
 362 1116 l 1
 529 386 l 1
 692 1116 l 1
 985 1116 l 1
 1149 386 l 1
 1315 1116 l 1
EndSplineSet
Colour: ffff00
EndChar

StartChar: x
Encoding: 120 120 319
Width: 1431
VWidth: 1819
Flags: HMW
LayerCount: 2
Fore
SplineSet
1006 1116 m 1
 1381 1116 l 1
 903 506 l 1
 1356 -72 l 1
 980 -72 l 1
 716 339 l 1
 450 -72 l 1
 73 -72 l 1
 528 506 l 1
 50 1116 l 1
 425 1116 l 1
 716 675 l 1
 1006 1116 l 1
EndSplineSet
Colour: ffff00
EndChar

StartChar: y
Encoding: 121 121 320
Width: 1282
VWidth: 1819
Flags: HMW
LayerCount: 2
Fore
SplineSet
912 1116 m 1
 1232 1116 l 1
 811 19 l 2
 730 -190 612 -492 258 -492 c 2
 154 -492 l 1
 154 -216 l 1
 258 -216 l 2
 360 -216 413 -159 485 6 c 1
 50 1116 l 1
 371 1116 l 1
 644 370 l 1
 912 1116 l 1
EndSplineSet
Colour: ffff00
EndChar

StartChar: z
Encoding: 122 122 321
Width: 1121
VWidth: 1819
Flags: HMW
LayerCount: 2
Fore
SplineSet
100 860 m 1
 100 1116 l 1
 1021 1116 l 1
 1021 904 l 1
 448 182 l 1
 1021 182 l 1
 1021 -72 l 1
 100 -72 l 1
 100 140 l 1
 672 860 l 1
 100 860 l 1
EndSplineSet
Colour: ffff00
EndChar

StartChar: bar
Encoding: 124 124 322
Width: 440
VWidth: 1819
Flags: HMW
LayerCount: 2
Fore
SplineSet
70 1484 m 1
 370 1484 l 1
 370 -492 l 1
 70 -492 l 1
 70 1484 l 1
EndSplineSet
Colour: ffff
EndChar

StartChar: asciitilde
Encoding: 126 126 323
Width: 868
VWidth: 1819
Flags: HMW
LayerCount: 2
Fore
SplineSet
55 1162 m 1
 111 1293 199 1359 288 1359 c 0
 356 1359 409 1336 470 1290 c 0
 521 1252 541 1244 581 1244 c 0
 601 1244 656 1264 700 1366 c 2
 704 1375 l 1
 814 1327 l 1
 759 1199 673 1124 581 1124 c 0
 512 1124 456 1149 398 1194 c 0
 346 1233 329 1239 288 1239 c 0
 259 1239 209 1214 165 1114 c 1
 55 1162 l 1
EndSplineSet
Colour: ff00
EndChar

StartChar: cent
Encoding: 162 162 325
Width: 1135
VWidth: 1819
Flags: HMW
LayerCount: 2
Fore
SplineSet
744 928 m 1
 444 928 l 1
 444 1484 l 1
 744 1484 l 1
 744 928 l 1
744 -437 m 1
 444 -437 l 1
 444 115 l 1
 744 115 l 1
 744 -437 l 1
EndSplineSet
Refer: 298 99 N 1 0 0 1 0 0 2
Colour: ffff00
EndChar

StartChar: sterling
Encoding: 163 163 326
Width: 1314
VWidth: 1819
Flags: HMW
LayerCount: 2
Fore
SplineSet
710 1150 m 2
 700 1201 659 1228 624 1228 c 0
 586 1228 537 1194 537 1128 c 2
 537 262 l 2
 537 235 535 207 530 182 c 1
 1214 182 l 1
 1214 -72 l 1
 100 -72 l 1
 100 182 l 1
 150 182 l 2
 218.043370608 182 237 193 237 262 c 2
 237 1108 l 2
 237 1305 397 1484 624 1484 c 0
 823 1484 976 1345 1006 1176 c 2
 1015 1125 l 1
 719 1083 l 1
 710 1150 l 2
EndSplineSet
Refer: 429 57354 N 1 0 0 1 50 0 2
Colour: ffff00
EndChar

StartChar: currency
Encoding: 164 164 327
Width: 1431
VWidth: 1819
Flags: HMW
LayerCount: 2
Fore
SplineSet
588 907 m 1
 346 745 l 1
 50 1084 l 1
 292 1246 l 1
 588 907 l 1
346 296 m 1
 588 134 l 1
 292 -205 l 1
 50 -43 l 1
 346 296 l 1
1085 745 m 1
 843 907 l 1
 1139 1246 l 1
 1381 1084 l 1
 1085 745 l 1
843 134 m 1
 1085 296 l 1
 1381 -43 l 1
 1139 -205 l 1
 843 134 l 1
EndSplineSet
Refer: 310 111 N 1 0 0 1 121.5 0 2
Colour: ffff00
EndChar

StartChar: brokenbar
Encoding: 166 166 329
Width: 440
VWidth: 1819
Flags: HMW
LayerCount: 2
Fore
SplineSet
370 825 m 1
 70 825 l 1
 70 1484 l 1
 370 1484 l 1
 370 825 l 1
370 -72 m 1
 70 -72 l 1
 70 569 l 1
 370 569 l 1
 370 -72 l 1
EndSplineSet
Colour: ffff
EndChar

StartChar: section
Encoding: 167 167 330
Width: 1152
VWidth: 1819
Flags: HMW
LayerCount: 2
Fore
SplineSet
402 276 m 1
 402 198 453 160 576 160 c 0
 700 160 752 199 752 276 c 1
 752 276 746 306 553 332 c 0
 410 351 100 394 100 682 c 0
 100 783 137 868 194 930 c 1
 138 978 100 1046 100 1136 c 0
 100 1420 373 1526 576 1526 c 0
 779 1526 1051 1420 1051 1136 c 1
 751 1136 l 1
 751 1213 700 1252 576 1252 c 0
 452 1252 400 1213 400 1136 c 1
 400 1136 407 1106 600 1077 c 0
 747 1055 1052 1006 1052 718 c 0
 1052 619 1017 538 962 478 c 1
 1015 431 1052 363 1052 276 c 0
 1052 -8 779 -116 576 -116 c 0
 371 -116 102 -6 102 276 c 1
 402 276 l 1
565 804 m 1
 453 801 400 760 400 682 c 0
 400 647 406 631 587 606 c 1
 707 609 752 644 752 718 c 0
 752 762 742 777 565 804 c 1
EndSplineSet
Colour: ffff00
EndChar

StartChar: copyright
Encoding: 169 169 332
Width: 1670
VWidth: 1819
Flags: HMW
LayerCount: 2
Fore
SplineSet
300 728 m 0
 300 416 550 182 835 182 c 0
 1120 182 1370 416 1370 728 c 0
 1370 1039 1120 1274 835 1274 c 0
 550 1274 300 1039 300 728 c 0
0 728 m 0
 0 1173 364 1548 835 1548 c 0
 1306 1548 1670 1173 1670 728 c 0
 1670 284 1307 -94 835 -94 c 0
 363 -94 0 284 0 728 c 0
1020 564 m 1
 1182 462 l 1
 1099 361 970 302 835 302 c 0
 571 302 395 510 395 729 c 0
 395 948 570 1158 835 1158 c 0
 970 1158 1099 1098 1182 997 c 1
 1020 895 l 1
 973 952 902 982 835 982 c 0
 708 982 595 876 595 729 c 0
 595 582 707 476 835 476 c 0
 902 476 973 507 1020 564 c 1
EndSplineSet
Colour: ffff00
EndChar

StartChar: ordfeminine
Encoding: 170 170 333
Width: 747
VWidth: 1819
Flags: HMW
LayerCount: 2
Fore
SplineSet
600 1052 m 2
 600 963 623 947 642 934 c 1
 568 840 l 1
 546 857 526 877 511 905 c 1
 456 857 388 834 310 834 c 0
 185 834 90 916 90 1031 c 0
 90 1205 250 1263 411 1263 c 0
 435 1263 458 1261 480 1259 c 1
 480 1307 l 2
 480 1364 435 1395 350 1395 c 0
 259 1395 223 1364 223 1297 c 1
 103 1297 l 1
 103 1458 235 1515 350 1515 c 0
 457 1515 600 1462 600 1307 c 2
 600 1052 l 2
480 1063 m 1
 480 1139 l 1
 455 1142 436 1143 411 1143 c 0
 262 1143 210 1102 210 1031 c 0
 210 990 235 954 310 954 c 0
 395 954 448 988 480 1063 c 1
EndSplineSet
Colour: ff00
EndChar

StartChar: logicalnot
Encoding: 172 172 334
Width: 1073
VWidth: 1819
Flags: HMW
LayerCount: 2
Fore
SplineSet
50 372 m 1
 50 648 l 1
 1003 648 l 1
 1003 188 l 1
 703 188 l 1
 703 372 l 1
 50 372 l 1
EndSplineSet
Colour: ffff00
EndChar

StartChar: registered
Encoding: 174 174 336
Width: 1670
VWidth: 1819
Flags: HMW
LayerCount: 2
Fore
SplineSet
300 728 m 0
 300 416 550 182 835 182 c 0
 1120 182 1370 416 1370 728 c 0
 1370 1039 1120 1274 835 1274 c 0
 550 1274 300 1039 300 728 c 0
0 728 m 0
 0 1173 364 1548 835 1548 c 0
 1306 1548 1670 1173 1670 728 c 0
 1670 284 1307 -94 835 -94 c 0
 363 -94 0 284 0 728 c 0
1185 396 m 1
 1023 294 l 1
 815 548 l 1
 720 548 l 1
 720 345 l 1
 520 345 l 1
 520 1162 l 1
 866 1162 l 2
 1057 1162 1217 1033 1217 854 c 0
 1217 730 1140 632 1032 583 c 1
 1185 396 l 1
720 722 m 1
 866 722 l 2
 953 722 1017 772 1017 854 c 0
 1017 937 953 988 866 988 c 2
 720 988 l 1
 720 722 l 1
EndSplineSet
Colour: ffff00
EndChar

StartChar: degree
Encoding: 176 176 338
Width: 646
VWidth: 1819
Flags: HMW
LayerCount: 2
Fore
SplineSet
455 1428 m 0
 455 1503 398 1560 323 1560 c 0
 248 1560 191 1503 191 1428 c 0
 191 1353 248 1296 323 1296 c 0
 398 1296 455 1353 455 1428 c 0
575 1428 m 0
 575 1288 463 1176 323 1176 c 0
 183 1176 71 1288 71 1428 c 0
 71 1568 183 1680 323 1680 c 0
 463 1680 575 1568 575 1428 c 0
EndSplineSet
Colour: ff00
EndChar

StartChar: uni00B2
Encoding: 178 178 340
Width: 658
VWidth: 1819
Flags: HMW
LayerCount: 2
Fore
SplineSet
90 859 m 1
 90 974 l 1
 371 1221 l 2
 399 1249 408 1259 408 1303 c 0
 408 1367 366 1395 309 1395 c 0
 246 1395 210 1364 210 1293 c 1
 90 1293 l 1
 90 1443 200 1515 309 1515 c 0
 412 1515 528 1446 528 1303 c 0
 528 1225 491 1167 454 1136 c 2
 270 979 l 1
 518 979 l 1
 518 859 l 1
 90 859 l 1
EndSplineSet
Colour: ff00
EndChar

StartChar: uni00B3
Encoding: 179 179 341
Width: 606
VWidth: 1819
Flags: HMW
LayerCount: 2
Fore
SplineSet
210 1311 m 1
 90 1311 l 1
 90 1433 187 1515 303 1515 c 0
 413 1515 516 1436 516 1321 c 0
 516 1268 492 1220 457 1187 c 1
 492 1154 516 1106 516 1053 c 0
 516 938 413 859 303 859 c 0
 187 859 90 941 90 1063 c 1
 210 1063 l 1
 210 1020 239 979 303 979 c 0
 361 979 396 1018 396 1053 c 0
 396 1088 361 1127 303 1127 c 2
 232 1127 l 1
 232 1247 l 1
 303 1247 l 2
 361 1247 396 1286 396 1321 c 0
 396 1356 361 1395 303 1395 c 0
 239 1395 210 1354 210 1311 c 1
EndSplineSet
Colour: ff00
EndChar

StartChar: acute
Encoding: 180 180 342
Width: 517
VWidth: 1819
Flags: HMW
LayerCount: 2
Fore
SplineSet
312 1523 m 1
 413 1460 l 1
 205 1127 l 1
 104 1190 l 1
 312 1523 l 1
EndSplineSet
Colour: ff00
EndChar

StartChar: mu
Encoding: 181 181 343
Width: 1168
VWidth: 1819
Flags: HMW
LayerCount: 2
Fore
SplineSet
768 1116 m 1
 1068 1116 l 1
 1068 -72 l 1
 768 -72 l 1
 768 8 l 1
 689 -44 595 -73 494 -73 c 0
 460 -73 427 -70 400 -65 c 1
 400 -859 l 1
 100 -859 l 1
 100 1116 l 1
 400 1116 l 1
 400 366 l 2
 400 262 426 203 534 203 c 0
 684 203 768 279 768 420 c 2
 768 1116 l 1
EndSplineSet
EndChar

StartChar: paragraph
Encoding: 182 182 344
Width: 1366
VWidth: 1819
Flags: HMW
LayerCount: 2
Fore
SplineSet
1266 -492 m 1
 996 -492 l 1
 996 1228 l 1
 978 1228 l 1
 978 -492 l 1
 708 -492 l 1
 708 420 l 1
 616 420 l 2
 317 420 100 662 100 951 c 0
 100 1240 316 1484 616 1484 c 2
 1266 1484 l 1
 1266 -492 l 1
708 1228 m 1
 616 1228 l 2
 515 1228 400 1142 400 951 c 0
 400 760 515 674 616 674 c 2
 708 674 l 1
 708 1228 l 1
EndSplineSet
Colour: ffff00
EndChar

StartChar: cedilla
Encoding: 184 184 346
Width: 723
VWidth: 1819
Flags: HMW
LayerCount: 2
Fore
SplineSet
164 -335 m 1
 205 -378 263 -399 342 -399 c 0
 436 -399 500 -354 500 -318 c 0
 500 -233 402 -112 307 -39 c 1
 375 61 l 1
 506 -33 610 -166 610 -318 c 0
 610 -472 454 -519 342 -519 c 0
 239 -519 157 -486 91 -413 c 1
 164 -335 l 1
EndSplineSet
Colour: ffff00
EndChar

StartChar: uni00B9
Encoding: 185 185 347
Width: 457
VWidth: 1819
Flags: HMW
LayerCount: 2
Fore
SplineSet
79 1253 m 1
 79 1373 l 1
 219 1373 l 1
 220 1465 l 1
 340 1465 l 1
 340 819 l 1
 220 819 l 1
 220 1253 l 1
 79 1253 l 1
EndSplineSet
Colour: ff00
EndChar

StartChar: onequarter
Encoding: 188 188 349
Width: 1965
VWidth: 1819
Flags: HMW
LayerCount: 2
Fore
SplineSet
100 1184 m 1
 100 1418 l 1
 264 1418 l 2
 315 1418 321 1426 321 1491 c 2
 321 1640 l 1
 621 1640 l 1
 621 480 l 1
 321 480 l 1
 321 1194 l 1
 275 1186 231 1184 182 1184 c 2
 100 1184 l 1
1865 54 m 1
 1865 -182 l 1
 1769 -182 l 1
 1769 -408 l 1
 1469 -408 l 1
 1469 -182 l 1
 955 -182 l 1
 955 -10 l 1
 1496 838 l 1
 1769 838 l 1
 1769 54 l 1
 1865 54 l 1
1469 54 m 1
 1469 348 l 1
 1286 54 l 1
 1469 54 l 1
663 -69 m 1
 410 77 l 1
 1501 1524 l 1
 1754 1378 l 1
 663 -69 l 1
EndSplineSet
Colour: ffff00
EndChar

StartChar: onehalf
Encoding: 189 189 350
Width: 2096
VWidth: 1819
Flags: HMW
LayerCount: 2
Fore
SplineSet
660 -69 m 1
 407 77 l 1
 1499 1524 l 1
 1752 1378 l 1
 660 -69 l 1
2056 -200 m 1
 2056 -456 l 1
 1169 -456 l 1
 1169 -245 l 1
 1688 265 l 2
 1739.64356287 313.757891729 1768.11903052 381.541914328 1768.11903052 442.595992764 c 0
 1768.11903052 521.98789488 1719.96929357 590 1612 590 c 0
 1510 590 1470 512 1470 388 c 1
 1170 388 l 1
 1170 673 1360 844 1612 844 c 0
 1832 844 2056 691 2056 418 c 0
 2056 256 1981 148 1902 73 c 2
 1635 -200 l 1
 2056 -200 l 1
100 1184 m 1
 100 1418 l 1
 264 1418 l 2
 315 1418 321 1426 321 1491 c 2
 321 1640 l 1
 621 1640 l 1
 621 480 l 1
 321 480 l 1
 321 1194 l 1
 275 1186 231 1184 182 1184 c 2
 100 1184 l 1
EndSplineSet
Colour: ffff00
EndChar

StartChar: threequarters
Encoding: 190 190 351
Width: 2140
VWidth: 2047
Flags: HMW
LayerCount: 2
Fore
SplineSet
2040 54 m 1
 2040 -182 l 1
 1944 -182 l 1
 1944 -408 l 1
 1644 -408 l 1
 1644 -182 l 1
 1130 -182 l 1
 1130 -10 l 1
 1671 838 l 1
 1944 838 l 1
 1944 54 l 1
 2040 54 l 1
1644 54 m 1
 1644 348 l 1
 1461 54 l 1
 1644 54 l 1
426 924 m 2
 310 924 l 1
 310 1160 l 1
 426 1160 l 2
 554 1160 585 1199 585 1303 c 0
 585 1358 526 1438 443 1438 c 0
 352 1438 300 1391 300 1255 c 1
 0 1255 l 1
 0 1547 202 1692 443 1692 c 0
 677 1692 885 1526 885 1303 c 0
 885 1203 854 1112 792 1042 c 1
 854 972 885 882 885 782 c 0
 885 559 677 392 443 392 c 0
 202 392 0 537 0 829 c 1
 300 829 l 1
 300 694 351 648 443 648 c 0
 527 648 585 727 585 782 c 0
 585 885 555 924 426 924 c 2
838 -69 m 1
 585 77 l 1
 1677 1524 l 1
 1930 1378 l 1
 838 -69 l 1
EndSplineSet
Colour: ffff00
EndChar

StartChar: AE
Encoding: 198 198 359
Width: 2023
VWidth: 1819
Flags: HMW
LayerCount: 2
Fore
SplineSet
889 997 m 1
 665 538 l 1
 889 538 l 1
 889 997 l 1
1923 182 m 1
 1923 -72 l 1
 889 -72 l 1
 889 302 l 1
 550 302 l 1
 379 -72 l 1
 50 -72 l 1
 798 1484 l 1
 1923 1484 l 1
 1923 1228 l 1
 1189 1228 l 1
 1189 810 l 1
 1923 810 l 1
 1923 576 l 1
 1189 576 l 1
 1189 182 l 1
 1923 182 l 1
EndSplineSet
Colour: ffff00
EndChar

StartChar: Thorn
Encoding: 222 222 383
Width: 1179
VWidth: 1819
Flags: HMW
LayerCount: 2
Fore
SplineSet
400 488 m 1
 587 488 l 2
 742 488 829 566 829 707 c 0
 829 848 742 926 587 926 c 2
 400 926 l 1
 400 488 l 1
400 -72 m 1
 100 -72 l 1
 100 1484 l 1
 400 1484 l 1
 400 1160 l 1
 587 1160 l 2
 855 1160 1129 1024 1129 707 c 0
 1129 390 855 254 587 254 c 2
 400 254 l 1
 400 -72 l 1
EndSplineSet
Colour: ffff00
EndChar

StartChar: germandbls
Encoding: 223 223 384
Width: 1249
VWidth: 1819
Flags: HMW
LayerCount: 2
Fore
SplineSet
517 -72 m 1
 517 202 l 1
 766 202 l 2
 806 202 849 208 849 262 c 0
 849 297 827 323 756 373 c 0
 685 423 554 517 554 690 c 0
 554 803 603 870 647 930 c 0
 683 979 715 1025 715 1088 c 0
 715 1179 667 1248 557 1248 c 0
 442 1248 400 1182 400 1052 c 2
 400 -72 l 1
 100 -72 l 1
 100 1052 l 2
 100 1274 244 1504 557 1504 c 0
 862 1504 1015 1277 1015 1052 c 0
 1015 932 960 822 893 771 c 0
 862 747 848 725 848 703 c 0
 848 668 882 632 940 591 c 0
 1021 533 1149 429 1149 251 c 0
 1149 -58 819 -72 567 -72 c 2
 517 -72 l 1
EndSplineSet
Colour: ffff00
EndChar

StartChar: ae
Encoding: 230 230 391
Width: 1829
VWidth: 1819
Flags: HMW
LayerCount: 2
Fore
SplineSet
684 454 m 1
 666 455 648 456 633 456 c 0
 465 456 338 393 338 293 c 0
 338 206.525053996 393.45608357 169.575916731 459.964900412 169.575916731 c 0
 559.584021219 169.575916731 684 252.471476281 684 376 c 1
 864 376 l 2
 864 75 604 -92 401 -92 c 0
 191 -92 50 56 50 270 c 0
 50 591 387 652 633 652 c 0
 719 652 802 641 875 622 c 2
 929 608 l 1
 806 456 l 1
 684 454 l 1
368 741 m 1
 68 741 l 1
 68 1002 288 1136 525 1136 c 0
 729 1136 984 996 984 731 c 2
 984 322 l 2
 684 322 l 2
 684 721 l 2
 684 797 649 880 525 880 c 0
 397 880 368 817 368 741 c 1
1001 618 m 1
 1460 618 l 1
 1425 780 1351 880 1228 880 c 0
 1106 880 1035 781 1001 618 c 1
1002 424 m 1
 1024.68958762 229.944316415 1144.71065358 157.857712833 1295.00502911 157.857712833 c 0
 1396.42022037 157.857712833 1511.61957695 190.680475715 1620 241 c 1
 1731 32 l 1
 1562.29462802 -50.6686940757 1398.74530835 -91.3726905084 1253.01019947 -91.3726905084 c 0
 922.767311618 -91.3726905084 684 117.641426016 684 521 c 0
 684 803 843 1136 1228 1136 c 0
 1610 1136 1779 806 1779 521 c 2
 1779 424 l 1
 1002 424 l 1
EndSplineSet
EndChar

StartChar: eth
Encoding: 240 240 401
Width: 1188
VWidth: 1819
Flags: HMW
LayerCount: 2
Fore
SplineSet
405 1099 m 1
 790 1411 l 1025
307 1411 m 0
 673 1343 979 837 987 555 c 1024
EndSplineSet
Refer: 310 111 N 1 0 0 1 0 0 2
EndChar

StartChar: dotlessi
Encoding: 305 305 417
Width: 500
VWidth: 1819
Flags: HMW
LayerCount: 2
Fore
SplineSet
100 1116 m 1
 400 1116 l 1
 400 -72 l 1
 100 -72 l 1
 100 1116 l 1
EndSplineSet
Colour: ffff00
EndChar

StartChar: OE
Encoding: 338 338 418
Width: 1735
VWidth: 1819
Flags: HMW
LayerCount: 2
Fore
SplineSet
654 217 m 1
 654 1194 l 1
 457 1146 350 979 350 706 c 0
 350 433 458 265 654 217 c 1
1635 1484 m 1
 1635 1228 l 1
 954 1228 l 1
 954 824 l 1
 1635 824 l 1
 1635 588 l 1
 954 588 l 1
 954 182 l 1
 1635 182 l 1
 1635 -72 l 1
 781 -72 l 2
 282 -72 50 304 50 706 c 0
 50 1108 282 1484 781 1484 c 2
 1635 1484 l 1
EndSplineSet
Colour: ffff00
EndChar

StartChar: uniE003
Encoding: 57347 57347 420
Width: 1762
VWidth: 1819
Flags: HMW
LayerCount: 2
Fore
SplineSet
1561 1507 m 1
 1706 1356 l 1
 201 -96 l 1
 56 55 l 1
 1561 1507 l 1
EndSplineSet
Colour: ff00ff
EndChar

StartChar: uniE004
Encoding: 57348 57348 421
Width: 1088
VWidth: 1819
Flags: HMW
LayerCount: 2
Fore
SplineSet
214 -88 m 1
 49 41 l 1
 874 1101 l 1
 1039 972 l 1
 214 -88 l 1
EndSplineSet
Colour: ff00ff
EndChar

StartChar: uniE005
Encoding: 57349 57349 423
Width: 1462
VWidth: 1819
Flags: HMW
LayerCount: 2
Fore
SplineSet
1411 15 m 1
 1251 -119 l 1
 744 487 l 1
 904 621 l 1
 1411 15 l 1
EndSplineSet
Colour: ff00ff
EndChar

StartChar: uniE006
Encoding: 57350 57350 424
Width: 1146
VWidth: 1819
Flags: HMW
LayerCount: 2
Fore
SplineSet
206 371 m 1
 206 581 l 1
 940 581 l 1
 940 371 l 1
 206 371 l 1
206 45 m 1
 206 255 l 1
 940 255 l 1
 940 45 l 1
 206 45 l 1
EndSplineSet
Colour: ff00ff
EndChar

StartChar: uniE007
Encoding: 57351 57351 425
Width: 869
VWidth: 1954
Flags: HMW
LayerCount: 2
Fore
SplineSet
579 1537 m 1
 550 1552 505 1567 472 1567 c 0
 394 1567 355 1515 355 1482 c 0
 355 1430 381 1419 452 1397 c 0
 510 1379 617 1344 617 1226 c 0
 617 1088 461 1027 344 1027 c 0
 272 1027 210 1042 156 1068 c 1
 207 1176 l 1
 243 1159 285 1147 344 1147 c 0
 444 1147 497 1201 497 1226 c 0
 497 1250 485 1260 416 1281 c 0
 350 1301 235 1344 235 1482 c 0
 235 1597 344 1687 472 1687 c 0
 533 1687 581 1667 625 1647 c 1
 579 1537 l 1
EndSplineSet
Colour: ffff
EndChar

StartChar: uniE008
Encoding: 57352 57352 426
Width: 1454
VWidth: 1819
Flags: HMW
LayerCount: 2
Fore
SplineSet
495 1136 m 0
 495 1200 448 1249 392 1249 c 0
 336 1249 288 1198 288 1136 c 0
 288 1075 334 1030 392 1030 c 0
 448 1030 495 1075 495 1136 c 0
688 1137 m 0
 688 974 559 838 392 838 c 0
 226 838 95 974 95 1137 c 0
 95 1293 217 1441 392 1441 c 0
 568 1441 688 1292 688 1137 c 0
EndSplineSet
Colour: ff00ff
EndChar

StartChar: uniE009
Encoding: 57353 57353 427
Width: 1146
VWidth: 1819
Flags: HMW
LayerCount: 2
Fore
SplineSet
468 1638 m 1
 678 1638 l 1
 678 -239 l 1
 468 -239 l 1
 468 1638 l 1
EndSplineSet
Colour: ff00ff
EndChar

StartChar: uni0237
Encoding: 567 567 428
Width: 500
VWidth: 1819
Flags: HMW
LayerCount: 2
Fore
SplineSet
100 -190 m 2
 100 1116 l 1
 400 1116 l 1
 400 -190 l 2
 400 -354 264 -502 74 -502 c 1
 -8 -502 -81 -474 -136 -429 c 1
 -136 -228 l 1
 64 -228 l 2
 88 -228 100 -215 100 -190 c 2
EndSplineSet
Colour: ffff00
EndChar

StartChar: uniE00A
Encoding: 57354 57354 429
Width: 1214
VWidth: 1819
Flags: HMW
LayerCount: 2
Fore
SplineSet
70 413 m 1
 70 623 l 1
 714 623 l 1
 714 413 l 1
 70 413 l 1
EndSplineSet
Colour: ff00ff
EndChar

StartChar: uniE00B
Encoding: 57355 57355 430
Width: 1108
VWidth: 1819
Flags: HMW
LayerCount: 2
Fore
SplineSet
686 454 m 1
 668 455 650 456 635 456 c 0
 467 456 340 393 340 280 c 0
 340 227 376 169 472 169 c 0
 585 169 686 257 686 366 c 1
 866 366 l 17
 866 65 606 -82 403 -82 c 0
 193 -82 52 56 52 270 c 0
 52 591 389 652 635 652 c 0
 721 652 804 641 877 622 c 2
 931 608 l 1
 808 456 l 1
 686 454 l 1
EndSplineSet
Colour: ffff00
EndChar

StartChar: uniE00C
Encoding: 57356 57356 431
Width: 1536
VWidth: 1819
Flags: HMW
LayerCount: 2
Back
SplineSet
858 692 m 1
 858 893 926 1116 1172 1116 c 0
 1486 1116 1486 813 1486 692 c 2
 1486 -72 l 1
 1186 -72 l 1
 1186 692 l 2
 1186 770 1151 840 1052 840 c 0
 961 840 920 771 918 692 c 1
 858 692 l 1
EndSplineSet
Fore
SplineSet
858 712 m 1
 858 913 946 1136 1192 1136 c 0
 1506 1136 1526 833 1526 712 c 2
 1526 -72 l 1
 1226 -72 l 1
 1226 712 l 2
 1226 790 1171 860 1072 860 c 0
 981 860 920 791 918 712 c 1
 858 712 l 1
EndSplineSet
Colour: ffff00
EndChar

StartChar: uniE00D
Encoding: 57357 57357 432
Width: 1068
VWidth: 1819
Flags: HMW
LayerCount: 2
Back
SplineSet
290 623 m 1
 290 904 381 1116 654 1116 c 0
 991 1116 1018 816 1018 677 c 6
 1018 -72 l 5
 718 -72 l 5
 718 623 l 6
 718 764 665 840 534 840 c 0
 404 840 350 764 350 623 c 1
 290 623 l 1
EndSplineSet
Fore
SplineSet
290 643 m 1
 290 924 391 1136 664 1136 c 0
 1001 1136 1038 836 1038 697 c 2
 1038 -72 l 1
 738 -72 l 1
 738 643 l 2
 738 784 675 860 544 860 c 0
 414 860 350 784 350 643 c 1
 290 643 l 1
EndSplineSet
Colour: ffff00
EndChar

StartChar: uniE00E
Encoding: 57358 57358 433
Width: 754
VWidth: 1819
Flags: HMW
LayerCount: 2
Fore
SplineSet
350 481 m 1
 170 481 l 1
 170 531 l 2
 170 786 295 1116 641 1116 c 2
 704 1116 l 1
 704 840 l 1
 663 840 622 840 581 840 c 0
 443 840 350 727 350 531 c 2
 350 481 l 1
EndSplineSet
Colour: ffff00
EndChar

StartChar: uniE00F
Encoding: 57359 57359 434
Width: 1158
VWidth: 1819
Flags: HMW
LayerCount: 2
Back
SplineSet
614 840 m 0
 461 840 370 736 370 521 c 0
 370 306 460 202 614 202 c 0
 768 202 858 306 858 521 c 0
 858 736 767 840 614 840 c 0
714 1116 m 0
 1102 1116 1158 796 1158 521 c 0
 1158 245 1101 -72 714 -72 c 0
 367 -72 270 241 270 521 c 0
 270 800 366 1116 714 1116 c 0
EndSplineSet
Fore
SplineSet
709 -92 m 0
 352 -92 240 245 240 521 c 0
 240 796 351 1136 709 1136 c 0
 1067 1136 1178 796 1178 521 c 0
 1178 245 1066 -92 709 -92 c 0
624 860 m 0
 471 860 370 736 370 521 c 0
 370 306 470 182 624 182 c 0
 778 182 878 306 878 521 c 0
 878 736 777 860 624 860 c 0
EndSplineSet
Colour: ffff00
EndChar

StartChar: quoteright
Encoding: 8217 8217 436
Width: 598
VWidth: 1854
Flags: HMW
LayerCount: 2
Fore
SplineSet
322 746 m 1
 256 794 l 1
 309 855 358 971 358 1066 c 0
 358 1177 120 1045 120 1231 c 0
 120 1330 169 1411 290 1411 c 0
 413 1411 478 1316 478 1179 c 0
 478 999 401 845 322 746 c 1
EndSplineSet
EndChar

StartChar: quoteleft
Encoding: 8216 8216 437
Width: 598
VWidth: 1854
Flags: HMW
LayerCount: 2
Fore
SplineSet
276 746 m 1
 197 845 120 999 120 1179 c 0
 120 1316 185 1411 308 1411 c 0
 429 1411 478 1330 478 1231 c 0
 478 1045 240 1177 240 1066 c 0
 240 971 289 855 342 794 c 1
 276 746 l 1
EndSplineSet
EndChar

StartChar: uniFB9F
Encoding: 64415 64415 463
Width: 1690
VWidth: 1854
Flags: HW
AnchorPoint: "Anchor-5" 827 773 basechar 0
AnchorPoint: "Anchor-3" 728 -502 basechar 0
LayerCount: 2
Fore
SplineSet
328 1 m 0
 328 -162 470 -278 729 -278 c 0
 1011 -278 1214 -138 1214 86 c 0
 1214 143 1200 213 1168 297 c 0
 1132 390 1096 483 1060 576 c 1
 1342 683 l 1
 1475 342 l 2
 1512 249 1531 224 1690 224 c 1
 1690 -76 l 1
 1623 -76 1558 -69 1500 -54 c 1
 1421 -420 1050 -578 729 -578 c 0
 394 -578 28 -397 28 1 c 0
 28 215 132 447 251 649 c 1
 504 492 l 1
 404 327 328 125 328 1 c 0
EndSplineSet
Colour: ff
EndChar

